<?xml version="1.0" encoding="us-ascii" standalone="no"?><svg xmlns="http://www.w3.org/2000/svg" xmlns:xlink="http://www.w3.org/1999/xlink" contentStyleType="text/css" height="1195px" preserveAspectRatio="none" style="width:879px;height:1195px;background:#FFFFFF;" version="1.1" viewBox="0 0 879 1195" width="879px" zoomAndPan="magnify"><defs/><g><!--class members--><g id="elem_members"><rect codeLine="2" fill="#F1F1F1" height="179.9063" id="members" rx="2.5" ry="2.5" style="stroke:#181818;stroke-width:0.5;" width="103" x="645.86" y="387.88"/><ellipse cx="664.01" cy="403.88" fill="#ADD1B2" rx="11" ry="11" style="stroke:#181818;stroke-width:1.0;"/><path d="M667.6243,410.38 L659.9045,410.38 L659.9045,397.9869 L667.6243,397.9869 L667.6243,400.1451 L662.3533,400.1451 L662.3533,402.818 L667.1262,402.818 L667.1262,404.9762 L662.3533,404.9762 L662.3533,408.2218 L667.6243,408.2218 Z " fill="#000000"/><text fill="#000000" font-family="sans-serif" font-size="14" lengthAdjust="spacing" textLength="64" x="678.71" y="409.171">members</text><line style="stroke:#181818;stroke-width:0.5;" x1="646.86" x2="747.86" y1="419.88" y2="419.88"/><ellipse cx="656.86" cy="433.6241" fill="#000000" rx="3" ry="3" style="stroke:#000000;stroke-width:1.0;"/><text fill="#000000" font-family="sans-serif" font-size="14" lengthAdjust="spacing" textLength="13" x="665.86" y="437.4152">id</text><ellipse cx="656.86" cy="450.1124" fill="#000000" rx="3" ry="3" style="stroke:#000000;stroke-width:1.0;"/><text fill="#000000" font-family="sans-serif" font-size="14" lengthAdjust="spacing" textLength="37" x="665.86" y="453.9034">email</text><ellipse cx="656.86" cy="466.6007" fill="#000000" rx="3" ry="3" style="stroke:#000000;stroke-width:1.0;"/><text fill="#000000" font-family="sans-serif" font-size="14" lengthAdjust="spacing" textLength="38" x="665.86" y="470.3917">name</text><ellipse cx="656.86" cy="483.089" fill="#000000" rx="3" ry="3" style="stroke:#000000;stroke-width:1.0;"/><text fill="#000000" font-family="sans-serif" font-size="14" lengthAdjust="spacing" textLength="66" x="665.86" y="486.88">password</text><text fill="#000000" font-family="sans-serif" font-size="14" lengthAdjust="spacing" textLength="68" x="665.86" y="503.3683">google_id</text><ellipse cx="656.86" cy="516.0655" fill="#000000" rx="3" ry="3" style="stroke:#000000;stroke-width:1.0;"/><text fill="#000000" font-family="sans-serif" font-size="14" lengthAdjust="spacing" textLength="71" x="665.86" y="519.8566">created_at</text><ellipse cx="656.86" cy="532.5538" fill="#000000" rx="3" ry="3" style="stroke:#000000;stroke-width:1.0;"/><text fill="#000000" font-family="sans-serif" font-size="14" lengthAdjust="spacing" textLength="77" x="665.86" y="536.3448">updated_at</text><ellipse cx="656.86" cy="549.0421" fill="#000000" rx="3" ry="3" style="stroke:#000000;stroke-width:1.0;"/><text fill="#000000" font-family="sans-serif" font-size="14" lengthAdjust="spacing" textLength="57" x="665.86" y="552.8331">versions</text><line style="stroke:#181818;stroke-width:0.5;" x1="646.86" x2="747.86" y1="559.7862" y2="559.7862"/></g><!--class workspaces--><g id="elem_workspaces"><rect codeLine="13" fill="#F1F1F1" height="146.9297" id="workspaces" rx="2.5" ry="2.5" style="stroke:#181818;stroke-width:0.5;" width="112" x="284.36" y="172.71"/><ellipse cx="299.36" cy="188.71" fill="#ADD1B2" rx="11" ry="11" style="stroke:#181818;stroke-width:1.0;"/><path d="M302.9743,195.21 L295.2545,195.21 L295.2545,182.8169 L302.9743,182.8169 L302.9743,184.9751 L297.7033,184.9751 L297.7033,187.648 L302.4762,187.648 L302.4762,189.8062 L297.7033,189.8062 L297.7033,193.0518 L302.9743,193.0518 Z " fill="#000000"/><text fill="#000000" font-family="sans-serif" font-size="14" lengthAdjust="spacing" textLength="80" x="313.36" y="194.001">workspaces</text><line style="stroke:#181818;stroke-width:0.5;" x1="285.36" x2="395.36" y1="204.71" y2="204.71"/><ellipse cx="295.36" cy="218.4541" fill="#000000" rx="3" ry="3" style="stroke:#000000;stroke-width:1.0;"/><text fill="#000000" font-family="sans-serif" font-size="14" lengthAdjust="spacing" textLength="13" x="304.36" y="222.2452">id</text><ellipse cx="295.36" cy="234.9424" fill="#000000" rx="3" ry="3" style="stroke:#000000;stroke-width:1.0;"/><text fill="#000000" font-family="sans-serif" font-size="14" lengthAdjust="spacing" textLength="38" x="304.36" y="238.7334">name</text><ellipse cx="295.36" cy="251.4307" fill="#000000" rx="3" ry="3" style="stroke:#000000;stroke-width:1.0;"/><text fill="#000000" font-family="sans-serif" font-size="14" lengthAdjust="spacing" textLength="29" x="304.36" y="255.2217">slug</text><ellipse cx="295.36" cy="267.919" fill="#000000" rx="3" ry="3" style="stroke:#000000;stroke-width:1.0;"/><text fill="#000000" font-family="sans-serif" font-size="14" lengthAdjust="spacing" textLength="71" x="304.36" y="271.71">created_at</text><ellipse cx="295.36" cy="284.4073" fill="#000000" rx="3" ry="3" style="stroke:#000000;stroke-width:1.0;"/><text fill="#000000" font-family="sans-serif" font-size="14" lengthAdjust="spacing" textLength="77" x="304.36" y="288.1983">updated_at</text><ellipse cx="295.36" cy="300.8955" fill="#000000" rx="3" ry="3" style="stroke:#000000;stroke-width:1.0;"/><text fill="#000000" font-family="sans-serif" font-size="14" lengthAdjust="spacing" textLength="57" x="304.36" y="304.6866">versions</text><line style="stroke:#181818;stroke-width:0.5;" x1="285.36" x2="395.36" y1="311.6397" y2="311.6397"/></g><!--class workspace_members--><g id="elem_workspace_members"><rect codeLine="22" fill="#F1F1F1" height="97.4648" id="workspace_members" rx="2.5" ry="2.5" style="stroke:#181818;stroke-width:0.5;" width="176" x="609.36" y="197.44"/><ellipse cx="624.36" cy="213.44" fill="#ADD1B2" rx="11" ry="11" style="stroke:#181818;stroke-width:1.0;"/><path d="M627.9743,219.94 L620.2545,219.94 L620.2545,207.5469 L627.9743,207.5469 L627.9743,209.7051 L622.7033,209.7051 L622.7033,212.378 L627.4762,212.378 L627.4762,214.5362 L622.7033,214.5362 L622.7033,217.7818 L627.9743,217.7818 Z " fill="#000000"/><text fill="#000000" font-family="sans-serif" font-size="14" lengthAdjust="spacing" textLength="144" x="638.36" y="218.731">workspace_members</text><line style="stroke:#181818;stroke-width:0.5;" x1="610.36" x2="784.36" y1="229.44" y2="229.44"/><ellipse cx="620.36" cy="243.1841" fill="#000000" rx="3" ry="3" style="stroke:#000000;stroke-width:1.0;"/><text fill="#000000" font-family="sans-serif" font-size="14" lengthAdjust="spacing" textLength="93" x="629.36" y="246.9752">workspace_id</text><ellipse cx="620.36" cy="259.6724" fill="#000000" rx="3" ry="3" style="stroke:#000000;stroke-width:1.0;"/><text fill="#000000" font-family="sans-serif" font-size="14" lengthAdjust="spacing" textLength="77" x="629.36" y="263.4634">member_id</text><ellipse cx="620.36" cy="276.1607" fill="#000000" rx="3" ry="3" style="stroke:#000000;stroke-width:1.0;"/><text fill="#000000" font-family="sans-serif" font-size="14" lengthAdjust="spacing" textLength="47" x="629.36" y="279.9517">role_id</text><line style="stroke:#181818;stroke-width:0.5;" x1="610.36" x2="784.36" y1="286.9048" y2="286.9048"/></g><!--class roles--><g id="elem_roles"><rect codeLine="28" fill="#F1F1F1" height="80.9766" id="roles" rx="2.5" ry="2.5" style="stroke:#181818;stroke-width:0.5;" width="89" x="783.86" y="437.35"/><ellipse cx="809.21" cy="453.35" fill="#ADD1B2" rx="11" ry="11" style="stroke:#181818;stroke-width:1.0;"/><path d="M812.8243,459.85 L805.1045,459.85 L805.1045,447.4569 L812.8243,447.4569 L812.8243,449.6151 L807.5533,449.6151 L807.5533,452.288 L812.3262,452.288 L812.3262,454.4462 L807.5533,454.4462 L807.5533,457.6918 L812.8243,457.6918 Z " fill="#000000"/><text fill="#000000" font-family="sans-serif" font-size="14" lengthAdjust="spacing" textLength="34" x="825.51" y="458.641">roles</text><line style="stroke:#181818;stroke-width:0.5;" x1="784.86" x2="871.86" y1="469.35" y2="469.35"/><ellipse cx="794.86" cy="483.0941" fill="#000000" rx="3" ry="3" style="stroke:#000000;stroke-width:1.0;"/><text fill="#000000" font-family="sans-serif" font-size="14" lengthAdjust="spacing" textLength="13" x="803.86" y="486.8852">id</text><ellipse cx="794.86" cy="499.5824" fill="#000000" rx="3" ry="3" style="stroke:#000000;stroke-width:1.0;"/><text fill="#000000" font-family="sans-serif" font-size="14" lengthAdjust="spacing" textLength="63" x="803.86" y="503.3734">role_type</text><line style="stroke:#181818;stroke-width:0.5;" x1="784.86" x2="871.86" y1="510.3266" y2="510.3266"/></g><!--class data_sources--><g id="elem_data_sources"><rect codeLine="33" fill="#F1F1F1" height="163.418" id="data_sources" rx="2.5" ry="2.5" style="stroke:#181818;stroke-width:0.5;" width="122" x="71.36" y="164.47"/><ellipse cx="86.36" cy="180.47" fill="#ADD1B2" rx="11" ry="11" style="stroke:#181818;stroke-width:1.0;"/><path d="M89.9743,186.97 L82.2545,186.97 L82.2545,174.5769 L89.9743,174.5769 L89.9743,176.7351 L84.7033,176.7351 L84.7033,179.408 L89.4762,179.408 L89.4762,181.5662 L84.7033,181.5662 L84.7033,184.8118 L89.9743,184.8118 Z " fill="#000000"/><text fill="#000000" font-family="sans-serif" font-size="14" lengthAdjust="spacing" textLength="90" x="100.36" y="185.761">data_sources</text><line style="stroke:#181818;stroke-width:0.5;" x1="72.36" x2="192.36" y1="196.47" y2="196.47"/><ellipse cx="82.36" cy="210.2141" fill="#000000" rx="3" ry="3" style="stroke:#000000;stroke-width:1.0;"/><text fill="#000000" font-family="sans-serif" font-size="14" lengthAdjust="spacing" textLength="13" x="91.36" y="214.0052">id</text><ellipse cx="82.36" cy="226.7024" fill="#000000" rx="3" ry="3" style="stroke:#000000;stroke-width:1.0;"/><text fill="#000000" font-family="sans-serif" font-size="14" lengthAdjust="spacing" textLength="38" x="91.36" y="230.4934">name</text><ellipse cx="82.36" cy="243.1907" fill="#000000" rx="3" ry="3" style="stroke:#000000;stroke-width:1.0;"/><text fill="#000000" font-family="sans-serif" font-size="14" lengthAdjust="spacing" textLength="19" x="91.36" y="246.9817">url</text><ellipse cx="82.36" cy="259.679" fill="#000000" rx="3" ry="3" style="stroke:#000000;stroke-width:1.0;"/><text fill="#000000" font-family="sans-serif" font-size="14" lengthAdjust="spacing" textLength="68" x="91.36" y="263.47">username</text><ellipse cx="82.36" cy="276.1673" fill="#000000" rx="3" ry="3" style="stroke:#000000;stroke-width:1.0;"/><text fill="#000000" font-family="sans-serif" font-size="14" lengthAdjust="spacing" textLength="66" x="91.36" y="279.9583">password</text><ellipse cx="82.36" cy="292.6555" fill="#000000" rx="3" ry="3" style="stroke:#000000;stroke-width:1.0;"/><text fill="#000000" font-family="sans-serif" font-size="14" lengthAdjust="spacing" textLength="96" x="91.36" y="296.4466">driver_type_id</text><ellipse cx="82.36" cy="309.1438" fill="#000000" rx="3" ry="3" style="stroke:#000000;stroke-width:1.0;"/><text fill="#000000" font-family="sans-serif" font-size="14" lengthAdjust="spacing" textLength="93" x="91.36" y="312.9348">workspace_id</text><line style="stroke:#181818;stroke-width:0.5;" x1="72.36" x2="192.36" y1="319.888" y2="319.888"/></g><!--class driver_types--><g id="elem_driver_types"><rect codeLine="43" fill="#F1F1F1" height="97.4648" id="driver_types" rx="2.5" ry="2.5" style="stroke:#181818;stroke-width:0.5;" width="142" x="61.36" y="7"/><ellipse cx="88.51" cy="23" fill="#ADD1B2" rx="11" ry="11" style="stroke:#181818;stroke-width:1.0;"/><path d="M92.1243,29.5 L84.4045,29.5 L84.4045,17.1069 L92.1243,17.1069 L92.1243,19.2651 L86.8533,19.2651 L86.8533,21.938 L91.6262,21.938 L91.6262,24.0962 L86.8533,24.0962 L86.8533,27.3418 L92.1243,27.3418 Z " fill="#000000"/><text fill="#000000" font-family="sans-serif" font-size="14" lengthAdjust="spacing" textLength="83" x="105.21" y="28.291">driver_types</text><line style="stroke:#181818;stroke-width:0.5;" x1="62.36" x2="202.36" y1="39" y2="39"/><ellipse cx="72.36" cy="52.7441" fill="#000000" rx="3" ry="3" style="stroke:#000000;stroke-width:1.0;"/><text fill="#000000" font-family="sans-serif" font-size="14" lengthAdjust="spacing" textLength="13" x="81.36" y="56.5352">id</text><ellipse cx="72.36" cy="69.2324" fill="#000000" rx="3" ry="3" style="stroke:#000000;stroke-width:1.0;"/><text fill="#000000" font-family="sans-serif" font-size="14" lengthAdjust="spacing" textLength="38" x="81.36" y="73.0234">name</text><ellipse cx="72.36" cy="85.7207" fill="#000000" rx="3" ry="3" style="stroke:#000000;stroke-width:1.0;"/><text fill="#000000" font-family="sans-serif" font-size="14" lengthAdjust="spacing" textLength="116" x="81.36" y="89.5117">jdbc_driver_class</text><line style="stroke:#181818;stroke-width:0.5;" x1="62.36" x2="202.36" y1="96.4648" y2="96.4648"/></g><!--class reports--><g id="elem_reports"><rect codeLine="49" fill="#F1F1F1" height="130.4414" id="reports" rx="2.5" ry="2.5" style="stroke:#181818;stroke-width:0.5;" width="156" x="82.36" y="834.72"/><ellipse cx="131.11" cy="850.72" fill="#ADD1B2" rx="11" ry="11" style="stroke:#181818;stroke-width:1.0;"/><path d="M134.7243,857.22 L127.0045,857.22 L127.0045,844.8269 L134.7243,844.8269 L134.7243,846.9851 L129.4533,846.9851 L129.4533,849.658 L134.2262,849.658 L134.2262,851.8162 L129.4533,851.8162 L129.4533,855.0618 L134.7243,855.0618 Z " fill="#000000"/><text fill="#000000" font-family="sans-serif" font-size="14" lengthAdjust="spacing" textLength="50" x="151.61" y="856.011">reports</text><line style="stroke:#181818;stroke-width:0.5;" x1="83.36" x2="237.36" y1="866.72" y2="866.72"/><ellipse cx="93.36" cy="880.4641" fill="#000000" rx="3" ry="3" style="stroke:#000000;stroke-width:1.0;"/><text fill="#000000" font-family="sans-serif" font-size="14" lengthAdjust="spacing" textLength="13" x="102.36" y="884.2552">id</text><ellipse cx="93.36" cy="896.9524" fill="#000000" rx="3" ry="3" style="stroke:#000000;stroke-width:1.0;"/><text fill="#000000" font-family="sans-serif" font-size="14" lengthAdjust="spacing" textLength="93" x="102.36" y="900.7434">workspace_id</text><ellipse cx="93.36" cy="913.4407" fill="#000000" rx="3" ry="3" style="stroke:#000000;stroke-width:1.0;"/><text fill="#000000" font-family="sans-serif" font-size="14" lengthAdjust="spacing" textLength="38" x="102.36" y="917.2317">name</text><ellipse cx="93.36" cy="929.929" fill="#000000" rx="3" ry="3" style="stroke:#000000;stroke-width:1.0;"/><text fill="#000000" font-family="sans-serif" font-size="14" lengthAdjust="spacing" textLength="130" x="102.36" y="933.72">report_template_id</text><ellipse cx="93.36" cy="946.4173" fill="#000000" rx="3" ry="3" style="stroke:#000000;stroke-width:1.0;"/><text fill="#000000" font-family="sans-serif" font-size="14" lengthAdjust="spacing" textLength="103" x="102.36" y="950.2083">data_source_id</text><line style="stroke:#181818;stroke-width:0.5;" x1="83.36" x2="237.36" y1="957.1614" y2="957.1614"/></g><!--class report_templates--><g id="elem_report_templates"><rect codeLine="57" fill="#F1F1F1" height="163.418" id="report_templates" rx="2.5" ry="2.5" style="stroke:#181818;stroke-width:0.5;" width="188" x="354.36" y="1025.16"/><ellipse cx="386.91" cy="1041.16" fill="#ADD1B2" rx="11" ry="11" style="stroke:#181818;stroke-width:1.0;"/><path d="M390.5243,1047.66 L382.8045,1047.66 L382.8045,1035.2669 L390.5243,1035.2669 L390.5243,1037.4251 L385.2533,1037.4251 L385.2533,1040.098 L390.0262,1040.098 L390.0262,1042.2562 L385.2533,1042.2562 L385.2533,1045.5018 L390.5243,1045.5018 Z " fill="#000000"/><text fill="#000000" font-family="sans-serif" font-size="14" lengthAdjust="spacing" textLength="117" x="404.81" y="1046.451">report_templates</text><line style="stroke:#181818;stroke-width:0.5;" x1="355.36" x2="541.36" y1="1057.16" y2="1057.16"/><ellipse cx="365.36" cy="1070.9041" fill="#000000" rx="3" ry="3" style="stroke:#000000;stroke-width:1.0;"/><text fill="#000000" font-family="sans-serif" font-size="14" lengthAdjust="spacing" textLength="13" x="374.36" y="1074.6952">id</text><ellipse cx="365.36" cy="1087.3924" fill="#000000" rx="3" ry="3" style="stroke:#000000;stroke-width:1.0;"/><text fill="#000000" font-family="sans-serif" font-size="14" lengthAdjust="spacing" textLength="93" x="374.36" y="1091.1834">workspace_id</text><ellipse cx="365.36" cy="1103.8807" fill="#000000" rx="3" ry="3" style="stroke:#000000;stroke-width:1.0;"/><text fill="#000000" font-family="sans-serif" font-size="14" lengthAdjust="spacing" textLength="72" x="374.36" y="1107.6717">storage_id</text><ellipse cx="365.36" cy="1120.369" fill="#000000" rx="3" ry="3" style="stroke:#000000;stroke-width:1.0;"/><text fill="#000000" font-family="sans-serif" font-size="14" lengthAdjust="spacing" textLength="38" x="374.36" y="1124.16">name</text><ellipse cx="365.36" cy="1136.8573" fill="#000000" rx="3" ry="3" style="stroke:#000000;stroke-width:1.0;"/><text fill="#000000" font-family="sans-serif" font-size="14" lengthAdjust="spacing" textLength="59" x="374.36" y="1140.6483">file_path</text><ellipse cx="365.36" cy="1153.3455" fill="#000000" rx="3" ry="3" style="stroke:#000000;stroke-width:1.0;"/><text fill="#000000" font-family="sans-serif" font-size="14" lengthAdjust="spacing" textLength="162" x="374.36" y="1157.1366">storage_type: [local, s3]</text><ellipse cx="365.36" cy="1169.8338" fill="#000000" rx="3" ry="3" style="stroke:#000000;stroke-width:1.0;"/><text fill="#000000" font-family="sans-serif" font-size="14" lengthAdjust="spacing" textLength="55" x="374.36" y="1173.6248">file_size</text><line style="stroke:#181818;stroke-width:0.5;" x1="355.36" x2="541.36" y1="1180.578" y2="1180.578"/></g><!--class report_groups--><g id="elem_report_groups"><rect codeLine="67" fill="#F1F1F1" height="97.4648" id="report_groups" rx="2.5" ry="2.5" style="stroke:#181818;stroke-width:0.5;" width="131" x="191.86" y="429.11"/><ellipse cx="206.86" cy="445.11" fill="#ADD1B2" rx="11" ry="11" style="stroke:#181818;stroke-width:1.0;"/><path d="M210.4743,451.61 L202.7545,451.61 L202.7545,439.2169 L210.4743,439.2169 L210.4743,441.3751 L205.2033,441.3751 L205.2033,444.048 L209.9762,444.048 L209.9762,446.2062 L205.2033,446.2062 L205.2033,449.4518 L210.4743,449.4518 Z " fill="#000000"/><text fill="#000000" font-family="sans-serif" font-size="14" lengthAdjust="spacing" textLength="99" x="220.86" y="450.401">report_groups</text><line style="stroke:#181818;stroke-width:0.5;" x1="192.86" x2="321.86" y1="461.11" y2="461.11"/><ellipse cx="202.86" cy="474.8541" fill="#000000" rx="3" ry="3" style="stroke:#000000;stroke-width:1.0;"/><text fill="#000000" font-family="sans-serif" font-size="14" lengthAdjust="spacing" textLength="13" x="211.86" y="478.6452">id</text><ellipse cx="202.86" cy="491.3424" fill="#000000" rx="3" ry="3" style="stroke:#000000;stroke-width:1.0;"/><text fill="#000000" font-family="sans-serif" font-size="14" lengthAdjust="spacing" textLength="93" x="211.86" y="495.1334">workspace_id</text><ellipse cx="202.86" cy="507.8307" fill="#000000" rx="3" ry="3" style="stroke:#000000;stroke-width:1.0;"/><text fill="#000000" font-family="sans-serif" font-size="14" lengthAdjust="spacing" textLength="38" x="211.86" y="511.6217">name</text><line style="stroke:#181818;stroke-width:0.5;" x1="192.86" x2="321.86" y1="518.5748" y2="518.5748"/></g><!--class report_group_reports--><g id="elem_report_group_reports"><rect codeLine="73" fill="#F1F1F1" height="97.4648" id="report_group_reports" rx="2.5" ry="2.5" style="stroke:#181818;stroke-width:0.5;" width="181" x="141.86" y="652.52"/><ellipse cx="156.86" cy="668.52" fill="#ADD1B2" rx="11" ry="11" style="stroke:#181818;stroke-width:1.0;"/><path d="M160.4743,675.02 L152.7545,675.02 L152.7545,662.6269 L160.4743,662.6269 L160.4743,664.7851 L155.2033,664.7851 L155.2033,667.458 L159.9762,667.458 L159.9762,669.6162 L155.2033,669.6162 L155.2033,672.8618 L160.4743,672.8618 Z " fill="#000000"/><text fill="#000000" font-family="sans-serif" font-size="14" lengthAdjust="spacing" textLength="149" x="170.86" y="673.811">report_group_reports</text><line style="stroke:#181818;stroke-width:0.5;" x1="142.86" x2="321.86" y1="684.52" y2="684.52"/><ellipse cx="152.86" cy="698.2641" fill="#000000" rx="3" ry="3" style="stroke:#000000;stroke-width:1.0;"/><text fill="#000000" font-family="sans-serif" font-size="14" lengthAdjust="spacing" textLength="13" x="161.86" y="702.0552">id</text><ellipse cx="152.86" cy="714.7524" fill="#000000" rx="3" ry="3" style="stroke:#000000;stroke-width:1.0;"/><text fill="#000000" font-family="sans-serif" font-size="14" lengthAdjust="spacing" textLength="112" x="161.86" y="718.5434">report_group_id</text><ellipse cx="152.86" cy="731.2407" fill="#000000" rx="3" ry="3" style="stroke:#000000;stroke-width:1.0;"/><text fill="#000000" font-family="sans-serif" font-size="14" lengthAdjust="spacing" textLength="63" x="161.86" y="735.0317">report_id</text><line style="stroke:#181818;stroke-width:0.5;" x1="142.86" x2="321.86" y1="741.9848" y2="741.9848"/></g><!--class storage_s3s--><g id="elem_storage_s3s"><rect codeLine="79" fill="#F1F1F1" height="146.9297" id="storage_s3s" rx="2.5" ry="2.5" style="stroke:#181818;stroke-width:0.5;" width="181" x="357.86" y="627.79"/><ellipse cx="403.11" cy="643.79" fill="#ADD1B2" rx="11" ry="11" style="stroke:#181818;stroke-width:1.0;"/><path d="M406.7243,650.29 L399.0045,650.29 L399.0045,637.8969 L406.7243,637.8969 L406.7243,640.0551 L401.4533,640.0551 L401.4533,642.728 L406.2262,642.728 L406.2262,644.8862 L401.4533,644.8862 L401.4533,648.1318 L406.7243,648.1318 Z " fill="#000000"/><text fill="#000000" font-family="sans-serif" font-size="14" lengthAdjust="spacing" textLength="82" x="423.61" y="649.081">storage_s3s</text><line style="stroke:#181818;stroke-width:0.5;" x1="358.86" x2="537.86" y1="659.79" y2="659.79"/><ellipse cx="368.86" cy="673.5341" fill="#000000" rx="3" ry="3" style="stroke:#000000;stroke-width:1.0;"/><text fill="#000000" font-family="sans-serif" font-size="14" lengthAdjust="spacing" textLength="13" x="377.86" y="677.3252">id</text><ellipse cx="368.86" cy="690.0224" fill="#000000" rx="3" ry="3" style="stroke:#000000;stroke-width:1.0;"/><text fill="#000000" font-family="sans-serif" font-size="14" lengthAdjust="spacing" textLength="93" x="377.86" y="693.8134">workspace_id</text><ellipse cx="368.86" cy="706.5107" fill="#000000" rx="3" ry="3" style="stroke:#000000;stroke-width:1.0;"/><text fill="#000000" font-family="sans-serif" font-size="14" lengthAdjust="spacing" textLength="127" x="377.86" y="710.3017">aws_access_key_id</text><ellipse cx="368.86" cy="722.999" fill="#000000" rx="3" ry="3" style="stroke:#000000;stroke-width:1.0;"/><text fill="#000000" font-family="sans-serif" font-size="14" lengthAdjust="spacing" textLength="155" x="377.86" y="726.79">aws_secret_access_key</text><ellipse cx="368.86" cy="739.4873" fill="#000000" rx="3" ry="3" style="stroke:#000000;stroke-width:1.0;"/><text fill="#000000" font-family="sans-serif" font-size="14" lengthAdjust="spacing" textLength="78" x="377.86" y="743.2783">aws_region</text><ellipse cx="368.86" cy="755.9755" fill="#000000" rx="3" ry="3" style="stroke:#000000;stroke-width:1.0;"/><text fill="#000000" font-family="sans-serif" font-size="14" lengthAdjust="spacing" textLength="114" x="377.86" y="759.7666">s3_bucket_name</text><line style="stroke:#181818;stroke-width:0.5;" x1="358.86" x2="537.86" y1="766.7197" y2="766.7197"/></g><!--link workspaces to workspace_members--><g id="link_workspaces_workspace_members"><path codeLine="88" d="M396.83,246.18 C467.56,246.18 530.29,246.18 601.02,246.18 " fill="none" id="workspaces-to-workspace_members" style="stroke:#181818;stroke-width:1.0;"/><line style="stroke:#181818;stroke-width:1.0;" x1="601.02" x2="609.02" y1="246.18" y2="238.18"/><line style="stroke:#181818;stroke-width:1.0;" x1="601.02" x2="609.02" y1="246.18" y2="254.18"/><line style="stroke:#181818;stroke-width:1.0;" x1="601.02" x2="609.02" y1="246.18" y2="246.18"/></g><!--reverse link workspace_members to members--><g id="link_workspace_members_members"><path codeLine="89" d="M697.36,303.32 C697.36,330.02 697.36,356.08 697.36,387.47 " fill="none" id="workspace_members-backto-members" style="stroke:#181818;stroke-width:1.0;"/><line style="stroke:#181818;stroke-width:1.0;" x1="697.36" x2="689.36" y1="303.32" y2="295.32"/><line style="stroke:#181818;stroke-width:1.0;" x1="697.36" x2="705.36" y1="303.32" y2="295.32"/><line style="stroke:#181818;stroke-width:1.0;" x1="697.36" x2="697.36" y1="303.32" y2="295.32"/></g><!--link workspace_members to roles--><g id="link_workspace_members_roles"><path codeLine="90" d="M728.784,302.2689 C752.794,344.3589 779.3072,390.8405 801.7572,430.2105 " fill="none" id="workspace_members-roles" style="stroke:#181818;stroke-width:1.0;"/><line style="stroke:#181818;stroke-width:1.0;" x1="728.784" x2="717.8711" y1="302.2689" y2="295.32"/><line style="stroke:#181818;stroke-width:1.0;" x1="728.784" x2="731.7689" y1="302.2689" y2="295.32"/><line style="stroke:#181818;stroke-width:1.0;" x1="728.784" x2="724.82" y1="302.2689" y2="295.32"/><line style="stroke:#181818;stroke-width:1.0;" x1="801.7572" x2="812.6695" y1="430.2105" y2="437.16"/><line style="stroke:#181818;stroke-width:1.0;" x1="801.7572" x2="798.7705" y1="430.2105" y2="437.16"/><line style="stroke:#181818;stroke-width:1.0;" x1="801.7572" x2="805.72" y1="430.2105" y2="437.16"/></g><!--reverse link data_sources to workspaces--><g id="link_data_sources_workspaces"><path codeLine="91" d="M201.7,246.18 C231.78,246.18 253.85,246.18 283.93,246.18 " fill="none" id="data_sources-backto-workspaces" style="stroke:#181818;stroke-width:1.0;"/><line style="stroke:#181818;stroke-width:1.0;" x1="201.7" x2="193.7" y1="246.18" y2="254.18"/><line style="stroke:#181818;stroke-width:1.0;" x1="201.7" x2="193.7" y1="246.18" y2="238.18"/><line style="stroke:#181818;stroke-width:1.0;" x1="201.7" x2="193.7" y1="246.18" y2="246.18"/></g><!--link workspaces to reports--><g id="link_workspaces_reports"><path codeLine="92" d="M284.05,280.74 C247.16,305.69 201.01,343.08 174.36,387.88 C85.74,536.88 99.99,603.08 124.36,774.72 C127.15,794.39 130.054,807.6347 135.624,826.5847 " fill="none" id="workspaces-to-reports" style="stroke:#181818;stroke-width:1.0;"/><line style="stroke:#181818;stroke-width:1.0;" x1="135.624" x2="145.5553" y1="826.5847" y2="834.26"/><line style="stroke:#181818;stroke-width:1.0;" x1="135.624" x2="130.2047" y1="826.5847" y2="834.26"/><line style="stroke:#181818;stroke-width:1.0;" x1="135.624" x2="137.88" y1="826.5847" y2="834.26"/></g><!--link workspaces to report_templates--><g id="link_workspaces_report_templates"><path codeLine="93" d="M396.78,319.35 C449.97,392.37 525.92,510.88 556.36,627.79 C592.43,766.34 537.7793,922.0149 493.7893,1017.4349 " fill="none" id="workspaces-to-report_templates" style="stroke:#181818;stroke-width:1.0;"/><line style="stroke:#181818;stroke-width:1.0;" x1="493.7893" x2="497.7051" y1="1017.4349" y2="1024.7"/><line style="stroke:#181818;stroke-width:1.0;" x1="493.7893" x2="483.1749" y1="1017.4349" y2="1024.7"/><line style="stroke:#181818;stroke-width:1.0;" x1="493.7893" x2="490.44" y1="1017.4349" y2="1024.7"/></g><!--link workspaces to report_groups--><g id="link_workspaces_report_groups"><path codeLine="94" d="M314.09,319.84 C301.22,355.46 288.7986,389.8261 277.3986,421.3761 " fill="none" id="workspaces-to-report_groups" style="stroke:#181818;stroke-width:1.0;"/><line style="stroke:#181818;stroke-width:1.0;" x1="277.3986" x2="282.2039" y1="421.3761" y2="428.9"/><line style="stroke:#181818;stroke-width:1.0;" x1="277.3986" x2="267.1561" y1="421.3761" y2="428.9"/><line style="stroke:#181818;stroke-width:1.0;" x1="277.3986" x2="274.68" y1="421.3761" y2="428.9"/></g><!--reverse link reports to report_templates--><g id="link_reports_report_templates"><path codeLine="95" d="M245.1885,961.3078 C280.7485,986.6078 316.6,1012.12 353.91,1038.67 " fill="none" id="reports-backto-report_templates" style="stroke:#181818;stroke-width:1.0;"/><line style="stroke:#181818;stroke-width:1.0;" x1="245.1885" x2="238.67" y1="961.3078" y2="963.1885"/><line style="stroke:#181818;stroke-width:1.0;" x1="245.1885" x2="238.67" y1="961.3078" y2="950.1515"/><line style="stroke:#181818;stroke-width:1.0;" x1="245.1885" x2="238.67" y1="961.3078" y2="956.67"/></g><!--link report_groups to report_group_reports--><g id="link_report_groups_report_group_reports"><path codeLine="96" d="M251.0332,534.8296 C246.8432,571.9696 242.8573,607.2405 238.6673,644.3605 " fill="none" id="report_groups-report_group_reports" style="stroke:#181818;stroke-width:1.0;"/><line style="stroke:#181818;stroke-width:1.0;" x1="251.0332" x2="243.9804" y1="534.8296" y2="526.88"/><line style="stroke:#181818;stroke-width:1.0;" x1="251.0332" x2="259.8796" y1="534.8296" y2="526.88"/><line style="stroke:#181818;stroke-width:1.0;" x1="251.0332" x2="251.93" y1="534.8296" y2="526.88"/><line style="stroke:#181818;stroke-width:1.0;" x1="238.6673" x2="245.7195" y1="644.3605" y2="652.31"/><line style="stroke:#181818;stroke-width:1.0;" x1="238.6673" x2="229.8205" y1="644.3605" y2="652.31"/><line style="stroke:#181818;stroke-width:1.0;" x1="238.6673" x2="237.77" y1="644.3605" y2="652.31"/></g><!--link report_group_reports to reports--><g id="link_report_group_reports_reports"><path codeLine="97" d="M211.9908,757.8828 C202.7508,783.1328 196.8005,799.3877 186.7905,826.7277 " fill="none" id="report_group_reports-reports" style="stroke:#181818;stroke-width:1.0;"/><line style="stroke:#181818;stroke-width:1.0;" x1="211.9908" x2="207.2272" y1="757.8828" y2="750.37"/><line style="stroke:#181818;stroke-width:1.0;" x1="211.9908" x2="222.2528" y1="757.8828" y2="750.37"/><line style="stroke:#181818;stroke-width:1.0;" x1="211.9908" x2="214.74" y1="757.8828" y2="750.37"/><line style="stroke:#181818;stroke-width:1.0;" x1="186.7905" x2="191.5523" y1="826.7277" y2="834.24"/><line style="stroke:#181818;stroke-width:1.0;" x1="186.7905" x2="176.5277" y1="826.7277" y2="834.24"/><line style="stroke:#181818;stroke-width:1.0;" x1="186.7905" x2="184.04" y1="826.7277" y2="834.24"/></g><!--link driver_types to data_sources--><g id="link_driver_types_data_sources"><path codeLine="98" d="M132.36,104.77 C132.36,122.87 132.36,136 132.36,156.28 " fill="none" id="driver_types-to-data_sources" style="stroke:#181818;stroke-width:1.0;"/><line style="stroke:#181818;stroke-width:1.0;" x1="132.36" x2="140.36" y1="156.28" y2="164.28"/><line style="stroke:#181818;stroke-width:1.0;" x1="132.36" x2="124.36" y1="156.28" y2="164.28"/><line style="stroke:#181818;stroke-width:1.0;" x1="132.36" x2="132.36" y1="156.28" y2="164.28"/></g><!--link data_sources to reports--><g id="link_data_sources_reports"><path codeLine="99" d="M84.24,328.1 C75.2,347.1 67.1,367.7 62.36,387.88 C23.02,555.25 6,612.29 62.36,774.72 C69.74,796 77.5505,810.0659 91.4105,827.9559 " fill="none" id="data_sources-to-reports" style="stroke:#181818;stroke-width:1.0;"/><line style="stroke:#181818;stroke-width:1.0;" x1="91.4105" x2="102.6341" y1="827.9559" y2="834.28"/><line style="stroke:#181818;stroke-width:1.0;" x1="91.4105" x2="89.9859" y1="827.9559" y2="834.28"/><line style="stroke:#181818;stroke-width:1.0;" x1="91.4105" x2="96.31" y1="827.9559" y2="834.28"/></g><!--link workspaces to storage_s3s--><g id="link_workspaces_storage_s3s"><path codeLine="100" d="M357.71,319.97 C377.86,404.52 409.0546,535.3881 429.1946,619.8581 " fill="none" id="workspaces-to-storage_s3s" style="stroke:#181818;stroke-width:1.0;"/><line style="stroke:#181818;stroke-width:1.0;" x1="429.1946" x2="438.8319" y1="619.8581" y2="627.64"/><line style="stroke:#181818;stroke-width:1.0;" x1="429.1946" x2="423.2681" y1="619.8581" y2="627.64"/><line style="stroke:#181818;stroke-width:1.0;" x1="429.1946" x2="431.05" y1="619.8581" y2="627.64"/></g><!--link storage_s3s to report_templates--><g id="link_storage_s3s_report_templates"><path codeLine="101" d="M448.36,774.88 C448.36,845.24 448.36,943.74 448.36,1016.82 " fill="none" id="storage_s3s-to-report_templates" style="stroke:#181818;stroke-width:1.0;"/><line style="stroke:#181818;stroke-width:1.0;" x1="448.36" x2="456.36" y1="1016.82" y2="1024.82"/><line style="stroke:#181818;stroke-width:1.0;" x1="448.36" x2="440.36" y1="1016.82" y2="1024.82"/><line style="stroke:#181818;stroke-width:1.0;" x1="448.36" x2="448.36" y1="1016.82" y2="1024.82"/></g><!--SRC=[fLDDRyCW3BtpApXNowct_PLfGfHu6Iif29DLNPJ_FX9AWvEqdRHJWltiv-SFE0KTBho5zW0UUSyutt5TJnzefJRJtqcsCFquYNYsVlHptbZR611NjF8W0zH2XkdPkRfyViVisfwG3On1uenvZkYaWWNjZGnDr_mpjQ32PlkLAxdpoziaPquqMXRbJQ1mSL30OZrIeEtyVJ6TJwti4FnMEtUyzZfAcLBdWaYz1TsCl4VtLH-KkEAKYJIbA73MXqNagZMtL0ak0hJEnBvdVw5vqJEAVyQ3mNhPh6a_TEopa-6Je4RDh_pDM2ND2yVz-un5_GFhCXflE_SdhTkXOhDR145jf1UvRDm_Aq6UKKWLzmV54Iwb5I7kVoYSDu-79Yv-wizU73frZBYifJYlglBz-YRO-ag6gk8FlNsw29hSzEG0gBFFwxPjdjVaZZ_DZ-KfZ1Mk8kceXsLq7Y7RdEjGraWkQtGGOUJC7qWhfixA3TYK_Gi0]--></g></svg>