<?xml version="1.0" encoding="us-ascii" standalone="no"?><svg xmlns="http://www.w3.org/2000/svg" xmlns:xlink="http://www.w3.org/1999/xlink" contentStyleType="text/css" height="1195px" preserveAspectRatio="none" style="width:899px;height:1195px;background:#FFFFFF;" version="1.1" viewBox="0 0 899 1195" width="899px" zoomAndPan="magnify"><defs/><g><!--class members--><g id="elem_members"><rect codeLine="2" fill="#F1F1F1" height="179.9063" id="members" rx="2.5" ry="2.5" style="stroke:#181818;stroke-width:0.5;" width="103" x="460.75" y="7"/><ellipse cx="478.9" cy="23" fill="#ADD1B2" rx="11" ry="11" style="stroke:#181818;stroke-width:1.0;"/><path d="M482.5143,29.5 L474.7945,29.5 L474.7945,17.1069 L482.5143,17.1069 L482.5143,19.2651 L477.2433,19.2651 L477.2433,21.938 L482.0162,21.938 L482.0162,24.0962 L477.2433,24.0962 L477.2433,27.3418 L482.5143,27.3418 Z " fill="#000000"/><text fill="#000000" font-family="sans-serif" font-size="14" lengthAdjust="spacing" textLength="64" x="493.6" y="28.291">members</text><line style="stroke:#181818;stroke-width:0.5;" x1="461.75" x2="562.75" y1="39" y2="39"/><ellipse cx="471.75" cy="52.7441" fill="#000000" rx="3" ry="3" style="stroke:#000000;stroke-width:1.0;"/><text fill="#000000" font-family="sans-serif" font-size="14" lengthAdjust="spacing" textLength="13" x="480.75" y="56.5352">id</text><ellipse cx="471.75" cy="69.2324" fill="#000000" rx="3" ry="3" style="stroke:#000000;stroke-width:1.0;"/><text fill="#000000" font-family="sans-serif" font-size="14" lengthAdjust="spacing" textLength="37" x="480.75" y="73.0234">email</text><ellipse cx="471.75" cy="85.7207" fill="#000000" rx="3" ry="3" style="stroke:#000000;stroke-width:1.0;"/><text fill="#000000" font-family="sans-serif" font-size="14" lengthAdjust="spacing" textLength="38" x="480.75" y="89.5117">name</text><ellipse cx="471.75" cy="102.209" fill="#000000" rx="3" ry="3" style="stroke:#000000;stroke-width:1.0;"/><text fill="#000000" font-family="sans-serif" font-size="14" lengthAdjust="spacing" textLength="66" x="480.75" y="106">password</text><text fill="#000000" font-family="sans-serif" font-size="14" lengthAdjust="spacing" textLength="68" x="480.75" y="122.4883">google_id</text><ellipse cx="471.75" cy="135.1855" fill="#000000" rx="3" ry="3" style="stroke:#000000;stroke-width:1.0;"/><text fill="#000000" font-family="sans-serif" font-size="14" lengthAdjust="spacing" textLength="71" x="480.75" y="138.9766">created_at</text><ellipse cx="471.75" cy="151.6738" fill="#000000" rx="3" ry="3" style="stroke:#000000;stroke-width:1.0;"/><text fill="#000000" font-family="sans-serif" font-size="14" lengthAdjust="spacing" textLength="77" x="480.75" y="155.4648">updated_at</text><ellipse cx="471.75" cy="168.1621" fill="#000000" rx="3" ry="3" style="stroke:#000000;stroke-width:1.0;"/><text fill="#000000" font-family="sans-serif" font-size="14" lengthAdjust="spacing" textLength="57" x="480.75" y="171.9531">versions</text><line style="stroke:#181818;stroke-width:0.5;" x1="461.75" x2="562.75" y1="178.9063" y2="178.9063"/></g><!--class workspaces--><g id="elem_workspaces"><rect codeLine="13" fill="#F1F1F1" height="146.9297" id="workspaces" rx="2.5" ry="2.5" style="stroke:#181818;stroke-width:0.5;" width="112" x="211.25" y="255.15"/><ellipse cx="226.25" cy="271.15" fill="#ADD1B2" rx="11" ry="11" style="stroke:#181818;stroke-width:1.0;"/><path d="M229.8643,277.65 L222.1445,277.65 L222.1445,265.2569 L229.8643,265.2569 L229.8643,267.4151 L224.5933,267.4151 L224.5933,270.088 L229.3662,270.088 L229.3662,272.2462 L224.5933,272.2462 L224.5933,275.4918 L229.8643,275.4918 Z " fill="#000000"/><text fill="#000000" font-family="sans-serif" font-size="14" lengthAdjust="spacing" textLength="80" x="240.25" y="276.441">workspaces</text><line style="stroke:#181818;stroke-width:0.5;" x1="212.25" x2="322.25" y1="287.15" y2="287.15"/><ellipse cx="222.25" cy="300.8941" fill="#000000" rx="3" ry="3" style="stroke:#000000;stroke-width:1.0;"/><text fill="#000000" font-family="sans-serif" font-size="14" lengthAdjust="spacing" textLength="13" x="231.25" y="304.6852">id</text><ellipse cx="222.25" cy="317.3824" fill="#000000" rx="3" ry="3" style="stroke:#000000;stroke-width:1.0;"/><text fill="#000000" font-family="sans-serif" font-size="14" lengthAdjust="spacing" textLength="38" x="231.25" y="321.1734">name</text><ellipse cx="222.25" cy="333.8707" fill="#000000" rx="3" ry="3" style="stroke:#000000;stroke-width:1.0;"/><text fill="#000000" font-family="sans-serif" font-size="14" lengthAdjust="spacing" textLength="29" x="231.25" y="337.6617">slug</text><ellipse cx="222.25" cy="350.359" fill="#000000" rx="3" ry="3" style="stroke:#000000;stroke-width:1.0;"/><text fill="#000000" font-family="sans-serif" font-size="14" lengthAdjust="spacing" textLength="71" x="231.25" y="354.15">created_at</text><ellipse cx="222.25" cy="366.8473" fill="#000000" rx="3" ry="3" style="stroke:#000000;stroke-width:1.0;"/><text fill="#000000" font-family="sans-serif" font-size="14" lengthAdjust="spacing" textLength="77" x="231.25" y="370.6383">updated_at</text><ellipse cx="222.25" cy="383.3355" fill="#000000" rx="3" ry="3" style="stroke:#000000;stroke-width:1.0;"/><text fill="#000000" font-family="sans-serif" font-size="14" lengthAdjust="spacing" textLength="57" x="231.25" y="387.1266">versions</text><line style="stroke:#181818;stroke-width:0.5;" x1="212.25" x2="322.25" y1="394.0797" y2="394.0797"/></g><!--class workspace_members--><g id="elem_workspace_members"><rect codeLine="22" fill="#F1F1F1" height="97.4648" id="workspace_members" rx="2.5" ry="2.5" style="stroke:#181818;stroke-width:0.5;" width="176" x="424.25" y="279.88"/><ellipse cx="439.25" cy="295.88" fill="#ADD1B2" rx="11" ry="11" style="stroke:#181818;stroke-width:1.0;"/><path d="M442.8643,302.38 L435.1445,302.38 L435.1445,289.9869 L442.8643,289.9869 L442.8643,292.1451 L437.5933,292.1451 L437.5933,294.818 L442.3662,294.818 L442.3662,296.9762 L437.5933,296.9762 L437.5933,300.2218 L442.8643,300.2218 Z " fill="#000000"/><text fill="#000000" font-family="sans-serif" font-size="14" lengthAdjust="spacing" textLength="144" x="453.25" y="301.171">workspace_members</text><line style="stroke:#181818;stroke-width:0.5;" x1="425.25" x2="599.25" y1="311.88" y2="311.88"/><ellipse cx="435.25" cy="325.6241" fill="#000000" rx="3" ry="3" style="stroke:#000000;stroke-width:1.0;"/><text fill="#000000" font-family="sans-serif" font-size="14" lengthAdjust="spacing" textLength="93" x="444.25" y="329.4152">workspace_id</text><ellipse cx="435.25" cy="342.1124" fill="#000000" rx="3" ry="3" style="stroke:#000000;stroke-width:1.0;"/><text fill="#000000" font-family="sans-serif" font-size="14" lengthAdjust="spacing" textLength="77" x="444.25" y="345.9034">member_id</text><ellipse cx="435.25" cy="358.6007" fill="#000000" rx="3" ry="3" style="stroke:#000000;stroke-width:1.0;"/><text fill="#000000" font-family="sans-serif" font-size="14" lengthAdjust="spacing" textLength="47" x="444.25" y="362.3917">role_id</text><line style="stroke:#181818;stroke-width:0.5;" x1="425.25" x2="599.25" y1="369.3448" y2="369.3448"/></g><!--class roles--><g id="elem_roles"><rect codeLine="28" fill="#F1F1F1" height="80.9766" id="roles" rx="2.5" ry="2.5" style="stroke:#181818;stroke-width:0.5;" width="89" x="643.75" y="288.13"/><ellipse cx="669.1" cy="304.13" fill="#ADD1B2" rx="11" ry="11" style="stroke:#181818;stroke-width:1.0;"/><path d="M672.7143,310.63 L664.9945,310.63 L664.9945,298.2369 L672.7143,298.2369 L672.7143,300.3951 L667.4433,300.3951 L667.4433,303.068 L672.2162,303.068 L672.2162,305.2262 L667.4433,305.2262 L667.4433,308.4718 L672.7143,308.4718 Z " fill="#000000"/><text fill="#000000" font-family="sans-serif" font-size="14" lengthAdjust="spacing" textLength="34" x="685.4" y="309.421">roles</text><line style="stroke:#181818;stroke-width:0.5;" x1="644.75" x2="731.75" y1="320.13" y2="320.13"/><ellipse cx="654.75" cy="333.8741" fill="#000000" rx="3" ry="3" style="stroke:#000000;stroke-width:1.0;"/><text fill="#000000" font-family="sans-serif" font-size="14" lengthAdjust="spacing" textLength="13" x="663.75" y="337.6652">id</text><ellipse cx="654.75" cy="350.3624" fill="#000000" rx="3" ry="3" style="stroke:#000000;stroke-width:1.0;"/><text fill="#000000" font-family="sans-serif" font-size="14" lengthAdjust="spacing" textLength="63" x="663.75" y="354.1534">role_type</text><line style="stroke:#181818;stroke-width:0.5;" x1="644.75" x2="731.75" y1="361.1066" y2="361.1066"/></g><!--class functions--><g id="elem_functions"><rect codeLine="33" fill="#F1F1F1" height="80.9766" id="functions" rx="2.5" ry="2.5" style="stroke:#181818;stroke-width:0.5;" width="96" x="796.25" y="478.57"/><ellipse cx="811.25" cy="494.57" fill="#ADD1B2" rx="11" ry="11" style="stroke:#181818;stroke-width:1.0;"/><path d="M814.8643,501.07 L807.1445,501.07 L807.1445,488.6769 L814.8643,488.6769 L814.8643,490.8351 L809.5933,490.8351 L809.5933,493.508 L814.3662,493.508 L814.3662,495.6662 L809.5933,495.6662 L809.5933,498.9118 L814.8643,498.9118 Z " fill="#000000"/><text fill="#000000" font-family="sans-serif" font-size="14" lengthAdjust="spacing" textLength="64" x="825.25" y="499.861">functions</text><line style="stroke:#181818;stroke-width:0.5;" x1="797.25" x2="891.25" y1="510.57" y2="510.57"/><ellipse cx="807.25" cy="524.3141" fill="#000000" rx="3" ry="3" style="stroke:#000000;stroke-width:1.0;"/><text fill="#000000" font-family="sans-serif" font-size="14" lengthAdjust="spacing" textLength="13" x="816.25" y="528.1052">id</text><ellipse cx="807.25" cy="540.8024" fill="#000000" rx="3" ry="3" style="stroke:#000000;stroke-width:1.0;"/><text fill="#000000" font-family="sans-serif" font-size="14" lengthAdjust="spacing" textLength="38" x="816.25" y="544.5934">name</text><line style="stroke:#181818;stroke-width:0.5;" x1="797.25" x2="891.25" y1="551.5466" y2="551.5466"/></g><!--class role_functions--><g id="elem_role_functions"><rect codeLine="38" fill="#F1F1F1" height="80.9766" id="role_functions" rx="2.5" ry="2.5" style="stroke:#181818;stroke-width:0.5;" width="130" x="631.25" y="478.57"/><ellipse cx="646.25" cy="494.57" fill="#ADD1B2" rx="11" ry="11" style="stroke:#181818;stroke-width:1.0;"/><path d="M649.8643,501.07 L642.1445,501.07 L642.1445,488.6769 L649.8643,488.6769 L649.8643,490.8351 L644.5933,490.8351 L644.5933,493.508 L649.3662,493.508 L649.3662,495.6662 L644.5933,495.6662 L644.5933,498.9118 L649.8643,498.9118 Z " fill="#000000"/><text fill="#000000" font-family="sans-serif" font-size="14" lengthAdjust="spacing" textLength="98" x="660.25" y="499.861">role_functions</text><line style="stroke:#181818;stroke-width:0.5;" x1="632.25" x2="760.25" y1="510.57" y2="510.57"/><ellipse cx="642.25" cy="524.3141" fill="#000000" rx="3" ry="3" style="stroke:#000000;stroke-width:1.0;"/><text fill="#000000" font-family="sans-serif" font-size="14" lengthAdjust="spacing" textLength="47" x="651.25" y="528.1052">role_id</text><ellipse cx="642.25" cy="540.8024" fill="#000000" rx="3" ry="3" style="stroke:#000000;stroke-width:1.0;"/><text fill="#000000" font-family="sans-serif" font-size="14" lengthAdjust="spacing" textLength="77" x="651.25" y="544.5934">function_id</text><line style="stroke:#181818;stroke-width:0.5;" x1="632.25" x2="760.25" y1="551.5466" y2="551.5466"/></g><!--class data_sources--><g id="elem_data_sources"><rect codeLine="43" fill="#F1F1F1" height="163.418" id="data_sources" rx="2.5" ry="2.5" style="stroke:#181818;stroke-width:0.5;" width="122" x="23.25" y="246.91"/><ellipse cx="38.25" cy="262.91" fill="#ADD1B2" rx="11" ry="11" style="stroke:#181818;stroke-width:1.0;"/><path d="M41.8643,269.41 L34.1445,269.41 L34.1445,257.0169 L41.8643,257.0169 L41.8643,259.1751 L36.5933,259.1751 L36.5933,261.848 L41.3662,261.848 L41.3662,264.0062 L36.5933,264.0062 L36.5933,267.2518 L41.8643,267.2518 Z " fill="#000000"/><text fill="#000000" font-family="sans-serif" font-size="14" lengthAdjust="spacing" textLength="90" x="52.25" y="268.201">data_sources</text><line style="stroke:#181818;stroke-width:0.5;" x1="24.25" x2="144.25" y1="278.91" y2="278.91"/><ellipse cx="34.25" cy="292.6541" fill="#000000" rx="3" ry="3" style="stroke:#000000;stroke-width:1.0;"/><text fill="#000000" font-family="sans-serif" font-size="14" lengthAdjust="spacing" textLength="13" x="43.25" y="296.4452">id</text><ellipse cx="34.25" cy="309.1424" fill="#000000" rx="3" ry="3" style="stroke:#000000;stroke-width:1.0;"/><text fill="#000000" font-family="sans-serif" font-size="14" lengthAdjust="spacing" textLength="38" x="43.25" y="312.9334">name</text><ellipse cx="34.25" cy="325.6307" fill="#000000" rx="3" ry="3" style="stroke:#000000;stroke-width:1.0;"/><text fill="#000000" font-family="sans-serif" font-size="14" lengthAdjust="spacing" textLength="19" x="43.25" y="329.4217">url</text><ellipse cx="34.25" cy="342.119" fill="#000000" rx="3" ry="3" style="stroke:#000000;stroke-width:1.0;"/><text fill="#000000" font-family="sans-serif" font-size="14" lengthAdjust="spacing" textLength="68" x="43.25" y="345.91">username</text><ellipse cx="34.25" cy="358.6073" fill="#000000" rx="3" ry="3" style="stroke:#000000;stroke-width:1.0;"/><text fill="#000000" font-family="sans-serif" font-size="14" lengthAdjust="spacing" textLength="66" x="43.25" y="362.3983">password</text><ellipse cx="34.25" cy="375.0955" fill="#000000" rx="3" ry="3" style="stroke:#000000;stroke-width:1.0;"/><text fill="#000000" font-family="sans-serif" font-size="14" lengthAdjust="spacing" textLength="96" x="43.25" y="378.8866">driver_type_id</text><ellipse cx="34.25" cy="391.5838" fill="#000000" rx="3" ry="3" style="stroke:#000000;stroke-width:1.0;"/><text fill="#000000" font-family="sans-serif" font-size="14" lengthAdjust="spacing" textLength="93" x="43.25" y="395.3748">workspace_id</text><line style="stroke:#181818;stroke-width:0.5;" x1="24.25" x2="144.25" y1="402.328" y2="402.328"/></g><!--class driver_types--><g id="elem_driver_types"><rect codeLine="53" fill="#F1F1F1" height="97.4648" id="driver_types" rx="2.5" ry="2.5" style="stroke:#181818;stroke-width:0.5;" width="142" x="13.25" y="48.22"/><ellipse cx="40.4" cy="64.22" fill="#ADD1B2" rx="11" ry="11" style="stroke:#181818;stroke-width:1.0;"/><path d="M44.0143,70.72 L36.2945,70.72 L36.2945,58.3269 L44.0143,58.3269 L44.0143,60.4851 L38.7433,60.4851 L38.7433,63.158 L43.5162,63.158 L43.5162,65.3162 L38.7433,65.3162 L38.7433,68.5618 L44.0143,68.5618 Z " fill="#000000"/><text fill="#000000" font-family="sans-serif" font-size="14" lengthAdjust="spacing" textLength="83" x="57.1" y="69.511">driver_types</text><line style="stroke:#181818;stroke-width:0.5;" x1="14.25" x2="154.25" y1="80.22" y2="80.22"/><ellipse cx="24.25" cy="93.9641" fill="#000000" rx="3" ry="3" style="stroke:#000000;stroke-width:1.0;"/><text fill="#000000" font-family="sans-serif" font-size="14" lengthAdjust="spacing" textLength="13" x="33.25" y="97.7552">id</text><ellipse cx="24.25" cy="110.4524" fill="#000000" rx="3" ry="3" style="stroke:#000000;stroke-width:1.0;"/><text fill="#000000" font-family="sans-serif" font-size="14" lengthAdjust="spacing" textLength="38" x="33.25" y="114.2434">name</text><ellipse cx="24.25" cy="126.9407" fill="#000000" rx="3" ry="3" style="stroke:#000000;stroke-width:1.0;"/><text fill="#000000" font-family="sans-serif" font-size="14" lengthAdjust="spacing" textLength="116" x="33.25" y="130.7317">jdbc_driver_class</text><line style="stroke:#181818;stroke-width:0.5;" x1="14.25" x2="154.25" y1="137.6848" y2="137.6848"/></g><!--class reports--><g id="elem_reports"><rect codeLine="59" fill="#F1F1F1" height="130.4414" id="reports" rx="2.5" ry="2.5" style="stroke:#181818;stroke-width:0.5;" width="156" x="68.25" y="834.72"/><ellipse cx="117" cy="850.72" fill="#ADD1B2" rx="11" ry="11" style="stroke:#181818;stroke-width:1.0;"/><path d="M120.6143,857.22 L112.8945,857.22 L112.8945,844.8269 L120.6143,844.8269 L120.6143,846.9851 L115.3433,846.9851 L115.3433,849.658 L120.1162,849.658 L120.1162,851.8162 L115.3433,851.8162 L115.3433,855.0618 L120.6143,855.0618 Z " fill="#000000"/><text fill="#000000" font-family="sans-serif" font-size="14" lengthAdjust="spacing" textLength="50" x="137.5" y="856.011">reports</text><line style="stroke:#181818;stroke-width:0.5;" x1="69.25" x2="223.25" y1="866.72" y2="866.72"/><ellipse cx="79.25" cy="880.4641" fill="#000000" rx="3" ry="3" style="stroke:#000000;stroke-width:1.0;"/><text fill="#000000" font-family="sans-serif" font-size="14" lengthAdjust="spacing" textLength="13" x="88.25" y="884.2552">id</text><ellipse cx="79.25" cy="896.9524" fill="#000000" rx="3" ry="3" style="stroke:#000000;stroke-width:1.0;"/><text fill="#000000" font-family="sans-serif" font-size="14" lengthAdjust="spacing" textLength="93" x="88.25" y="900.7434">workspace_id</text><ellipse cx="79.25" cy="913.4407" fill="#000000" rx="3" ry="3" style="stroke:#000000;stroke-width:1.0;"/><text fill="#000000" font-family="sans-serif" font-size="14" lengthAdjust="spacing" textLength="38" x="88.25" y="917.2317">name</text><ellipse cx="79.25" cy="929.929" fill="#000000" rx="3" ry="3" style="stroke:#000000;stroke-width:1.0;"/><text fill="#000000" font-family="sans-serif" font-size="14" lengthAdjust="spacing" textLength="130" x="88.25" y="933.72">report_template_id</text><ellipse cx="79.25" cy="946.4173" fill="#000000" rx="3" ry="3" style="stroke:#000000;stroke-width:1.0;"/><text fill="#000000" font-family="sans-serif" font-size="14" lengthAdjust="spacing" textLength="103" x="88.25" y="950.2083">data_source_id</text><line style="stroke:#181818;stroke-width:0.5;" x1="69.25" x2="223.25" y1="957.1614" y2="957.1614"/></g><!--class report_templates--><g id="elem_report_templates"><rect codeLine="67" fill="#F1F1F1" height="163.418" id="report_templates" rx="2.5" ry="2.5" style="stroke:#181818;stroke-width:0.5;" width="188" x="340.25" y="1025.16"/><ellipse cx="372.8" cy="1041.16" fill="#ADD1B2" rx="11" ry="11" style="stroke:#181818;stroke-width:1.0;"/><path d="M376.4143,1047.66 L368.6945,1047.66 L368.6945,1035.2669 L376.4143,1035.2669 L376.4143,1037.4251 L371.1433,1037.4251 L371.1433,1040.098 L375.9162,1040.098 L375.9162,1042.2562 L371.1433,1042.2562 L371.1433,1045.5018 L376.4143,1045.5018 Z " fill="#000000"/><text fill="#000000" font-family="sans-serif" font-size="14" lengthAdjust="spacing" textLength="117" x="390.7" y="1046.451">report_templates</text><line style="stroke:#181818;stroke-width:0.5;" x1="341.25" x2="527.25" y1="1057.16" y2="1057.16"/><ellipse cx="351.25" cy="1070.9041" fill="#000000" rx="3" ry="3" style="stroke:#000000;stroke-width:1.0;"/><text fill="#000000" font-family="sans-serif" font-size="14" lengthAdjust="spacing" textLength="13" x="360.25" y="1074.6952">id</text><ellipse cx="351.25" cy="1087.3924" fill="#000000" rx="3" ry="3" style="stroke:#000000;stroke-width:1.0;"/><text fill="#000000" font-family="sans-serif" font-size="14" lengthAdjust="spacing" textLength="93" x="360.25" y="1091.1834">workspace_id</text><ellipse cx="351.25" cy="1103.8807" fill="#000000" rx="3" ry="3" style="stroke:#000000;stroke-width:1.0;"/><text fill="#000000" font-family="sans-serif" font-size="14" lengthAdjust="spacing" textLength="72" x="360.25" y="1107.6717">storage_id</text><ellipse cx="351.25" cy="1120.369" fill="#000000" rx="3" ry="3" style="stroke:#000000;stroke-width:1.0;"/><text fill="#000000" font-family="sans-serif" font-size="14" lengthAdjust="spacing" textLength="38" x="360.25" y="1124.16">name</text><ellipse cx="351.25" cy="1136.8573" fill="#000000" rx="3" ry="3" style="stroke:#000000;stroke-width:1.0;"/><text fill="#000000" font-family="sans-serif" font-size="14" lengthAdjust="spacing" textLength="59" x="360.25" y="1140.6483">file_path</text><ellipse cx="351.25" cy="1153.3455" fill="#000000" rx="3" ry="3" style="stroke:#000000;stroke-width:1.0;"/><text fill="#000000" font-family="sans-serif" font-size="14" lengthAdjust="spacing" textLength="162" x="360.25" y="1157.1366">storage_type: [local, s3]</text><ellipse cx="351.25" cy="1169.8338" fill="#000000" rx="3" ry="3" style="stroke:#000000;stroke-width:1.0;"/><text fill="#000000" font-family="sans-serif" font-size="14" lengthAdjust="spacing" textLength="55" x="360.25" y="1173.6248">file_size</text><line style="stroke:#181818;stroke-width:0.5;" x1="341.25" x2="527.25" y1="1180.578" y2="1180.578"/></g><!--class report_groups--><g id="elem_report_groups"><rect codeLine="77" fill="#F1F1F1" height="97.4648" id="report_groups" rx="2.5" ry="2.5" style="stroke:#181818;stroke-width:0.5;" width="131" x="168.75" y="470.33"/><ellipse cx="183.75" cy="486.33" fill="#ADD1B2" rx="11" ry="11" style="stroke:#181818;stroke-width:1.0;"/><path d="M187.3643,492.83 L179.6445,492.83 L179.6445,480.4369 L187.3643,480.4369 L187.3643,482.5951 L182.0933,482.5951 L182.0933,485.268 L186.8662,485.268 L186.8662,487.4262 L182.0933,487.4262 L182.0933,490.6718 L187.3643,490.6718 Z " fill="#000000"/><text fill="#000000" font-family="sans-serif" font-size="14" lengthAdjust="spacing" textLength="99" x="197.75" y="491.621">report_groups</text><line style="stroke:#181818;stroke-width:0.5;" x1="169.75" x2="298.75" y1="502.33" y2="502.33"/><ellipse cx="179.75" cy="516.0741" fill="#000000" rx="3" ry="3" style="stroke:#000000;stroke-width:1.0;"/><text fill="#000000" font-family="sans-serif" font-size="14" lengthAdjust="spacing" textLength="13" x="188.75" y="519.8652">id</text><ellipse cx="179.75" cy="532.5624" fill="#000000" rx="3" ry="3" style="stroke:#000000;stroke-width:1.0;"/><text fill="#000000" font-family="sans-serif" font-size="14" lengthAdjust="spacing" textLength="93" x="188.75" y="536.3534">workspace_id</text><ellipse cx="179.75" cy="549.0507" fill="#000000" rx="3" ry="3" style="stroke:#000000;stroke-width:1.0;"/><text fill="#000000" font-family="sans-serif" font-size="14" lengthAdjust="spacing" textLength="38" x="188.75" y="552.8417">name</text><line style="stroke:#181818;stroke-width:0.5;" x1="169.75" x2="298.75" y1="559.7948" y2="559.7948"/></g><!--class report_group_reports--><g id="elem_report_group_reports"><rect codeLine="83" fill="#F1F1F1" height="97.4648" id="report_group_reports" rx="2.5" ry="2.5" style="stroke:#181818;stroke-width:0.5;" width="181" x="127.75" y="652.52"/><ellipse cx="142.75" cy="668.52" fill="#ADD1B2" rx="11" ry="11" style="stroke:#181818;stroke-width:1.0;"/><path d="M146.3643,675.02 L138.6445,675.02 L138.6445,662.6269 L146.3643,662.6269 L146.3643,664.7851 L141.0933,664.7851 L141.0933,667.458 L145.8662,667.458 L145.8662,669.6162 L141.0933,669.6162 L141.0933,672.8618 L146.3643,672.8618 Z " fill="#000000"/><text fill="#000000" font-family="sans-serif" font-size="14" lengthAdjust="spacing" textLength="149" x="156.75" y="673.811">report_group_reports</text><line style="stroke:#181818;stroke-width:0.5;" x1="128.75" x2="307.75" y1="684.52" y2="684.52"/><ellipse cx="138.75" cy="698.2641" fill="#000000" rx="3" ry="3" style="stroke:#000000;stroke-width:1.0;"/><text fill="#000000" font-family="sans-serif" font-size="14" lengthAdjust="spacing" textLength="13" x="147.75" y="702.0552">id</text><ellipse cx="138.75" cy="714.7524" fill="#000000" rx="3" ry="3" style="stroke:#000000;stroke-width:1.0;"/><text fill="#000000" font-family="sans-serif" font-size="14" lengthAdjust="spacing" textLength="112" x="147.75" y="718.5434">report_group_id</text><ellipse cx="138.75" cy="731.2407" fill="#000000" rx="3" ry="3" style="stroke:#000000;stroke-width:1.0;"/><text fill="#000000" font-family="sans-serif" font-size="14" lengthAdjust="spacing" textLength="63" x="147.75" y="735.0317">report_id</text><line style="stroke:#181818;stroke-width:0.5;" x1="128.75" x2="307.75" y1="741.9848" y2="741.9848"/></g><!--class storage_s3s--><g id="elem_storage_s3s"><rect codeLine="89" fill="#F1F1F1" height="146.9297" id="storage_s3s" rx="2.5" ry="2.5" style="stroke:#181818;stroke-width:0.5;" width="181" x="343.75" y="627.79"/><ellipse cx="389" cy="643.79" fill="#ADD1B2" rx="11" ry="11" style="stroke:#181818;stroke-width:1.0;"/><path d="M392.6143,650.29 L384.8945,650.29 L384.8945,637.8969 L392.6143,637.8969 L392.6143,640.0551 L387.3433,640.0551 L387.3433,642.728 L392.1162,642.728 L392.1162,644.8862 L387.3433,644.8862 L387.3433,648.1318 L392.6143,648.1318 Z " fill="#000000"/><text fill="#000000" font-family="sans-serif" font-size="14" lengthAdjust="spacing" textLength="82" x="409.5" y="649.081">storage_s3s</text><line style="stroke:#181818;stroke-width:0.5;" x1="344.75" x2="523.75" y1="659.79" y2="659.79"/><ellipse cx="354.75" cy="673.5341" fill="#000000" rx="3" ry="3" style="stroke:#000000;stroke-width:1.0;"/><text fill="#000000" font-family="sans-serif" font-size="14" lengthAdjust="spacing" textLength="13" x="363.75" y="677.3252">id</text><ellipse cx="354.75" cy="690.0224" fill="#000000" rx="3" ry="3" style="stroke:#000000;stroke-width:1.0;"/><text fill="#000000" font-family="sans-serif" font-size="14" lengthAdjust="spacing" textLength="93" x="363.75" y="693.8134">workspace_id</text><ellipse cx="354.75" cy="706.5107" fill="#000000" rx="3" ry="3" style="stroke:#000000;stroke-width:1.0;"/><text fill="#000000" font-family="sans-serif" font-size="14" lengthAdjust="spacing" textLength="127" x="363.75" y="710.3017">aws_access_key_id</text><ellipse cx="354.75" cy="722.999" fill="#000000" rx="3" ry="3" style="stroke:#000000;stroke-width:1.0;"/><text fill="#000000" font-family="sans-serif" font-size="14" lengthAdjust="spacing" textLength="155" x="363.75" y="726.79">aws_secret_access_key</text><ellipse cx="354.75" cy="739.4873" fill="#000000" rx="3" ry="3" style="stroke:#000000;stroke-width:1.0;"/><text fill="#000000" font-family="sans-serif" font-size="14" lengthAdjust="spacing" textLength="78" x="363.75" y="743.2783">aws_region</text><ellipse cx="354.75" cy="755.9755" fill="#000000" rx="3" ry="3" style="stroke:#000000;stroke-width:1.0;"/><text fill="#000000" font-family="sans-serif" font-size="14" lengthAdjust="spacing" textLength="114" x="363.75" y="759.7666">s3_bucket_name</text><line style="stroke:#181818;stroke-width:0.5;" x1="344.75" x2="523.75" y1="766.7197" y2="766.7197"/></g><!--link workspaces to workspace_members--><g id="link_workspaces_workspace_members"><path codeLine="98" d="M323.71,328.62 C357.1,328.62 382.49,328.62 415.87,328.62 " fill="none" id="workspaces-to-workspace_members" style="stroke:#181818;stroke-width:1.0;"/><line style="stroke:#181818;stroke-width:1.0;" x1="415.87" x2="423.87" y1="328.62" y2="320.62"/><line style="stroke:#181818;stroke-width:1.0;" x1="415.87" x2="423.87" y1="328.62" y2="336.62"/><line style="stroke:#181818;stroke-width:1.0;" x1="415.87" x2="423.87" y1="328.62" y2="328.62"/></g><!--link members to workspace_members--><g id="link_members_workspace_members"><path codeLine="99" d="M512.25,187.41 C512.25,218.77 512.25,244.79 512.25,271.46 " fill="none" id="members-to-workspace_members" style="stroke:#181818;stroke-width:1.0;"/><line style="stroke:#181818;stroke-width:1.0;" x1="512.25" x2="520.25" y1="271.46" y2="279.46"/><line style="stroke:#181818;stroke-width:1.0;" x1="512.25" x2="504.25" y1="271.46" y2="279.46"/><line style="stroke:#181818;stroke-width:1.0;" x1="512.25" x2="512.25" y1="271.46" y2="279.46"/></g><!--link workspace_members to roles--><g id="link_workspace_members_roles"><path codeLine="100" d="M608.59,328.62 C622.86,328.62 621.13,328.62 635.39,328.62 " fill="none" id="workspace_members-roles" style="stroke:#181818;stroke-width:1.0;"/><line style="stroke:#181818;stroke-width:1.0;" x1="608.59" x2="600.59" y1="328.62" y2="336.62"/><line style="stroke:#181818;stroke-width:1.0;" x1="608.59" x2="600.59" y1="328.62" y2="320.62"/><line style="stroke:#181818;stroke-width:1.0;" x1="608.59" x2="600.59" y1="328.62" y2="328.62"/><line style="stroke:#181818;stroke-width:1.0;" x1="635.39" x2="643.39" y1="328.62" y2="320.62"/><line style="stroke:#181818;stroke-width:1.0;" x1="635.39" x2="643.39" y1="328.62" y2="336.62"/><line style="stroke:#181818;stroke-width:1.0;" x1="635.39" x2="643.39" y1="328.62" y2="328.62"/></g><!--link roles to role_functions--><g id="link_roles_role_functions"><path codeLine="101" d="M689.95,369.58 C691.3,401.56 692.8599,438.1972 694.2199,470.1572 " fill="none" id="roles-to-role_functions" style="stroke:#181818;stroke-width:1.0;"/><line style="stroke:#181818;stroke-width:1.0;" x1="694.2199" x2="702.5528" y1="470.1572" y2="478.15"/><line style="stroke:#181818;stroke-width:1.0;" x1="694.2199" x2="686.5672" y1="470.1572" y2="478.15"/><line style="stroke:#181818;stroke-width:1.0;" x1="694.2199" x2="694.56" y1="470.1572" y2="478.15"/></g><!--link role_functions to functions--><g id="link_role_functions_functions"><path codeLine="102" d="M761.58,519.06 C772.99,519.06 776.4,519.06 787.81,519.06 " fill="none" id="role_functions-to-functions" style="stroke:#181818;stroke-width:1.0;"/><line style="stroke:#181818;stroke-width:1.0;" x1="787.81" x2="795.81" y1="519.06" y2="511.06"/><line style="stroke:#181818;stroke-width:1.0;" x1="787.81" x2="795.81" y1="519.06" y2="527.06"/><line style="stroke:#181818;stroke-width:1.0;" x1="787.81" x2="795.81" y1="519.06" y2="519.06"/></g><!--reverse link data_sources to workspaces--><g id="link_data_sources_workspaces"><path codeLine="103" d="M153.73,328.62 C175.4,328.62 189.08,328.62 210.76,328.62 " fill="none" id="data_sources-backto-workspaces" style="stroke:#181818;stroke-width:1.0;"/><line style="stroke:#181818;stroke-width:1.0;" x1="153.73" x2="145.73" y1="328.62" y2="336.62"/><line style="stroke:#181818;stroke-width:1.0;" x1="153.73" x2="145.73" y1="328.62" y2="320.62"/><line style="stroke:#181818;stroke-width:1.0;" x1="153.73" x2="145.73" y1="328.62" y2="328.62"/></g><!--link workspaces to reports--><g id="link_workspaces_reports"><path codeLine="104" d="M210.76,386.47 C189.45,410.62 166.65,440.16 151.25,470.33 C89.17,591.9 91.06,639.57 110.25,774.72 C113.04,794.39 115.9577,807.6336 121.5177,826.5836 " fill="none" id="workspaces-to-reports" style="stroke:#181818;stroke-width:1.0;"/><line style="stroke:#181818;stroke-width:1.0;" x1="121.5177" x2="131.4464" y1="826.5836" y2="834.26"/><line style="stroke:#181818;stroke-width:1.0;" x1="121.5177" x2="116.0936" y1="826.5836" y2="834.26"/><line style="stroke:#181818;stroke-width:1.0;" x1="121.5177" x2="123.77" y1="826.5836" y2="834.26"/></g><!--link workspaces to report_templates--><g id="link_workspaces_report_templates"><path codeLine="105" d="M323.57,369.31 C390.45,420.27 498.42,515.63 542.25,627.79 C594.74,762.13 534.0199,921.036 484.5299,1017.896 " fill="none" id="workspaces-to-report_templates" style="stroke:#181818;stroke-width:1.0;"/><line style="stroke:#181818;stroke-width:1.0;" x1="484.5299" x2="488.014" y1="1017.896" y2="1025.02"/><line style="stroke:#181818;stroke-width:1.0;" x1="484.5299" x2="473.766" y1="1017.896" y2="1025.02"/><line style="stroke:#181818;stroke-width:1.0;" x1="484.5299" x2="480.89" y1="1017.896" y2="1025.02"/></g><!--link workspaces to report_groups--><g id="link_workspaces_report_groups"><path codeLine="106" d="M254.49,402.47 C250.54,425.05 247.6582,441.4796 244.0782,461.9496 " fill="none" id="workspaces-to-report_groups" style="stroke:#181818;stroke-width:1.0;"/><line style="stroke:#181818;stroke-width:1.0;" x1="244.0782" x2="250.5804" y1="461.9496" y2="469.83"/><line style="stroke:#181818;stroke-width:1.0;" x1="244.0782" x2="234.8196" y1="461.9496" y2="469.83"/><line style="stroke:#181818;stroke-width:1.0;" x1="244.0782" x2="242.7" y1="461.9496" y2="469.83"/></g><!--reverse link reports to report_templates--><g id="link_reports_report_templates"><path codeLine="107" d="M231.0885,961.3078 C266.6485,986.6078 302.49,1012.12 339.8,1038.67 " fill="none" id="reports-backto-report_templates" style="stroke:#181818;stroke-width:1.0;"/><line style="stroke:#181818;stroke-width:1.0;" x1="231.0885" x2="224.57" y1="961.3078" y2="963.1885"/><line style="stroke:#181818;stroke-width:1.0;" x1="231.0885" x2="224.57" y1="961.3078" y2="950.1515"/><line style="stroke:#181818;stroke-width:1.0;" x1="231.0885" x2="224.57" y1="961.3078" y2="956.67"/></g><!--link report_groups to report_group_reports--><g id="link_report_groups_report_group_reports"><path codeLine="108" d="M229.2936,575.8488 C226.9836,601.9088 225.535,618.1411 223.225,644.2511 " fill="none" id="report_groups-report_group_reports" style="stroke:#181818;stroke-width:1.0;"/><line style="stroke:#181818;stroke-width:1.0;" x1="229.2936" x2="222.0312" y1="575.8488" y2="567.88"/><line style="stroke:#181818;stroke-width:1.0;" x1="229.2936" x2="237.9688" y1="575.8488" y2="567.88"/><line style="stroke:#181818;stroke-width:1.0;" x1="229.2936" x2="230" y1="575.8488" y2="567.88"/><line style="stroke:#181818;stroke-width:1.0;" x1="223.225" x2="230.4889" y1="644.2511" y2="652.22"/><line style="stroke:#181818;stroke-width:1.0;" x1="223.225" x2="214.5511" y1="644.2511" y2="652.22"/><line style="stroke:#181818;stroke-width:1.0;" x1="223.225" x2="222.52" y1="644.2511" y2="652.22"/></g><!--link report_group_reports to reports--><g id="link_report_group_reports_reports"><path codeLine="109" d="M197.8881,757.8818 C188.6381,783.1318 182.6905,799.3877 172.6805,826.7277 " fill="none" id="report_group_reports-reports" style="stroke:#181818;stroke-width:1.0;"/><line style="stroke:#181818;stroke-width:1.0;" x1="197.8881" x2="193.1282" y1="757.8818" y2="750.37"/><line style="stroke:#181818;stroke-width:1.0;" x1="197.8881" x2="208.1518" y1="757.8818" y2="750.37"/><line style="stroke:#181818;stroke-width:1.0;" x1="197.8881" x2="200.64" y1="757.8818" y2="750.37"/><line style="stroke:#181818;stroke-width:1.0;" x1="172.6805" x2="177.4423" y1="826.7277" y2="834.24"/><line style="stroke:#181818;stroke-width:1.0;" x1="172.6805" x2="162.4177" y1="826.7277" y2="834.24"/><line style="stroke:#181818;stroke-width:1.0;" x1="172.6805" x2="169.93" y1="826.7277" y2="834.24"/></g><!--link driver_types to data_sources--><g id="link_driver_types_data_sources"><path codeLine="110" d="M84.25,146.1 C84.25,175.17 84.25,204.96 84.25,238.53 " fill="none" id="driver_types-to-data_sources" style="stroke:#181818;stroke-width:1.0;"/><line style="stroke:#181818;stroke-width:1.0;" x1="84.25" x2="92.25" y1="238.53" y2="246.53"/><line style="stroke:#181818;stroke-width:1.0;" x1="84.25" x2="76.25" y1="238.53" y2="246.53"/><line style="stroke:#181818;stroke-width:1.0;" x1="84.25" x2="84.25" y1="238.53" y2="246.53"/></g><!--link data_sources to reports--><g id="link_data_sources_reports"><path codeLine="111" d="M58.5,410.48 C33.81,501.62 6,652.95 48.25,774.72 C55.63,796 63.4383,810.0676 77.3083,827.9576 " fill="none" id="data_sources-to-reports" style="stroke:#181818;stroke-width:1.0;"/><line style="stroke:#181818;stroke-width:1.0;" x1="77.3083" x2="88.5324" y1="827.9576" y2="834.28"/><line style="stroke:#181818;stroke-width:1.0;" x1="77.3083" x2="75.8876" y1="827.9576" y2="834.28"/><line style="stroke:#181818;stroke-width:1.0;" x1="77.3083" x2="82.21" y1="827.9576" y2="834.28"/></g><!--link workspaces to storage_s3s--><g id="link_workspaces_storage_s3s"><path codeLine="112" d="M300.04,402.4 C329.35,467.44 368.773,554.9465 398.103,620.0265 " fill="none" id="workspaces-to-storage_s3s" style="stroke:#181818;stroke-width:1.0;"/><line style="stroke:#181818;stroke-width:1.0;" x1="398.103" x2="408.6835" y1="620.0265" y2="627.32"/><line style="stroke:#181818;stroke-width:1.0;" x1="398.103" x2="394.0965" y1="620.0265" y2="627.32"/><line style="stroke:#181818;stroke-width:1.0;" x1="398.103" x2="401.39" y1="620.0265" y2="627.32"/></g><!--link storage_s3s to report_templates--><g id="link_storage_s3s_report_templates"><path codeLine="113" d="M434.25,774.88 C434.25,845.24 434.25,943.74 434.25,1016.82 " fill="none" id="storage_s3s-to-report_templates" style="stroke:#181818;stroke-width:1.0;"/><line style="stroke:#181818;stroke-width:1.0;" x1="434.25" x2="442.25" y1="1016.82" y2="1024.82"/><line style="stroke:#181818;stroke-width:1.0;" x1="434.25" x2="426.25" y1="1016.82" y2="1024.82"/><line style="stroke:#181818;stroke-width:1.0;" x1="434.25" x2="434.25" y1="1016.82" y2="1024.82"/></g><!--SRC=[fLJBRiCW4Bpp5PoZ-fHRVwMg4B4thXji48z6gUL_BuOGizXkAlKKp0mxE_i83BQpDzf3Vm9jw4WeFT2k2J_Gyqw4qy1x20V5ZRbAFUEKjbAs0jYTNMlW5Xh6RVXqgia_ltpqJWw6J8H0rFHnBaRn6WhPXvWHhlrdQ8QDBVTthGYdBosZdINGV5Ea5qZsfY2ZdTrGspc73ISu62kfINC-9mpduCroPgJJ-vLoElR96T1RlJhGHdU-JY7lf8QAaSajp3svp-PKipkl5bucDmbAQbkyNDNz4IhIcOLU2T_KX6UUYuPW_ZCTOwNcxLhstFcgAsu_46ls_4hVXAovUA7c-BvmJVSDwpHQBPtwazVjfsopMeY1xr0jKjhc-2m5VZMCrtv-3Bl0BRyru9VBPk03qT3wKOprERAJgo-UbxnakrjLUbml75clu5HLZluA-q1XuKXSkweQYvqXnGg59mkAiX8ZsXmCZcbEjw-N-Th1O-D9Qf_FVVqIpyXKlawz9vi3CUKvefMS0MGC_J_iMlE5okQ5vBEpwVi7]--></g></svg>