<?xml version="1.0" encoding="us-ascii" standalone="no"?><svg xmlns="http://www.w3.org/2000/svg" xmlns:xlink="http://www.w3.org/1999/xlink" contentStyleType="text/css" height="781px" preserveAspectRatio="none" style="width:595px;height:781px;background:#FFFFFF;" version="1.1" viewBox="0 0 595 781" width="595px" zoomAndPan="magnify"><defs/><g><!--class members--><g id="elem_members"><rect codeLine="2" fill="#F1F1F1" height="179.9063" id="members" rx="2.5" ry="2.5" style="stroke:#181818;stroke-width:0.5;" width="103" x="485.5" y="371.4"/><ellipse cx="503.65" cy="387.4" fill="#ADD1B2" rx="11" ry="11" style="stroke:#181818;stroke-width:1.0;"/><path d="M507.2643,393.9 L499.5445,393.9 L499.5445,381.5069 L507.2643,381.5069 L507.2643,383.6651 L501.9933,383.6651 L501.9933,386.338 L506.7662,386.338 L506.7662,388.4962 L501.9933,388.4962 L501.9933,391.7418 L507.2643,391.7418 Z " fill="#000000"/><text fill="#000000" font-family="sans-serif" font-size="14" lengthAdjust="spacing" textLength="64" x="518.35" y="392.691">members</text><line style="stroke:#181818;stroke-width:0.5;" x1="486.5" x2="587.5" y1="403.4" y2="403.4"/><ellipse cx="496.5" cy="417.1441" fill="#000000" rx="3" ry="3" style="stroke:#000000;stroke-width:1.0;"/><text fill="#000000" font-family="sans-serif" font-size="14" lengthAdjust="spacing" textLength="13" x="505.5" y="420.9352">id</text><ellipse cx="496.5" cy="433.6324" fill="#000000" rx="3" ry="3" style="stroke:#000000;stroke-width:1.0;"/><text fill="#000000" font-family="sans-serif" font-size="14" lengthAdjust="spacing" textLength="37" x="505.5" y="437.4234">email</text><ellipse cx="496.5" cy="450.1207" fill="#000000" rx="3" ry="3" style="stroke:#000000;stroke-width:1.0;"/><text fill="#000000" font-family="sans-serif" font-size="14" lengthAdjust="spacing" textLength="38" x="505.5" y="453.9117">name</text><ellipse cx="496.5" cy="466.609" fill="#000000" rx="3" ry="3" style="stroke:#000000;stroke-width:1.0;"/><text fill="#000000" font-family="sans-serif" font-size="14" lengthAdjust="spacing" textLength="66" x="505.5" y="470.4">password</text><text fill="#000000" font-family="sans-serif" font-size="14" lengthAdjust="spacing" textLength="68" x="505.5" y="486.8883">google_id</text><ellipse cx="496.5" cy="499.5855" fill="#000000" rx="3" ry="3" style="stroke:#000000;stroke-width:1.0;"/><text fill="#000000" font-family="sans-serif" font-size="14" lengthAdjust="spacing" textLength="71" x="505.5" y="503.3766">created_at</text><ellipse cx="496.5" cy="516.0738" fill="#000000" rx="3" ry="3" style="stroke:#000000;stroke-width:1.0;"/><text fill="#000000" font-family="sans-serif" font-size="14" lengthAdjust="spacing" textLength="77" x="505.5" y="519.8648">updated_at</text><ellipse cx="496.5" cy="532.5621" fill="#000000" rx="3" ry="3" style="stroke:#000000;stroke-width:1.0;"/><text fill="#000000" font-family="sans-serif" font-size="14" lengthAdjust="spacing" textLength="57" x="505.5" y="536.3531">versions</text><line style="stroke:#181818;stroke-width:0.5;" x1="486.5" x2="587.5" y1="543.3063" y2="543.3063"/></g><!--class workspaces--><g id="elem_workspaces"><rect codeLine="13" fill="#F1F1F1" height="146.9297" id="workspaces" rx="2.5" ry="2.5" style="stroke:#181818;stroke-width:0.5;" width="112" x="181" y="164.47"/><ellipse cx="196" cy="180.47" fill="#ADD1B2" rx="11" ry="11" style="stroke:#181818;stroke-width:1.0;"/><path d="M199.6143,186.97 L191.8945,186.97 L191.8945,174.5769 L199.6143,174.5769 L199.6143,176.7351 L194.3433,176.7351 L194.3433,179.408 L199.1162,179.408 L199.1162,181.5662 L194.3433,181.5662 L194.3433,184.8118 L199.6143,184.8118 Z " fill="#000000"/><text fill="#000000" font-family="sans-serif" font-size="14" lengthAdjust="spacing" textLength="80" x="210" y="185.761">workspaces</text><line style="stroke:#181818;stroke-width:0.5;" x1="182" x2="292" y1="196.47" y2="196.47"/><ellipse cx="192" cy="210.2141" fill="#000000" rx="3" ry="3" style="stroke:#000000;stroke-width:1.0;"/><text fill="#000000" font-family="sans-serif" font-size="14" lengthAdjust="spacing" textLength="13" x="201" y="214.0052">id</text><ellipse cx="192" cy="226.7024" fill="#000000" rx="3" ry="3" style="stroke:#000000;stroke-width:1.0;"/><text fill="#000000" font-family="sans-serif" font-size="14" lengthAdjust="spacing" textLength="38" x="201" y="230.4934">name</text><ellipse cx="192" cy="243.1907" fill="#000000" rx="3" ry="3" style="stroke:#000000;stroke-width:1.0;"/><text fill="#000000" font-family="sans-serif" font-size="14" lengthAdjust="spacing" textLength="29" x="201" y="246.9817">slug</text><ellipse cx="192" cy="259.679" fill="#000000" rx="3" ry="3" style="stroke:#000000;stroke-width:1.0;"/><text fill="#000000" font-family="sans-serif" font-size="14" lengthAdjust="spacing" textLength="71" x="201" y="263.47">created_at</text><ellipse cx="192" cy="276.1673" fill="#000000" rx="3" ry="3" style="stroke:#000000;stroke-width:1.0;"/><text fill="#000000" font-family="sans-serif" font-size="14" lengthAdjust="spacing" textLength="77" x="201" y="279.9583">updated_at</text><ellipse cx="192" cy="292.6555" fill="#000000" rx="3" ry="3" style="stroke:#000000;stroke-width:1.0;"/><text fill="#000000" font-family="sans-serif" font-size="14" lengthAdjust="spacing" textLength="57" x="201" y="296.4466">versions</text><line style="stroke:#181818;stroke-width:0.5;" x1="182" x2="292" y1="303.3997" y2="303.3997"/></g><!--class workspace_members--><g id="elem_workspace_members"><rect codeLine="22" fill="#F1F1F1" height="80.9766" id="workspace_members" rx="2.5" ry="2.5" style="stroke:#181818;stroke-width:0.5;" width="176" x="388" y="197.44"/><ellipse cx="403" cy="213.44" fill="#ADD1B2" rx="11" ry="11" style="stroke:#181818;stroke-width:1.0;"/><path d="M406.6143,219.94 L398.8945,219.94 L398.8945,207.5469 L406.6143,207.5469 L406.6143,209.7051 L401.3433,209.7051 L401.3433,212.378 L406.1162,212.378 L406.1162,214.5362 L401.3433,214.5362 L401.3433,217.7818 L406.6143,217.7818 Z " fill="#000000"/><text fill="#000000" font-family="sans-serif" font-size="14" lengthAdjust="spacing" textLength="144" x="417" y="218.731">workspace_members</text><line style="stroke:#181818;stroke-width:0.5;" x1="389" x2="563" y1="229.44" y2="229.44"/><ellipse cx="399" cy="243.1841" fill="#000000" rx="3" ry="3" style="stroke:#000000;stroke-width:1.0;"/><text fill="#000000" font-family="sans-serif" font-size="14" lengthAdjust="spacing" textLength="93" x="408" y="246.9752">workspace_id</text><ellipse cx="399" cy="259.6724" fill="#000000" rx="3" ry="3" style="stroke:#000000;stroke-width:1.0;"/><text fill="#000000" font-family="sans-serif" font-size="14" lengthAdjust="spacing" textLength="77" x="408" y="263.4634">member_id</text><line style="stroke:#181818;stroke-width:0.5;" x1="389" x2="563" y1="270.4166" y2="270.4166"/></g><!--class data_sources--><g id="elem_data_sources"><rect codeLine="27" fill="#F1F1F1" height="146.9297" id="data_sources" rx="2.5" ry="2.5" style="stroke:#181818;stroke-width:0.5;" width="122" x="24" y="164.47"/><ellipse cx="39" cy="180.47" fill="#ADD1B2" rx="11" ry="11" style="stroke:#181818;stroke-width:1.0;"/><path d="M42.6143,186.97 L34.8945,186.97 L34.8945,174.5769 L42.6143,174.5769 L42.6143,176.7351 L37.3433,176.7351 L37.3433,179.408 L42.1162,179.408 L42.1162,181.5662 L37.3433,181.5662 L37.3433,184.8118 L42.6143,184.8118 Z " fill="#000000"/><text fill="#000000" font-family="sans-serif" font-size="14" lengthAdjust="spacing" textLength="90" x="53" y="185.761">data_sources</text><line style="stroke:#181818;stroke-width:0.5;" x1="25" x2="145" y1="196.47" y2="196.47"/><ellipse cx="35" cy="210.2141" fill="#000000" rx="3" ry="3" style="stroke:#000000;stroke-width:1.0;"/><text fill="#000000" font-family="sans-serif" font-size="14" lengthAdjust="spacing" textLength="13" x="44" y="214.0052">id</text><ellipse cx="35" cy="226.7024" fill="#000000" rx="3" ry="3" style="stroke:#000000;stroke-width:1.0;"/><text fill="#000000" font-family="sans-serif" font-size="14" lengthAdjust="spacing" textLength="38" x="44" y="230.4934">name</text><ellipse cx="35" cy="243.1907" fill="#000000" rx="3" ry="3" style="stroke:#000000;stroke-width:1.0;"/><text fill="#000000" font-family="sans-serif" font-size="14" lengthAdjust="spacing" textLength="19" x="44" y="246.9817">url</text><ellipse cx="35" cy="259.679" fill="#000000" rx="3" ry="3" style="stroke:#000000;stroke-width:1.0;"/><text fill="#000000" font-family="sans-serif" font-size="14" lengthAdjust="spacing" textLength="68" x="44" y="263.47">username</text><ellipse cx="35" cy="276.1673" fill="#000000" rx="3" ry="3" style="stroke:#000000;stroke-width:1.0;"/><text fill="#000000" font-family="sans-serif" font-size="14" lengthAdjust="spacing" textLength="66" x="44" y="279.9583">password</text><ellipse cx="35" cy="292.6555" fill="#000000" rx="3" ry="3" style="stroke:#000000;stroke-width:1.0;"/><text fill="#000000" font-family="sans-serif" font-size="14" lengthAdjust="spacing" textLength="96" x="44" y="296.4466">driver_type_id</text><line style="stroke:#181818;stroke-width:0.5;" x1="25" x2="145" y1="303.3997" y2="303.3997"/></g><!--class driver_types--><g id="elem_driver_types"><rect codeLine="36" fill="#F1F1F1" height="97.4648" id="driver_types" rx="2.5" ry="2.5" style="stroke:#181818;stroke-width:0.5;" width="142" x="14" y="7"/><ellipse cx="41.15" cy="23" fill="#ADD1B2" rx="11" ry="11" style="stroke:#181818;stroke-width:1.0;"/><path d="M44.7643,29.5 L37.0445,29.5 L37.0445,17.1069 L44.7643,17.1069 L44.7643,19.2651 L39.4933,19.2651 L39.4933,21.938 L44.2662,21.938 L44.2662,24.0962 L39.4933,24.0962 L39.4933,27.3418 L44.7643,27.3418 Z " fill="#000000"/><text fill="#000000" font-family="sans-serif" font-size="14" lengthAdjust="spacing" textLength="83" x="57.85" y="28.291">driver_types</text><line style="stroke:#181818;stroke-width:0.5;" x1="15" x2="155" y1="39" y2="39"/><ellipse cx="25" cy="52.7441" fill="#000000" rx="3" ry="3" style="stroke:#000000;stroke-width:1.0;"/><text fill="#000000" font-family="sans-serif" font-size="14" lengthAdjust="spacing" textLength="13" x="34" y="56.5352">id</text><ellipse cx="25" cy="69.2324" fill="#000000" rx="3" ry="3" style="stroke:#000000;stroke-width:1.0;"/><text fill="#000000" font-family="sans-serif" font-size="14" lengthAdjust="spacing" textLength="38" x="34" y="73.0234">name</text><ellipse cx="25" cy="85.7207" fill="#000000" rx="3" ry="3" style="stroke:#000000;stroke-width:1.0;"/><text fill="#000000" font-family="sans-serif" font-size="14" lengthAdjust="spacing" textLength="116" x="34" y="89.5117">jdbc_driver_class</text><line style="stroke:#181818;stroke-width:0.5;" x1="15" x2="155" y1="96.4648" y2="96.4648"/></g><!--class reports--><g id="elem_reports"><rect codeLine="42" fill="#F1F1F1" height="130.4414" id="reports" rx="2.5" ry="2.5" style="stroke:#181818;stroke-width:0.5;" width="156" x="7" y="396.13"/><ellipse cx="55.75" cy="412.13" fill="#ADD1B2" rx="11" ry="11" style="stroke:#181818;stroke-width:1.0;"/><path d="M59.3643,418.63 L51.6445,418.63 L51.6445,406.2369 L59.3643,406.2369 L59.3643,408.3951 L54.0933,408.3951 L54.0933,411.068 L58.8662,411.068 L58.8662,413.2262 L54.0933,413.2262 L54.0933,416.4718 L59.3643,416.4718 Z " fill="#000000"/><text fill="#000000" font-family="sans-serif" font-size="14" lengthAdjust="spacing" textLength="50" x="76.25" y="417.421">reports</text><line style="stroke:#181818;stroke-width:0.5;" x1="8" x2="162" y1="428.13" y2="428.13"/><ellipse cx="18" cy="441.8741" fill="#000000" rx="3" ry="3" style="stroke:#000000;stroke-width:1.0;"/><text fill="#000000" font-family="sans-serif" font-size="14" lengthAdjust="spacing" textLength="13" x="27" y="445.6652">id</text><ellipse cx="18" cy="458.3624" fill="#000000" rx="3" ry="3" style="stroke:#000000;stroke-width:1.0;"/><text fill="#000000" font-family="sans-serif" font-size="14" lengthAdjust="spacing" textLength="93" x="27" y="462.1534">workspace_id</text><ellipse cx="18" cy="474.8507" fill="#000000" rx="3" ry="3" style="stroke:#000000;stroke-width:1.0;"/><text fill="#000000" font-family="sans-serif" font-size="14" lengthAdjust="spacing" textLength="38" x="27" y="478.6417">name</text><ellipse cx="18" cy="491.339" fill="#000000" rx="3" ry="3" style="stroke:#000000;stroke-width:1.0;"/><text fill="#000000" font-family="sans-serif" font-size="14" lengthAdjust="spacing" textLength="130" x="27" y="495.13">report_template_id</text><ellipse cx="18" cy="507.8273" fill="#000000" rx="3" ry="3" style="stroke:#000000;stroke-width:1.0;"/><text fill="#000000" font-family="sans-serif" font-size="14" lengthAdjust="spacing" textLength="103" x="27" y="511.6183">data_source_id</text><line style="stroke:#181818;stroke-width:0.5;" x1="8" x2="162" y1="518.5714" y2="518.5714"/></g><!--class report_templates--><g id="elem_report_templates"><rect codeLine="50" fill="#F1F1F1" height="163.418" id="report_templates" rx="2.5" ry="2.5" style="stroke:#181818;stroke-width:0.5;" width="188" x="122" y="611.3"/><ellipse cx="154.55" cy="627.3" fill="#ADD1B2" rx="11" ry="11" style="stroke:#181818;stroke-width:1.0;"/><path d="M158.1643,633.8 L150.4445,633.8 L150.4445,621.4069 L158.1643,621.4069 L158.1643,623.5651 L152.8933,623.5651 L152.8933,626.238 L157.6662,626.238 L157.6662,628.3962 L152.8933,628.3962 L152.8933,631.6418 L158.1643,631.6418 Z " fill="#000000"/><text fill="#000000" font-family="sans-serif" font-size="14" lengthAdjust="spacing" textLength="117" x="172.45" y="632.591">report_templates</text><line style="stroke:#181818;stroke-width:0.5;" x1="123" x2="309" y1="643.3" y2="643.3"/><ellipse cx="133" cy="657.0441" fill="#000000" rx="3" ry="3" style="stroke:#000000;stroke-width:1.0;"/><text fill="#000000" font-family="sans-serif" font-size="14" lengthAdjust="spacing" textLength="13" x="142" y="660.8352">id</text><ellipse cx="133" cy="673.5324" fill="#000000" rx="3" ry="3" style="stroke:#000000;stroke-width:1.0;"/><text fill="#000000" font-family="sans-serif" font-size="14" lengthAdjust="spacing" textLength="93" x="142" y="677.3234">workspace_id</text><ellipse cx="133" cy="690.0207" fill="#000000" rx="3" ry="3" style="stroke:#000000;stroke-width:1.0;"/><text fill="#000000" font-family="sans-serif" font-size="14" lengthAdjust="spacing" textLength="72" x="142" y="693.8117">storage_id</text><ellipse cx="133" cy="706.509" fill="#000000" rx="3" ry="3" style="stroke:#000000;stroke-width:1.0;"/><text fill="#000000" font-family="sans-serif" font-size="14" lengthAdjust="spacing" textLength="38" x="142" y="710.3">name</text><ellipse cx="133" cy="722.9973" fill="#000000" rx="3" ry="3" style="stroke:#000000;stroke-width:1.0;"/><text fill="#000000" font-family="sans-serif" font-size="14" lengthAdjust="spacing" textLength="59" x="142" y="726.7883">file_path</text><ellipse cx="133" cy="739.4855" fill="#000000" rx="3" ry="3" style="stroke:#000000;stroke-width:1.0;"/><text fill="#000000" font-family="sans-serif" font-size="14" lengthAdjust="spacing" textLength="162" x="142" y="743.2766">storage_type: [local, s3]</text><ellipse cx="133" cy="755.9738" fill="#000000" rx="3" ry="3" style="stroke:#000000;stroke-width:1.0;"/><text fill="#000000" font-family="sans-serif" font-size="14" lengthAdjust="spacing" textLength="55" x="142" y="759.7648">file_size</text><line style="stroke:#181818;stroke-width:0.5;" x1="123" x2="309" y1="766.718" y2="766.718"/></g><!--class storages--><g id="elem_storages"><rect codeLine="60" fill="#F1F1F1" height="113.9531" id="storages" rx="2.5" ry="2.5" style="stroke:#181818;stroke-width:0.5;" width="181" x="269.5" y="404.37"/><ellipse cx="326.25" cy="420.37" fill="#ADD1B2" rx="11" ry="11" style="stroke:#181818;stroke-width:1.0;"/><path d="M329.8643,426.87 L322.1445,426.87 L322.1445,414.4769 L329.8643,414.4769 L329.8643,416.6351 L324.5933,416.6351 L324.5933,419.308 L329.3662,419.308 L329.3662,421.4662 L324.5933,421.4662 L324.5933,424.7118 L329.8643,424.7118 Z " fill="#000000"/><text fill="#000000" font-family="sans-serif" font-size="14" lengthAdjust="spacing" textLength="59" x="346.75" y="425.661">storages</text><line style="stroke:#181818;stroke-width:0.5;" x1="270.5" x2="449.5" y1="436.37" y2="436.37"/><ellipse cx="280.5" cy="450.1141" fill="#000000" rx="3" ry="3" style="stroke:#000000;stroke-width:1.0;"/><text fill="#000000" font-family="sans-serif" font-size="14" lengthAdjust="spacing" textLength="13" x="289.5" y="453.9052">id</text><ellipse cx="280.5" cy="466.6024" fill="#000000" rx="3" ry="3" style="stroke:#000000;stroke-width:1.0;"/><text fill="#000000" font-family="sans-serif" font-size="14" lengthAdjust="spacing" textLength="93" x="289.5" y="470.3934">workspace_id</text><ellipse cx="280.5" cy="483.0907" fill="#000000" rx="3" ry="3" style="stroke:#000000;stroke-width:1.0;"/><text fill="#000000" font-family="sans-serif" font-size="14" lengthAdjust="spacing" textLength="127" x="289.5" y="486.8817">aws_access_key_id</text><ellipse cx="280.5" cy="499.579" fill="#000000" rx="3" ry="3" style="stroke:#000000;stroke-width:1.0;"/><text fill="#000000" font-family="sans-serif" font-size="14" lengthAdjust="spacing" textLength="155" x="289.5" y="503.37">aws_secret_access_key</text><line style="stroke:#181818;stroke-width:0.5;" x1="270.5" x2="449.5" y1="510.3231" y2="510.3231"/></g><!--link workspaces to workspace_members--><g id="link_workspaces_workspace_members"><path codeLine="67" d="M293.48,237.93 C324.85,237.93 348.22,237.93 379.59,237.93 " fill="none" id="workspaces-to-workspace_members" style="stroke:#181818;stroke-width:1.0;"/><line style="stroke:#181818;stroke-width:1.0;" x1="379.59" x2="387.59" y1="237.93" y2="229.93"/><line style="stroke:#181818;stroke-width:1.0;" x1="379.59" x2="387.59" y1="237.93" y2="245.93"/><line style="stroke:#181818;stroke-width:1.0;" x1="379.59" x2="387.59" y1="237.93" y2="237.93"/></g><!--reverse link workspace_members to members--><g id="link_workspace_members_members"><path codeLine="68" d="M489.1049,286.4826 C496.2049,312.2526 503.61,339.16 512.45,371.25 " fill="none" id="workspace_members-backto-members" style="stroke:#181818;stroke-width:1.0;"/><line style="stroke:#181818;stroke-width:1.0;" x1="489.1049" x2="479.2674" y1="286.4826" y2="278.77"/><line style="stroke:#181818;stroke-width:1.0;" x1="489.1049" x2="494.6926" y1="286.4826" y2="278.77"/><line style="stroke:#181818;stroke-width:1.0;" x1="489.1049" x2="486.98" y1="286.4826" y2="278.77"/></g><!--reverse link data_sources to workspaces--><g id="link_data_sources_workspaces"><path codeLine="69" d="M154.45,237.93 C165.89,237.93 169.33,237.93 180.76,237.93 " fill="none" id="data_sources-backto-workspaces" style="stroke:#181818;stroke-width:1.0;"/><line style="stroke:#181818;stroke-width:1.0;" x1="154.45" x2="146.45" y1="237.93" y2="245.93"/><line style="stroke:#181818;stroke-width:1.0;" x1="154.45" x2="146.45" y1="237.93" y2="229.93"/><line style="stroke:#181818;stroke-width:1.0;" x1="154.45" x2="146.45" y1="237.93" y2="237.93"/></g><!--link workspaces to reports--><g id="link_workspaces_reports"><path codeLine="70" d="M187.02,311.74 C168.42,338.84 151.978,362.7847 133.908,389.1047 " fill="none" id="workspaces-to-reports" style="stroke:#181818;stroke-width:1.0;"/><line style="stroke:#181818;stroke-width:1.0;" x1="133.908" x2="135.9753" y1="389.1047" y2="395.7"/><line style="stroke:#181818;stroke-width:1.0;" x1="133.908" x2="122.7847" y1="389.1047" y2="395.7"/><line style="stroke:#181818;stroke-width:1.0;" x1="133.908" x2="129.38" y1="389.1047" y2="395.7"/></g><!--link workspaces to report_templates--><g id="link_workspaces_report_templates"><path codeLine="71" d="M233.63,311.73 C229.83,393.52 224.0703,517.9686 220.1303,602.9886 " fill="none" id="workspaces-to-report_templates" style="stroke:#181818;stroke-width:1.0;"/><line style="stroke:#181818;stroke-width:1.0;" x1="220.1303" x2="227.7514" y1="602.9886" y2="610.98"/><line style="stroke:#181818;stroke-width:1.0;" x1="220.1303" x2="211.7686" y1="602.9886" y2="610.98"/><line style="stroke:#181818;stroke-width:1.0;" x1="220.1303" x2="219.76" y1="602.9886" y2="610.98"/></g><!--reverse link reports to report_templates--><g id="link_reports_report_templates"><path codeLine="72" d="M125.8037,533.8791 C140.7137,560.0191 154.12,583.53 169.86,611.12 " fill="none" id="reports-backto-report_templates" style="stroke:#181818;stroke-width:1.0;"/><line style="stroke:#181818;stroke-width:1.0;" x1="125.8037" x2="114.8909" y1="533.8791" y2="526.93"/><line style="stroke:#181818;stroke-width:1.0;" x1="125.8037" x2="128.7891" y1="533.8791" y2="526.93"/><line style="stroke:#181818;stroke-width:1.0;" x1="125.8037" x2="121.84" y1="533.8791" y2="526.93"/></g><!--link driver_types to data_sources--><g id="link_driver_types_data_sources"><path codeLine="73" d="M85,104.55 C85,122.8 85,136.04 85,156.09 " fill="none" id="driver_types-to-data_sources" style="stroke:#181818;stroke-width:1.0;"/><line style="stroke:#181818;stroke-width:1.0;" x1="85" x2="93" y1="156.09" y2="164.09"/><line style="stroke:#181818;stroke-width:1.0;" x1="85" x2="77" y1="156.09" y2="164.09"/><line style="stroke:#181818;stroke-width:1.0;" x1="85" x2="85" y1="156.09" y2="164.09"/></g><!--link data_sources to reports--><g id="link_data_sources_reports"><path codeLine="74" d="M85,311.74 C85,338.84 85,361.38 85,387.7 " fill="none" id="data_sources-to-reports" style="stroke:#181818;stroke-width:1.0;"/><line style="stroke:#181818;stroke-width:1.0;" x1="85" x2="93" y1="387.7" y2="395.7"/><line style="stroke:#181818;stroke-width:1.0;" x1="85" x2="77" y1="387.7" y2="395.7"/><line style="stroke:#181818;stroke-width:1.0;" x1="85" x2="85" y1="387.7" y2="395.7"/></g><!--link workspaces to storages--><g id="link_workspaces_storages"><path codeLine="75" d="M277.45,311.74 C294.11,341.74 309.2353,368.9665 324.8053,396.9965 " fill="none" id="workspaces-to-storages" style="stroke:#181818;stroke-width:1.0;"/><line style="stroke:#181818;stroke-width:1.0;" x1="324.8053" x2="335.6835" y1="396.9965" y2="403.99"/><line style="stroke:#181818;stroke-width:1.0;" x1="324.8053" x2="321.6965" y1="396.9965" y2="403.99"/><line style="stroke:#181818;stroke-width:1.0;" x1="324.8053" x2="328.69" y1="396.9965" y2="403.99"/></g><!--link storages to report_templates--><g id="link_storages_report_templates"><path codeLine="76" d="M324.59,518.82 C307.18,546.58 290.1516,573.7633 271.0416,604.2233 " fill="none" id="storages-to-report_templates" style="stroke:#181818;stroke-width:1.0;"/><line style="stroke:#181818;stroke-width:1.0;" x1="271.0416" x2="273.5667" y1="604.2233" y2="611"/><line style="stroke:#181818;stroke-width:1.0;" x1="271.0416" x2="260.0133" y1="604.2233" y2="611"/><line style="stroke:#181818;stroke-width:1.0;" x1="271.0416" x2="266.79" y1="604.2233" y2="611"/></g><!--SRC=[fLBBSiCW3Bpp5PmpzQct_agdmoYsuj9Wmo3SZEl9lnVy1ECqXvu0hRGhYSNMITVp1fipMk83u_p4PJKUs81Kuws51iUB0QARjW7dlDQwLYZcxD8YEAm4kF7PcIf-VdjsgLjYTyPmqlGyLp9Guavs5IFLrV-a5kbWMtpMck3mseezEGZIdNtSMMUdlNI4zcWt9rvPwViIhZUuOz-0H-nVrRaKSrwfF6jKRj5ewtQLsLWhrPGk73P6-PqjU3HYsjqk_vaEEMsXpcKlqll2WFjCiiBCR_nTwHBK2wVNZosNv0z6RSmLp-JXHW9A_qqahjZ7KKBl6HU1WJmoN57O8NS9otrpBmgUeQ5U3ObHKd1O_kaulEsNBVyPT38myKeeJnGJd_wXkIoJhLizxEGN]--></g></svg>