<?xml version="1.0" encoding="us-ascii" standalone="no"?><svg xmlns="http://www.w3.org/2000/svg" xmlns:xlink="http://www.w3.org/1999/xlink" contentStyleType="text/css" height="1386px" preserveAspectRatio="none" style="width:860px;height:1386px;background:#FFFFFF;" version="1.1" viewBox="0 0 860 1386" width="860px" zoomAndPan="magnify"><defs/><g><!--class members--><g id="elem_members"><rect codeLine="2" fill="#F1F1F1" height="179.9063" id="members" rx="2.5" ry="2.5" style="stroke:#181818;stroke-width:0.5;" width="103" x="438.5" y="7"/><ellipse cx="456.65" cy="23" fill="#ADD1B2" rx="11" ry="11" style="stroke:#181818;stroke-width:1.0;"/><path d="M460.2643,29.5 L452.5445,29.5 L452.5445,17.1069 L460.2643,17.1069 L460.2643,19.2651 L454.9933,19.2651 L454.9933,21.938 L459.7662,21.938 L459.7662,24.0962 L454.9933,24.0962 L454.9933,27.3418 L460.2643,27.3418 Z " fill="#000000"/><text fill="#000000" font-family="sans-serif" font-size="14" lengthAdjust="spacing" textLength="64" x="471.35" y="28.291">members</text><line style="stroke:#181818;stroke-width:0.5;" x1="439.5" x2="540.5" y1="39" y2="39"/><ellipse cx="449.5" cy="52.7441" fill="#000000" rx="3" ry="3" style="stroke:#000000;stroke-width:1.0;"/><text fill="#000000" font-family="sans-serif" font-size="14" lengthAdjust="spacing" textLength="13" x="458.5" y="56.5352">id</text><ellipse cx="449.5" cy="69.2324" fill="#000000" rx="3" ry="3" style="stroke:#000000;stroke-width:1.0;"/><text fill="#000000" font-family="sans-serif" font-size="14" lengthAdjust="spacing" textLength="37" x="458.5" y="73.0234">email</text><ellipse cx="449.5" cy="85.7207" fill="#000000" rx="3" ry="3" style="stroke:#000000;stroke-width:1.0;"/><text fill="#000000" font-family="sans-serif" font-size="14" lengthAdjust="spacing" textLength="38" x="458.5" y="89.5117">name</text><ellipse cx="449.5" cy="102.209" fill="#000000" rx="3" ry="3" style="stroke:#000000;stroke-width:1.0;"/><text fill="#000000" font-family="sans-serif" font-size="14" lengthAdjust="spacing" textLength="66" x="458.5" y="106">password</text><text fill="#000000" font-family="sans-serif" font-size="14" lengthAdjust="spacing" textLength="68" x="458.5" y="122.4883">google_id</text><ellipse cx="449.5" cy="135.1855" fill="#000000" rx="3" ry="3" style="stroke:#000000;stroke-width:1.0;"/><text fill="#000000" font-family="sans-serif" font-size="14" lengthAdjust="spacing" textLength="71" x="458.5" y="138.9766">created_at</text><ellipse cx="449.5" cy="151.6738" fill="#000000" rx="3" ry="3" style="stroke:#000000;stroke-width:1.0;"/><text fill="#000000" font-family="sans-serif" font-size="14" lengthAdjust="spacing" textLength="77" x="458.5" y="155.4648">updated_at</text><ellipse cx="449.5" cy="168.1621" fill="#000000" rx="3" ry="3" style="stroke:#000000;stroke-width:1.0;"/><text fill="#000000" font-family="sans-serif" font-size="14" lengthAdjust="spacing" textLength="57" x="458.5" y="171.9531">versions</text><line style="stroke:#181818;stroke-width:0.5;" x1="439.5" x2="540.5" y1="178.9063" y2="178.9063"/></g><!--class workspaces--><g id="elem_workspaces"><rect codeLine="13" fill="#F1F1F1" height="146.9297" id="workspaces" rx="2.5" ry="2.5" style="stroke:#181818;stroke-width:0.5;" width="112" x="255" y="255.15"/><ellipse cx="270" cy="271.15" fill="#ADD1B2" rx="11" ry="11" style="stroke:#181818;stroke-width:1.0;"/><path d="M273.6143,277.65 L265.8945,277.65 L265.8945,265.2569 L273.6143,265.2569 L273.6143,267.4151 L268.3433,267.4151 L268.3433,270.088 L273.1162,270.088 L273.1162,272.2462 L268.3433,272.2462 L268.3433,275.4918 L273.6143,275.4918 Z " fill="#000000"/><text fill="#000000" font-family="sans-serif" font-size="14" lengthAdjust="spacing" textLength="80" x="284" y="276.441">workspaces</text><line style="stroke:#181818;stroke-width:0.5;" x1="256" x2="366" y1="287.15" y2="287.15"/><ellipse cx="266" cy="300.8941" fill="#000000" rx="3" ry="3" style="stroke:#000000;stroke-width:1.0;"/><text fill="#000000" font-family="sans-serif" font-size="14" lengthAdjust="spacing" textLength="13" x="275" y="304.6852">id</text><ellipse cx="266" cy="317.3824" fill="#000000" rx="3" ry="3" style="stroke:#000000;stroke-width:1.0;"/><text fill="#000000" font-family="sans-serif" font-size="14" lengthAdjust="spacing" textLength="38" x="275" y="321.1734">name</text><ellipse cx="266" cy="333.8707" fill="#000000" rx="3" ry="3" style="stroke:#000000;stroke-width:1.0;"/><text fill="#000000" font-family="sans-serif" font-size="14" lengthAdjust="spacing" textLength="29" x="275" y="337.6617">slug</text><ellipse cx="266" cy="350.359" fill="#000000" rx="3" ry="3" style="stroke:#000000;stroke-width:1.0;"/><text fill="#000000" font-family="sans-serif" font-size="14" lengthAdjust="spacing" textLength="71" x="275" y="354.15">created_at</text><ellipse cx="266" cy="366.8473" fill="#000000" rx="3" ry="3" style="stroke:#000000;stroke-width:1.0;"/><text fill="#000000" font-family="sans-serif" font-size="14" lengthAdjust="spacing" textLength="77" x="275" y="370.6383">updated_at</text><ellipse cx="266" cy="383.3355" fill="#000000" rx="3" ry="3" style="stroke:#000000;stroke-width:1.0;"/><text fill="#000000" font-family="sans-serif" font-size="14" lengthAdjust="spacing" textLength="57" x="275" y="387.1266">versions</text><line style="stroke:#181818;stroke-width:0.5;" x1="256" x2="366" y1="394.0797" y2="394.0797"/></g><!--class workspace_members--><g id="elem_workspace_members"><rect codeLine="22" fill="#F1F1F1" height="97.4648" id="workspace_members" rx="2.5" ry="2.5" style="stroke:#181818;stroke-width:0.5;" width="176" x="402" y="279.88"/><ellipse cx="417" cy="295.88" fill="#ADD1B2" rx="11" ry="11" style="stroke:#181818;stroke-width:1.0;"/><path d="M420.6143,302.38 L412.8945,302.38 L412.8945,289.9869 L420.6143,289.9869 L420.6143,292.1451 L415.3433,292.1451 L415.3433,294.818 L420.1162,294.818 L420.1162,296.9762 L415.3433,296.9762 L415.3433,300.2218 L420.6143,300.2218 Z " fill="#000000"/><text fill="#000000" font-family="sans-serif" font-size="14" lengthAdjust="spacing" textLength="144" x="431" y="301.171">workspace_members</text><line style="stroke:#181818;stroke-width:0.5;" x1="403" x2="577" y1="311.88" y2="311.88"/><ellipse cx="413" cy="325.6241" fill="#000000" rx="3" ry="3" style="stroke:#000000;stroke-width:1.0;"/><text fill="#000000" font-family="sans-serif" font-size="14" lengthAdjust="spacing" textLength="93" x="422" y="329.4152">workspace_id</text><ellipse cx="413" cy="342.1124" fill="#000000" rx="3" ry="3" style="stroke:#000000;stroke-width:1.0;"/><text fill="#000000" font-family="sans-serif" font-size="14" lengthAdjust="spacing" textLength="77" x="422" y="345.9034">member_id</text><ellipse cx="413" cy="358.6007" fill="#000000" rx="3" ry="3" style="stroke:#000000;stroke-width:1.0;"/><text fill="#000000" font-family="sans-serif" font-size="14" lengthAdjust="spacing" textLength="47" x="422" y="362.3917">role_id</text><line style="stroke:#181818;stroke-width:0.5;" x1="403" x2="577" y1="369.3448" y2="369.3448"/></g><!--class roles--><g id="elem_roles"><rect codeLine="28" fill="#F1F1F1" height="80.9766" id="roles" rx="2.5" ry="2.5" style="stroke:#181818;stroke-width:0.5;" width="89" x="612.5" y="288.13"/><ellipse cx="637.85" cy="304.13" fill="#ADD1B2" rx="11" ry="11" style="stroke:#181818;stroke-width:1.0;"/><path d="M641.4643,310.63 L633.7445,310.63 L633.7445,298.2369 L641.4643,298.2369 L641.4643,300.3951 L636.1933,300.3951 L636.1933,303.068 L640.9662,303.068 L640.9662,305.2262 L636.1933,305.2262 L636.1933,308.4718 L641.4643,308.4718 Z " fill="#000000"/><text fill="#000000" font-family="sans-serif" font-size="14" lengthAdjust="spacing" textLength="34" x="654.15" y="309.421">roles</text><line style="stroke:#181818;stroke-width:0.5;" x1="613.5" x2="700.5" y1="320.13" y2="320.13"/><ellipse cx="623.5" cy="333.8741" fill="#000000" rx="3" ry="3" style="stroke:#000000;stroke-width:1.0;"/><text fill="#000000" font-family="sans-serif" font-size="14" lengthAdjust="spacing" textLength="13" x="632.5" y="337.6652">id</text><ellipse cx="623.5" cy="350.3624" fill="#000000" rx="3" ry="3" style="stroke:#000000;stroke-width:1.0;"/><text fill="#000000" font-family="sans-serif" font-size="14" lengthAdjust="spacing" textLength="63" x="632.5" y="354.1534">role_type</text><line style="stroke:#181818;stroke-width:0.5;" x1="613.5" x2="700.5" y1="361.1066" y2="361.1066"/></g><!--class functions--><g id="elem_functions"><rect codeLine="33" fill="#F1F1F1" height="97.4648" id="functions" rx="2.5" ry="2.5" style="stroke:#181818;stroke-width:0.5;" width="96" x="757" y="470.32"/><ellipse cx="772" cy="486.32" fill="#ADD1B2" rx="11" ry="11" style="stroke:#181818;stroke-width:1.0;"/><path d="M775.6143,492.82 L767.8945,492.82 L767.8945,480.4269 L775.6143,480.4269 L775.6143,482.5851 L770.3433,482.5851 L770.3433,485.258 L775.1162,485.258 L775.1162,487.4162 L770.3433,487.4162 L770.3433,490.6618 L775.6143,490.6618 Z " fill="#000000"/><text fill="#000000" font-family="sans-serif" font-size="14" lengthAdjust="spacing" textLength="64" x="786" y="491.611">functions</text><line style="stroke:#181818;stroke-width:0.5;" x1="758" x2="852" y1="502.32" y2="502.32"/><ellipse cx="768" cy="516.0641" fill="#000000" rx="3" ry="3" style="stroke:#000000;stroke-width:1.0;"/><text fill="#000000" font-family="sans-serif" font-size="14" lengthAdjust="spacing" textLength="13" x="777" y="519.8552">id</text><ellipse cx="768" cy="532.5524" fill="#000000" rx="3" ry="3" style="stroke:#000000;stroke-width:1.0;"/><text fill="#000000" font-family="sans-serif" font-size="14" lengthAdjust="spacing" textLength="60" x="777" y="536.3434">resource</text><ellipse cx="768" cy="549.0407" fill="#000000" rx="3" ry="3" style="stroke:#000000;stroke-width:1.0;"/><text fill="#000000" font-family="sans-serif" font-size="14" lengthAdjust="spacing" textLength="42" x="777" y="552.8317">action</text><line style="stroke:#181818;stroke-width:0.5;" x1="758" x2="852" y1="559.7848" y2="559.7848"/></g><!--class role_functions--><g id="elem_role_functions"><rect codeLine="39" fill="#F1F1F1" height="80.9766" id="role_functions" rx="2.5" ry="2.5" style="stroke:#181818;stroke-width:0.5;" width="130" x="592" y="478.57"/><ellipse cx="607" cy="494.57" fill="#ADD1B2" rx="11" ry="11" style="stroke:#181818;stroke-width:1.0;"/><path d="M610.6143,501.07 L602.8945,501.07 L602.8945,488.6769 L610.6143,488.6769 L610.6143,490.8351 L605.3433,490.8351 L605.3433,493.508 L610.1162,493.508 L610.1162,495.6662 L605.3433,495.6662 L605.3433,498.9118 L610.6143,498.9118 Z " fill="#000000"/><text fill="#000000" font-family="sans-serif" font-size="14" lengthAdjust="spacing" textLength="98" x="621" y="499.861">role_functions</text><line style="stroke:#181818;stroke-width:0.5;" x1="593" x2="721" y1="510.57" y2="510.57"/><ellipse cx="603" cy="524.3141" fill="#000000" rx="3" ry="3" style="stroke:#000000;stroke-width:1.0;"/><text fill="#000000" font-family="sans-serif" font-size="14" lengthAdjust="spacing" textLength="47" x="612" y="528.1052">role_id</text><ellipse cx="603" cy="540.8024" fill="#000000" rx="3" ry="3" style="stroke:#000000;stroke-width:1.0;"/><text fill="#000000" font-family="sans-serif" font-size="14" lengthAdjust="spacing" textLength="77" x="612" y="544.5934">function_id</text><line style="stroke:#181818;stroke-width:0.5;" x1="593" x2="721" y1="551.5466" y2="551.5466"/></g><!--class data_sources--><g id="elem_data_sources"><rect codeLine="44" fill="#F1F1F1" height="163.418" id="data_sources" rx="2.5" ry="2.5" style="stroke:#181818;stroke-width:0.5;" width="122" x="67" y="246.91"/><ellipse cx="82" cy="262.91" fill="#ADD1B2" rx="11" ry="11" style="stroke:#181818;stroke-width:1.0;"/><path d="M85.6143,269.41 L77.8945,269.41 L77.8945,257.0169 L85.6143,257.0169 L85.6143,259.1751 L80.3433,259.1751 L80.3433,261.848 L85.1162,261.848 L85.1162,264.0062 L80.3433,264.0062 L80.3433,267.2518 L85.6143,267.2518 Z " fill="#000000"/><text fill="#000000" font-family="sans-serif" font-size="14" lengthAdjust="spacing" textLength="90" x="96" y="268.201">data_sources</text><line style="stroke:#181818;stroke-width:0.5;" x1="68" x2="188" y1="278.91" y2="278.91"/><ellipse cx="78" cy="292.6541" fill="#000000" rx="3" ry="3" style="stroke:#000000;stroke-width:1.0;"/><text fill="#000000" font-family="sans-serif" font-size="14" lengthAdjust="spacing" textLength="13" x="87" y="296.4452">id</text><ellipse cx="78" cy="309.1424" fill="#000000" rx="3" ry="3" style="stroke:#000000;stroke-width:1.0;"/><text fill="#000000" font-family="sans-serif" font-size="14" lengthAdjust="spacing" textLength="38" x="87" y="312.9334">name</text><ellipse cx="78" cy="325.6307" fill="#000000" rx="3" ry="3" style="stroke:#000000;stroke-width:1.0;"/><text fill="#000000" font-family="sans-serif" font-size="14" lengthAdjust="spacing" textLength="19" x="87" y="329.4217">url</text><ellipse cx="78" cy="342.119" fill="#000000" rx="3" ry="3" style="stroke:#000000;stroke-width:1.0;"/><text fill="#000000" font-family="sans-serif" font-size="14" lengthAdjust="spacing" textLength="68" x="87" y="345.91">username</text><ellipse cx="78" cy="358.6073" fill="#000000" rx="3" ry="3" style="stroke:#000000;stroke-width:1.0;"/><text fill="#000000" font-family="sans-serif" font-size="14" lengthAdjust="spacing" textLength="66" x="87" y="362.3983">password</text><ellipse cx="78" cy="375.0955" fill="#000000" rx="3" ry="3" style="stroke:#000000;stroke-width:1.0;"/><text fill="#000000" font-family="sans-serif" font-size="14" lengthAdjust="spacing" textLength="96" x="87" y="378.8866">driver_type_id</text><ellipse cx="78" cy="391.5838" fill="#000000" rx="3" ry="3" style="stroke:#000000;stroke-width:1.0;"/><text fill="#000000" font-family="sans-serif" font-size="14" lengthAdjust="spacing" textLength="93" x="87" y="395.3748">workspace_id</text><line style="stroke:#181818;stroke-width:0.5;" x1="68" x2="188" y1="402.328" y2="402.328"/></g><!--class driver_types--><g id="elem_driver_types"><rect codeLine="54" fill="#F1F1F1" height="97.4648" id="driver_types" rx="2.5" ry="2.5" style="stroke:#181818;stroke-width:0.5;" width="142" x="57" y="48.22"/><ellipse cx="84.15" cy="64.22" fill="#ADD1B2" rx="11" ry="11" style="stroke:#181818;stroke-width:1.0;"/><path d="M87.7643,70.72 L80.0445,70.72 L80.0445,58.3269 L87.7643,58.3269 L87.7643,60.4851 L82.4933,60.4851 L82.4933,63.158 L87.2662,63.158 L87.2662,65.3162 L82.4933,65.3162 L82.4933,68.5618 L87.7643,68.5618 Z " fill="#000000"/><text fill="#000000" font-family="sans-serif" font-size="14" lengthAdjust="spacing" textLength="83" x="100.85" y="69.511">driver_types</text><line style="stroke:#181818;stroke-width:0.5;" x1="58" x2="198" y1="80.22" y2="80.22"/><ellipse cx="68" cy="93.9641" fill="#000000" rx="3" ry="3" style="stroke:#000000;stroke-width:1.0;"/><text fill="#000000" font-family="sans-serif" font-size="14" lengthAdjust="spacing" textLength="13" x="77" y="97.7552">id</text><ellipse cx="68" cy="110.4524" fill="#000000" rx="3" ry="3" style="stroke:#000000;stroke-width:1.0;"/><text fill="#000000" font-family="sans-serif" font-size="14" lengthAdjust="spacing" textLength="38" x="77" y="114.2434">name</text><ellipse cx="68" cy="126.9407" fill="#000000" rx="3" ry="3" style="stroke:#000000;stroke-width:1.0;"/><text fill="#000000" font-family="sans-serif" font-size="14" lengthAdjust="spacing" textLength="116" x="77" y="130.7317">jdbc_driver_class</text><line style="stroke:#181818;stroke-width:0.5;" x1="58" x2="198" y1="137.6848" y2="137.6848"/></g><!--class reports--><g id="elem_reports"><rect codeLine="60" fill="#F1F1F1" height="130.4414" id="reports" rx="2.5" ry="2.5" style="stroke:#181818;stroke-width:0.5;" width="156" x="116" y="834.72"/><ellipse cx="164.75" cy="850.72" fill="#ADD1B2" rx="11" ry="11" style="stroke:#181818;stroke-width:1.0;"/><path d="M168.3643,857.22 L160.6445,857.22 L160.6445,844.8269 L168.3643,844.8269 L168.3643,846.9851 L163.0933,846.9851 L163.0933,849.658 L167.8662,849.658 L167.8662,851.8162 L163.0933,851.8162 L163.0933,855.0618 L168.3643,855.0618 Z " fill="#000000"/><text fill="#000000" font-family="sans-serif" font-size="14" lengthAdjust="spacing" textLength="50" x="185.25" y="856.011">reports</text><line style="stroke:#181818;stroke-width:0.5;" x1="117" x2="271" y1="866.72" y2="866.72"/><ellipse cx="127" cy="880.4641" fill="#000000" rx="3" ry="3" style="stroke:#000000;stroke-width:1.0;"/><text fill="#000000" font-family="sans-serif" font-size="14" lengthAdjust="spacing" textLength="13" x="136" y="884.2552">id</text><ellipse cx="127" cy="896.9524" fill="#000000" rx="3" ry="3" style="stroke:#000000;stroke-width:1.0;"/><text fill="#000000" font-family="sans-serif" font-size="14" lengthAdjust="spacing" textLength="93" x="136" y="900.7434">workspace_id</text><ellipse cx="127" cy="913.4407" fill="#000000" rx="3" ry="3" style="stroke:#000000;stroke-width:1.0;"/><text fill="#000000" font-family="sans-serif" font-size="14" lengthAdjust="spacing" textLength="38" x="136" y="917.2317">name</text><ellipse cx="127" cy="929.929" fill="#000000" rx="3" ry="3" style="stroke:#000000;stroke-width:1.0;"/><text fill="#000000" font-family="sans-serif" font-size="14" lengthAdjust="spacing" textLength="130" x="136" y="933.72">report_template_id</text><ellipse cx="127" cy="946.4173" fill="#000000" rx="3" ry="3" style="stroke:#000000;stroke-width:1.0;"/><text fill="#000000" font-family="sans-serif" font-size="14" lengthAdjust="spacing" textLength="103" x="136" y="950.2083">data_source_id</text><line style="stroke:#181818;stroke-width:0.5;" x1="117" x2="271" y1="957.1614" y2="957.1614"/></g><!--class report_templates--><g id="elem_report_templates"><rect codeLine="68" fill="#F1F1F1" height="163.418" id="report_templates" rx="2.5" ry="2.5" style="stroke:#181818;stroke-width:0.5;" width="188" x="361" y="1025.16"/><ellipse cx="393.55" cy="1041.16" fill="#ADD1B2" rx="11" ry="11" style="stroke:#181818;stroke-width:1.0;"/><path d="M397.1643,1047.66 L389.4445,1047.66 L389.4445,1035.2669 L397.1643,1035.2669 L397.1643,1037.4251 L391.8933,1037.4251 L391.8933,1040.098 L396.6662,1040.098 L396.6662,1042.2562 L391.8933,1042.2562 L391.8933,1045.5018 L397.1643,1045.5018 Z " fill="#000000"/><text fill="#000000" font-family="sans-serif" font-size="14" lengthAdjust="spacing" textLength="117" x="411.45" y="1046.451">report_templates</text><line style="stroke:#181818;stroke-width:0.5;" x1="362" x2="548" y1="1057.16" y2="1057.16"/><ellipse cx="372" cy="1070.9041" fill="#000000" rx="3" ry="3" style="stroke:#000000;stroke-width:1.0;"/><text fill="#000000" font-family="sans-serif" font-size="14" lengthAdjust="spacing" textLength="13" x="381" y="1074.6952">id</text><ellipse cx="372" cy="1087.3924" fill="#000000" rx="3" ry="3" style="stroke:#000000;stroke-width:1.0;"/><text fill="#000000" font-family="sans-serif" font-size="14" lengthAdjust="spacing" textLength="93" x="381" y="1091.1834">workspace_id</text><ellipse cx="372" cy="1103.8807" fill="#000000" rx="3" ry="3" style="stroke:#000000;stroke-width:1.0;"/><text fill="#000000" font-family="sans-serif" font-size="14" lengthAdjust="spacing" textLength="72" x="381" y="1107.6717">storage_id</text><ellipse cx="372" cy="1120.369" fill="#000000" rx="3" ry="3" style="stroke:#000000;stroke-width:1.0;"/><text fill="#000000" font-family="sans-serif" font-size="14" lengthAdjust="spacing" textLength="38" x="381" y="1124.16">name</text><ellipse cx="372" cy="1136.8573" fill="#000000" rx="3" ry="3" style="stroke:#000000;stroke-width:1.0;"/><text fill="#000000" font-family="sans-serif" font-size="14" lengthAdjust="spacing" textLength="59" x="381" y="1140.6483">file_path</text><ellipse cx="372" cy="1153.3455" fill="#000000" rx="3" ry="3" style="stroke:#000000;stroke-width:1.0;"/><text fill="#000000" font-family="sans-serif" font-size="14" lengthAdjust="spacing" textLength="162" x="381" y="1157.1366">storage_type: [local, s3]</text><ellipse cx="372" cy="1169.8338" fill="#000000" rx="3" ry="3" style="stroke:#000000;stroke-width:1.0;"/><text fill="#000000" font-family="sans-serif" font-size="14" lengthAdjust="spacing" textLength="55" x="381" y="1173.6248">file_size</text><line style="stroke:#181818;stroke-width:0.5;" x1="362" x2="548" y1="1180.578" y2="1180.578"/></g><!--class report_parameters--><g id="elem_report_parameters"><rect codeLine="78" fill="#F1F1F1" height="130.4414" id="report_parameters" rx="2.5" ry="2.5" style="stroke:#181818;stroke-width:0.5;" width="374" x="7" y="1248.58"/><ellipse cx="125.75" cy="1264.58" fill="#ADD1B2" rx="11" ry="11" style="stroke:#181818;stroke-width:1.0;"/><path d="M129.3643,1271.08 L121.6445,1271.08 L121.6445,1258.6869 L129.3643,1258.6869 L129.3643,1260.8451 L124.0933,1260.8451 L124.0933,1263.518 L128.8662,1263.518 L128.8662,1265.6762 L124.0933,1265.6762 L124.0933,1268.9218 L129.3643,1268.9218 Z " fill="#000000"/><text fill="#000000" font-family="sans-serif" font-size="14" lengthAdjust="spacing" textLength="128" x="146.25" y="1269.871">report_parameters</text><line style="stroke:#181818;stroke-width:0.5;" x1="8" x2="380" y1="1280.58" y2="1280.58"/><ellipse cx="18" cy="1294.3241" fill="#000000" rx="3" ry="3" style="stroke:#000000;stroke-width:1.0;"/><text fill="#000000" font-family="sans-serif" font-size="14" lengthAdjust="spacing" textLength="13" x="27" y="1298.1152">id</text><ellipse cx="18" cy="1310.8124" fill="#000000" rx="3" ry="3" style="stroke:#000000;stroke-width:1.0;"/><text fill="#000000" font-family="sans-serif" font-size="14" lengthAdjust="spacing" textLength="93" x="27" y="1314.6034">workspace_id</text><ellipse cx="18" cy="1327.3007" fill="#000000" rx="3" ry="3" style="stroke:#000000;stroke-width:1.0;"/><text fill="#000000" font-family="sans-serif" font-size="14" lengthAdjust="spacing" textLength="348" x="27" y="1331.0917">parameter_type: [embedded_function, fixed_value]</text><text fill="#000000" font-family="sans-serif" font-size="14" lengthAdjust="spacing" textLength="173" x="27" y="1347.58">embedded_function_type</text><text fill="#000000" font-family="sans-serif" font-size="14" lengthAdjust="spacing" textLength="36" x="27" y="1364.0683">value</text><line style="stroke:#181818;stroke-width:0.5;" x1="8" x2="380" y1="1371.0214" y2="1371.0214"/></g><!--class report_report_parameters--><g id="elem_report_report_parameters"><rect codeLine="86" fill="#F1F1F1" height="97.4648" id="report_report_parameters" rx="2.5" ry="2.5" style="stroke:#181818;stroke-width:0.5;" width="210" x="89" y="1058.14"/><ellipse cx="104" cy="1074.14" fill="#ADD1B2" rx="11" ry="11" style="stroke:#181818;stroke-width:1.0;"/><path d="M107.6143,1080.64 L99.8945,1080.64 L99.8945,1068.2469 L107.6143,1068.2469 L107.6143,1070.4051 L102.3433,1070.4051 L102.3433,1073.078 L107.1162,1073.078 L107.1162,1075.2362 L102.3433,1075.2362 L102.3433,1078.4818 L107.6143,1078.4818 Z " fill="#000000"/><text fill="#000000" font-family="sans-serif" font-size="14" lengthAdjust="spacing" textLength="178" x="118" y="1079.431">report_report_parameters</text><line style="stroke:#181818;stroke-width:0.5;" x1="90" x2="298" y1="1090.14" y2="1090.14"/><ellipse cx="100" cy="1103.8841" fill="#000000" rx="3" ry="3" style="stroke:#000000;stroke-width:1.0;"/><text fill="#000000" font-family="sans-serif" font-size="14" lengthAdjust="spacing" textLength="13" x="109" y="1107.6752">id</text><ellipse cx="100" cy="1120.3724" fill="#000000" rx="3" ry="3" style="stroke:#000000;stroke-width:1.0;"/><text fill="#000000" font-family="sans-serif" font-size="14" lengthAdjust="spacing" textLength="63" x="109" y="1124.1634">report_id</text><ellipse cx="100" cy="1136.8607" fill="#000000" rx="3" ry="3" style="stroke:#000000;stroke-width:1.0;"/><text fill="#000000" font-family="sans-serif" font-size="14" lengthAdjust="spacing" textLength="141" x="109" y="1140.6517">report_parameter_id</text><line style="stroke:#181818;stroke-width:0.5;" x1="90" x2="298" y1="1147.6048" y2="1147.6048"/></g><!--class report_groups--><g id="elem_report_groups"><rect codeLine="92" fill="#F1F1F1" height="97.4648" id="report_groups" rx="2.5" ry="2.5" style="stroke:#181818;stroke-width:0.5;" width="131" x="245.5" y="470.32"/><ellipse cx="260.5" cy="486.32" fill="#ADD1B2" rx="11" ry="11" style="stroke:#181818;stroke-width:1.0;"/><path d="M264.1143,492.82 L256.3945,492.82 L256.3945,480.4269 L264.1143,480.4269 L264.1143,482.5851 L258.8433,482.5851 L258.8433,485.258 L263.6162,485.258 L263.6162,487.4162 L258.8433,487.4162 L258.8433,490.6618 L264.1143,490.6618 Z " fill="#000000"/><text fill="#000000" font-family="sans-serif" font-size="14" lengthAdjust="spacing" textLength="99" x="274.5" y="491.611">report_groups</text><line style="stroke:#181818;stroke-width:0.5;" x1="246.5" x2="375.5" y1="502.32" y2="502.32"/><ellipse cx="256.5" cy="516.0641" fill="#000000" rx="3" ry="3" style="stroke:#000000;stroke-width:1.0;"/><text fill="#000000" font-family="sans-serif" font-size="14" lengthAdjust="spacing" textLength="13" x="265.5" y="519.8552">id</text><ellipse cx="256.5" cy="532.5524" fill="#000000" rx="3" ry="3" style="stroke:#000000;stroke-width:1.0;"/><text fill="#000000" font-family="sans-serif" font-size="14" lengthAdjust="spacing" textLength="93" x="265.5" y="536.3434">workspace_id</text><ellipse cx="256.5" cy="549.0407" fill="#000000" rx="3" ry="3" style="stroke:#000000;stroke-width:1.0;"/><text fill="#000000" font-family="sans-serif" font-size="14" lengthAdjust="spacing" textLength="38" x="265.5" y="552.8317">name</text><line style="stroke:#181818;stroke-width:0.5;" x1="246.5" x2="375.5" y1="559.7848" y2="559.7848"/></g><!--class report_group_reports--><g id="elem_report_group_reports"><rect codeLine="98" fill="#F1F1F1" height="97.4648" id="report_group_reports" rx="2.5" ry="2.5" style="stroke:#181818;stroke-width:0.5;" width="181" x="220.5" y="652.52"/><ellipse cx="235.5" cy="668.52" fill="#ADD1B2" rx="11" ry="11" style="stroke:#181818;stroke-width:1.0;"/><path d="M239.1143,675.02 L231.3945,675.02 L231.3945,662.6269 L239.1143,662.6269 L239.1143,664.7851 L233.8433,664.7851 L233.8433,667.458 L238.6162,667.458 L238.6162,669.6162 L233.8433,669.6162 L233.8433,672.8618 L239.1143,672.8618 Z " fill="#000000"/><text fill="#000000" font-family="sans-serif" font-size="14" lengthAdjust="spacing" textLength="149" x="249.5" y="673.811">report_group_reports</text><line style="stroke:#181818;stroke-width:0.5;" x1="221.5" x2="400.5" y1="684.52" y2="684.52"/><ellipse cx="231.5" cy="698.2641" fill="#000000" rx="3" ry="3" style="stroke:#000000;stroke-width:1.0;"/><text fill="#000000" font-family="sans-serif" font-size="14" lengthAdjust="spacing" textLength="13" x="240.5" y="702.0552">id</text><ellipse cx="231.5" cy="714.7524" fill="#000000" rx="3" ry="3" style="stroke:#000000;stroke-width:1.0;"/><text fill="#000000" font-family="sans-serif" font-size="14" lengthAdjust="spacing" textLength="112" x="240.5" y="718.5434">report_group_id</text><ellipse cx="231.5" cy="731.2407" fill="#000000" rx="3" ry="3" style="stroke:#000000;stroke-width:1.0;"/><text fill="#000000" font-family="sans-serif" font-size="14" lengthAdjust="spacing" textLength="63" x="240.5" y="735.0317">report_id</text><line style="stroke:#181818;stroke-width:0.5;" x1="221.5" x2="400.5" y1="741.9848" y2="741.9848"/></g><!--class storage_s3s--><g id="elem_storage_s3s"><rect codeLine="104" fill="#F1F1F1" height="146.9297" id="storage_s3s" rx="2.5" ry="2.5" style="stroke:#181818;stroke-width:0.5;" width="181" x="508.5" y="627.79"/><ellipse cx="553.75" cy="643.79" fill="#ADD1B2" rx="11" ry="11" style="stroke:#181818;stroke-width:1.0;"/><path d="M557.3643,650.29 L549.6445,650.29 L549.6445,637.8969 L557.3643,637.8969 L557.3643,640.0551 L552.0933,640.0551 L552.0933,642.728 L556.8662,642.728 L556.8662,644.8862 L552.0933,644.8862 L552.0933,648.1318 L557.3643,648.1318 Z " fill="#000000"/><text fill="#000000" font-family="sans-serif" font-size="14" lengthAdjust="spacing" textLength="82" x="574.25" y="649.081">storage_s3s</text><line style="stroke:#181818;stroke-width:0.5;" x1="509.5" x2="688.5" y1="659.79" y2="659.79"/><ellipse cx="519.5" cy="673.5341" fill="#000000" rx="3" ry="3" style="stroke:#000000;stroke-width:1.0;"/><text fill="#000000" font-family="sans-serif" font-size="14" lengthAdjust="spacing" textLength="13" x="528.5" y="677.3252">id</text><ellipse cx="519.5" cy="690.0224" fill="#000000" rx="3" ry="3" style="stroke:#000000;stroke-width:1.0;"/><text fill="#000000" font-family="sans-serif" font-size="14" lengthAdjust="spacing" textLength="93" x="528.5" y="693.8134">workspace_id</text><ellipse cx="519.5" cy="706.5107" fill="#000000" rx="3" ry="3" style="stroke:#000000;stroke-width:1.0;"/><text fill="#000000" font-family="sans-serif" font-size="14" lengthAdjust="spacing" textLength="127" x="528.5" y="710.3017">aws_access_key_id</text><ellipse cx="519.5" cy="722.999" fill="#000000" rx="3" ry="3" style="stroke:#000000;stroke-width:1.0;"/><text fill="#000000" font-family="sans-serif" font-size="14" lengthAdjust="spacing" textLength="155" x="528.5" y="726.79">aws_secret_access_key</text><ellipse cx="519.5" cy="739.4873" fill="#000000" rx="3" ry="3" style="stroke:#000000;stroke-width:1.0;"/><text fill="#000000" font-family="sans-serif" font-size="14" lengthAdjust="spacing" textLength="78" x="528.5" y="743.2783">aws_region</text><ellipse cx="519.5" cy="755.9755" fill="#000000" rx="3" ry="3" style="stroke:#000000;stroke-width:1.0;"/><text fill="#000000" font-family="sans-serif" font-size="14" lengthAdjust="spacing" textLength="114" x="528.5" y="759.7666">s3_bucket_name</text><line style="stroke:#181818;stroke-width:0.5;" x1="509.5" x2="688.5" y1="766.7197" y2="766.7197"/></g><!--link workspaces to workspace_members--><g id="link_workspaces_workspace_members"><path codeLine="113" d="M367.29,328.62 C378.79,328.62 382.3,328.62 393.8,328.62 " fill="none" id="workspaces-to-workspace_members" style="stroke:#181818;stroke-width:1.0;"/><line style="stroke:#181818;stroke-width:1.0;" x1="393.8" x2="401.8" y1="328.62" y2="320.62"/><line style="stroke:#181818;stroke-width:1.0;" x1="393.8" x2="401.8" y1="328.62" y2="336.62"/><line style="stroke:#181818;stroke-width:1.0;" x1="393.8" x2="401.8" y1="328.62" y2="328.62"/></g><!--link members to workspace_members--><g id="link_members_workspace_members"><path codeLine="114" d="M490,187.4 C490,218.77 490,244.79 490,271.46 " fill="none" id="members-to-workspace_members" style="stroke:#181818;stroke-width:1.0;"/><line style="stroke:#181818;stroke-width:1.0;" x1="490" x2="498" y1="271.46" y2="279.46"/><line style="stroke:#181818;stroke-width:1.0;" x1="490" x2="482" y1="271.46" y2="279.46"/><line style="stroke:#181818;stroke-width:1.0;" x1="490" x2="490" y1="271.46" y2="279.46"/></g><!--link workspace_members to roles--><g id="link_workspace_members_roles"><path codeLine="115" d="M586.39,328.62 C597.65,328.62 592.91,328.62 604.17,328.62 " fill="none" id="workspace_members-roles" style="stroke:#181818;stroke-width:1.0;"/><line style="stroke:#181818;stroke-width:1.0;" x1="586.39" x2="578.39" y1="328.62" y2="336.62"/><line style="stroke:#181818;stroke-width:1.0;" x1="586.39" x2="578.39" y1="328.62" y2="320.62"/><line style="stroke:#181818;stroke-width:1.0;" x1="586.39" x2="578.39" y1="328.62" y2="328.62"/><line style="stroke:#181818;stroke-width:1.0;" x1="604.17" x2="612.17" y1="328.62" y2="320.62"/><line style="stroke:#181818;stroke-width:1.0;" x1="604.17" x2="612.17" y1="328.62" y2="336.62"/><line style="stroke:#181818;stroke-width:1.0;" x1="604.17" x2="612.17" y1="328.62" y2="328.62"/></g><!--link roles to role_functions--><g id="link_roles_role_functions"><path codeLine="116" d="M657,369.58 C657,401.56 657,438.19 657,470.15 " fill="none" id="roles-to-role_functions" style="stroke:#181818;stroke-width:1.0;"/><line style="stroke:#181818;stroke-width:1.0;" x1="657" x2="665" y1="470.15" y2="478.15"/><line style="stroke:#181818;stroke-width:1.0;" x1="657" x2="649" y1="470.15" y2="478.15"/><line style="stroke:#181818;stroke-width:1.0;" x1="657" x2="657" y1="470.15" y2="478.15"/></g><!--link role_functions to functions--><g id="link_role_functions_functions"><path codeLine="117" d="M722.33,519.06 C733.74,519.06 737.15,519.06 748.56,519.06 " fill="none" id="role_functions-to-functions" style="stroke:#181818;stroke-width:1.0;"/><line style="stroke:#181818;stroke-width:1.0;" x1="748.56" x2="756.56" y1="519.06" y2="511.06"/><line style="stroke:#181818;stroke-width:1.0;" x1="748.56" x2="756.56" y1="519.06" y2="527.06"/><line style="stroke:#181818;stroke-width:1.0;" x1="748.56" x2="756.56" y1="519.06" y2="519.06"/></g><!--reverse link data_sources to workspaces--><g id="link_data_sources_workspaces"><path codeLine="118" d="M197.48,328.62 C219.15,328.62 232.83,328.62 254.51,328.62 " fill="none" id="data_sources-backto-workspaces" style="stroke:#181818;stroke-width:1.0;"/><line style="stroke:#181818;stroke-width:1.0;" x1="197.48" x2="189.48" y1="328.62" y2="336.62"/><line style="stroke:#181818;stroke-width:1.0;" x1="197.48" x2="189.48" y1="328.62" y2="320.62"/><line style="stroke:#181818;stroke-width:1.0;" x1="197.48" x2="189.48" y1="328.62" y2="328.62"/></g><!--link workspaces to reports--><g id="link_workspaces_reports"><path codeLine="119" d="M261.16,402.26 C248.61,423.42 236.35,447.11 228,470.32 C183.8,593.25 183.7083,740.4217 188.3483,826.2917 " fill="none" id="workspaces-to-reports" style="stroke:#181818;stroke-width:1.0;"/><line style="stroke:#181818;stroke-width:1.0;" x1="188.3483" x2="196.7683" y1="826.2917" y2="834.28"/><line style="stroke:#181818;stroke-width:1.0;" x1="188.3483" x2="180.7917" y1="826.2917" y2="834.28"/><line style="stroke:#181818;stroke-width:1.0;" x1="188.3483" x2="188.78" y1="826.2917" y2="834.28"/></g><!--link workspaces to report_templates--><g id="link_workspaces_report_templates"><path codeLine="120" d="M360.84,402.26 C373.39,423.42 385.65,447.11 394,470.32 C462.26,660.16 464.5931,893.3054 460.0631,1016.8454 " fill="none" id="workspaces-to-report_templates" style="stroke:#181818;stroke-width:1.0;"/><line style="stroke:#181818;stroke-width:1.0;" x1="460.0631" x2="467.7646" y1="1016.8454" y2="1024.84"/><line style="stroke:#181818;stroke-width:1.0;" x1="460.0631" x2="451.7754" y1="1016.8454" y2="1024.84"/><line style="stroke:#181818;stroke-width:1.0;" x1="460.0631" x2="459.77" y1="1016.8454" y2="1024.84"/></g><!--link workspaces to report_groups--><g id="link_workspaces_report_groups"><path codeLine="121" d="M311,402.47 C311,425.05 311,441.36 311,461.83 " fill="none" id="workspaces-to-report_groups" style="stroke:#181818;stroke-width:1.0;"/><line style="stroke:#181818;stroke-width:1.0;" x1="311" x2="319" y1="461.83" y2="469.83"/><line style="stroke:#181818;stroke-width:1.0;" x1="311" x2="303" y1="461.83" y2="469.83"/><line style="stroke:#181818;stroke-width:1.0;" x1="311" x2="311" y1="461.83" y2="469.83"/></g><!--reverse link reports to report_templates--><g id="link_reports_report_templates"><path codeLine="122" d="M278.6024,967.3702 C306.3824,989.1802 331.64,1009.01 360.62,1031.77 " fill="none" id="reports-backto-report_templates" style="stroke:#181818;stroke-width:1.0;"/><line style="stroke:#181818;stroke-width:1.0;" x1="278.6024" x2="272.31" y1="967.3702" y2="968.7224"/><line style="stroke:#181818;stroke-width:1.0;" x1="278.6024" x2="272.31" y1="967.3702" y2="956.1376"/><line style="stroke:#181818;stroke-width:1.0;" x1="278.6024" x2="272.31" y1="967.3702" y2="962.43"/></g><!--link report_groups to report_group_reports--><g id="link_report_groups_report_group_reports"><path codeLine="123" d="M311,575.87 C311,601.94 311,618.11 311,644.21 " fill="none" id="report_groups-report_group_reports" style="stroke:#181818;stroke-width:1.0;"/><line style="stroke:#181818;stroke-width:1.0;" x1="311" x2="303" y1="575.87" y2="567.87"/><line style="stroke:#181818;stroke-width:1.0;" x1="311" x2="319" y1="575.87" y2="567.87"/><line style="stroke:#181818;stroke-width:1.0;" x1="311" x2="311" y1="575.87" y2="567.87"/><line style="stroke:#181818;stroke-width:1.0;" x1="311" x2="319" y1="644.21" y2="652.21"/><line style="stroke:#181818;stroke-width:1.0;" x1="311" x2="303" y1="644.21" y2="652.21"/><line style="stroke:#181818;stroke-width:1.0;" x1="311" x2="311" y1="644.21" y2="652.21"/></g><!--link report_group_reports to reports--><g id="link_report_group_reports_reports"><path codeLine="124" d="M278.2901,757.2455 C263.2701,782.4955 252.8393,800.0241 236.5793,827.3641 " fill="none" id="report_group_reports-reports" style="stroke:#181818;stroke-width:1.0;"/><line style="stroke:#181818;stroke-width:1.0;" x1="278.2901" x2="275.5045" y1="757.2455" y2="750.37"/><line style="stroke:#181818;stroke-width:1.0;" x1="278.2901" x2="289.2555" y1="757.2455" y2="750.37"/><line style="stroke:#181818;stroke-width:1.0;" x1="278.2901" x2="282.38" y1="757.2455" y2="750.37"/><line style="stroke:#181818;stroke-width:1.0;" x1="236.5793" x2="239.3659" y1="827.3641" y2="834.24"/><line style="stroke:#181818;stroke-width:1.0;" x1="236.5793" x2="225.6141" y1="827.3641" y2="834.24"/><line style="stroke:#181818;stroke-width:1.0;" x1="236.5793" x2="232.49" y1="827.3641" y2="834.24"/></g><!--link reports to report_report_parameters--><g id="link_reports_report_report_parameters"><path codeLine="125" d="M194,973.5 C194,1003.42 194,1022.35 194,1049.89 " fill="none" id="reports-report_report_parameters" style="stroke:#181818;stroke-width:1.0;"/><line style="stroke:#181818;stroke-width:1.0;" x1="194" x2="186" y1="973.5" y2="965.5"/><line style="stroke:#181818;stroke-width:1.0;" x1="194" x2="202" y1="973.5" y2="965.5"/><line style="stroke:#181818;stroke-width:1.0;" x1="194" x2="194" y1="973.5" y2="965.5"/><line style="stroke:#181818;stroke-width:1.0;" x1="194" x2="202" y1="1049.89" y2="1057.89"/><line style="stroke:#181818;stroke-width:1.0;" x1="194" x2="186" y1="1049.89" y2="1057.89"/><line style="stroke:#181818;stroke-width:1.0;" x1="194" x2="194" y1="1049.89" y2="1057.89"/></g><!--link report_report_parameters to report_parameters--><g id="link_report_report_parameters_report_parameters"><path codeLine="126" d="M194,1163.92 C194,1191.48 194,1210.45 194,1240.37 " fill="none" id="report_report_parameters-report_parameters" style="stroke:#181818;stroke-width:1.0;"/><line style="stroke:#181818;stroke-width:1.0;" x1="194" x2="186" y1="1163.92" y2="1155.92"/><line style="stroke:#181818;stroke-width:1.0;" x1="194" x2="202" y1="1163.92" y2="1155.92"/><line style="stroke:#181818;stroke-width:1.0;" x1="194" x2="194" y1="1163.92" y2="1155.92"/><line style="stroke:#181818;stroke-width:1.0;" x1="194" x2="202" y1="1240.37" y2="1248.37"/><line style="stroke:#181818;stroke-width:1.0;" x1="194" x2="186" y1="1240.37" y2="1248.37"/><line style="stroke:#181818;stroke-width:1.0;" x1="194" x2="194" y1="1240.37" y2="1248.37"/></g><!--link driver_types to data_sources--><g id="link_driver_types_data_sources"><path codeLine="127" d="M128,146.1 C128,175.17 128,204.96 128,238.53 " fill="none" id="driver_types-to-data_sources" style="stroke:#181818;stroke-width:1.0;"/><line style="stroke:#181818;stroke-width:1.0;" x1="128" x2="136" y1="238.53" y2="246.53"/><line style="stroke:#181818;stroke-width:1.0;" x1="128" x2="120" y1="238.53" y2="246.53"/><line style="stroke:#181818;stroke-width:1.0;" x1="128" x2="128" y1="238.53" y2="246.53"/></g><!--link data_sources to reports--><g id="link_data_sources_reports"><path codeLine="128" d="M121.41,410.72 C116.15,500.79 113.59,649.94 141,774.72 C145.4,794.76 149.8301,808.2605 157.9001,827.0305 " fill="none" id="data_sources-to-reports" style="stroke:#181818;stroke-width:1.0;"/><line style="stroke:#181818;stroke-width:1.0;" x1="157.9001" x2="168.4095" y1="827.0305" y2="834.38"/><line style="stroke:#181818;stroke-width:1.0;" x1="157.9001" x2="153.7105" y1="827.0305" y2="834.38"/><line style="stroke:#181818;stroke-width:1.0;" x1="157.9001" x2="161.06" y1="827.0305" y2="834.38"/></g><!--link workspaces to storage_s3s--><g id="link_workspaces_storage_s3s"><path codeLine="129" d="M367.23,394.23 C373.04,399.88 379.01,405.34 385,410.32 C423.69,442.49 446.96,433.28 481,470.32 C522.82,515.83 550.7942,571.5262 570.4942,620.1162 " fill="none" id="workspaces-to-storage_s3s" style="stroke:#181818;stroke-width:1.0;"/><line style="stroke:#181818;stroke-width:1.0;" x1="570.4942" x2="580.9138" y1="620.1162" y2="627.53"/><line style="stroke:#181818;stroke-width:1.0;" x1="570.4942" x2="566.0862" y1="620.1162" y2="627.53"/><line style="stroke:#181818;stroke-width:1.0;" x1="570.4942" x2="573.5" y1="620.1162" y2="627.53"/></g><!--link storage_s3s to report_templates--><g id="link_storage_s3s_report_templates"><path codeLine="130" d="M573.09,774.88 C547.99,845.24 512.6776,944.195 486.6076,1017.285 " fill="none" id="storage_s3s-to-report_templates" style="stroke:#181818;stroke-width:1.0;"/><line style="stroke:#181818;stroke-width:1.0;" x1="486.6076" x2="491.455" y1="1017.285" y2="1024.82"/><line style="stroke:#181818;stroke-width:1.0;" x1="486.6076" x2="476.385" y1="1017.285" y2="1024.82"/><line style="stroke:#181818;stroke-width:1.0;" x1="486.6076" x2="483.92" y1="1017.285" y2="1024.82"/></g><!--SRC=[fLJ9RiCW4Btp5PoZ-fHRVwMg4C5JrmqEY2LjQkNVon9Y5hkfr9CDysRUcuM1andD1Kym7K1fF2ECTtZimmScElBmTw8JX1z9jVuKojin7eGOE90RcYcW1df2JJXQsUV7iui-YfD6LuGWSheuHoqfWuhsJgQv7VuPcfI9BVSthcXE9oLYEaiWVrF92o1paP31tko96Q-XWe8MLh6O3Gs8AZQfFPC4_vzifIINEoKnxbRXh8fjinhKMkjsk5UZArj88x4LjSde5kGMtKT_OEI6OzpHv4c25CfKdaqRxg4Yd1YO97SzJlOivwe_9VuHZpP2qQ6bVHjTrIKrxmNAv_oCNxXWb3zXlNzTi7hyXbQ6fCf5DCr3QdJSWOd3Zs7VkvbEFNzoF5_kVARSmcjuRWqcJg4t1LIhvu6icxayBTBM2ZqeOUMVkhdkIbRdeK0qufP8gJ5w_qW2_TI4ClT2D3d29R_LuBQ9oOntYuB1Fz0m0NjoiEpeS2cNR5brdPhR3OFQdNFjEej_DRj0OSEWk6UwRgws0ggMH71Ph8KgFXUxeJJEwIMkNoylQCCU6uzI-vpsrhESaMljdNgFLWVYccjSkMo76MrEUUwMuOjLvY55kOgzkbamL_vi2b4-aQlL_040]--></g></svg>