<svg xmlns="http://www.w3.org/2000/svg" xmlns:xlink="http://www.w3.org/1999/xlink" contentStyleType="text/css" data-diagram-type="CLASS" height="1402px" preserveAspectRatio="none" style="width:853px;height:1402px;background:#FFFFFF;" version="1.1" viewBox="0 0 853 1402" width="853px" zoomAndPan="magnify"><defs/><g><!--class members--><g class="entity" data-entity="members" data-source-line="2" data-uid="ent0002" id="entity_members"><rect fill="#F1F1F1" height="179.9063" rx="2.5" ry="2.5" style="stroke:#181818;stroke-width:0.5;" width="101.8584" x="435.33" y="7"/><ellipse cx="453.2286" cy="23" fill="#ADD1B2" rx="11" ry="11" style="stroke:#181818;stroke-width:1;"/><path d="M456.8429,29.5 L449.1232,29.5 L449.1232,17.1069 L456.8429,17.1069 L456.8429,19.2651 L451.5719,19.2651 L451.5719,21.938 L456.3448,21.938 L456.3448,24.0962 L451.5719,24.0962 L451.5719,27.3418 L456.8429,27.3418 Z " fill="#000000"/><text fill="#000000" font-family="sans-serif" font-size="14" lengthAdjust="spacing" textLength="63.417" x="467.8728" y="28.291">members</text><line style="stroke:#181818;stroke-width:0.5;" x1="436.33" x2="536.1884" y1="39" y2="39"/><ellipse cx="446.33" cy="52.7441" fill="#000000" rx="3" ry="3" style="stroke:#000000;stroke-width:1;"/><text fill="#000000" font-family="sans-serif" font-size="14" lengthAdjust="spacing" textLength="12.8584" x="455.33" y="56.5352">id</text><ellipse cx="446.33" cy="69.2324" fill="#000000" rx="3" ry="3" style="stroke:#000000;stroke-width:1;"/><text fill="#000000" font-family="sans-serif" font-size="14" lengthAdjust="spacing" textLength="36.6953" x="455.33" y="73.0234">email</text><ellipse cx="446.33" cy="85.7207" fill="#000000" rx="3" ry="3" style="stroke:#000000;stroke-width:1;"/><text fill="#000000" font-family="sans-serif" font-size="14" lengthAdjust="spacing" textLength="37.29" x="455.33" y="89.5117">name</text><ellipse cx="446.33" cy="102.209" fill="#000000" rx="3" ry="3" style="stroke:#000000;stroke-width:1;"/><text fill="#000000" font-family="sans-serif" font-size="14" lengthAdjust="spacing" textLength="64.7432" x="455.33" y="106">password</text><text fill="#000000" font-family="sans-serif" font-size="14" lengthAdjust="spacing" textLength="66.3633" x="455.33" y="122.4883">google_id</text><ellipse cx="446.33" cy="135.1855" fill="#000000" rx="3" ry="3" style="stroke:#000000;stroke-width:1;"/><text fill="#000000" font-family="sans-serif" font-size="14" lengthAdjust="spacing" textLength="70.2461" x="455.33" y="138.9766">created_at</text><ellipse cx="446.33" cy="151.6738" fill="#000000" rx="3" ry="3" style="stroke:#000000;stroke-width:1;"/><text fill="#000000" font-family="sans-serif" font-size="14" lengthAdjust="spacing" textLength="75.8584" x="455.33" y="155.4648">updated_at</text><ellipse cx="446.33" cy="168.1621" fill="#000000" rx="3" ry="3" style="stroke:#000000;stroke-width:1;"/><text fill="#000000" font-family="sans-serif" font-size="14" lengthAdjust="spacing" textLength="56.3828" x="455.33" y="171.9531">versions</text><line style="stroke:#181818;stroke-width:0.5;" x1="436.33" x2="536.1884" y1="178.9063" y2="178.9063"/></g><!--class workspaces--><g class="entity" data-entity="workspaces" data-source-line="13" data-uid="ent0003" id="entity_workspaces"><rect fill="#F1F1F1" height="146.9297" rx="2.5" ry="2.5" style="stroke:#181818;stroke-width:0.5;" width="111.085" x="252.71" y="255.15"/><ellipse cx="267.71" cy="271.15" fill="#ADD1B2" rx="11" ry="11" style="stroke:#181818;stroke-width:1;"/><path d="M271.3243,277.65 L263.6045,277.65 L263.6045,265.2569 L271.3243,265.2569 L271.3243,267.4151 L266.0533,267.4151 L266.0533,270.088 L270.8262,270.088 L270.8262,272.2462 L266.0533,272.2462 L266.0533,275.4918 L271.3243,275.4918 Z " fill="#000000"/><text fill="#000000" font-family="sans-serif" font-size="14" lengthAdjust="spacing" textLength="79.085" x="281.71" y="276.441">workspaces</text><line style="stroke:#181818;stroke-width:0.5;" x1="253.71" x2="362.795" y1="287.15" y2="287.15"/><ellipse cx="263.71" cy="300.8941" fill="#000000" rx="3" ry="3" style="stroke:#000000;stroke-width:1;"/><text fill="#000000" font-family="sans-serif" font-size="14" lengthAdjust="spacing" textLength="12.8584" x="272.71" y="304.6852">id</text><ellipse cx="263.71" cy="317.3824" fill="#000000" rx="3" ry="3" style="stroke:#000000;stroke-width:1;"/><text fill="#000000" font-family="sans-serif" font-size="14" lengthAdjust="spacing" textLength="37.29" x="272.71" y="321.1734">name</text><ellipse cx="263.71" cy="333.8707" fill="#000000" rx="3" ry="3" style="stroke:#000000;stroke-width:1;"/><text fill="#000000" font-family="sans-serif" font-size="14" lengthAdjust="spacing" textLength="28.6016" x="272.71" y="337.6617">slug</text><ellipse cx="263.71" cy="350.359" fill="#000000" rx="3" ry="3" style="stroke:#000000;stroke-width:1;"/><text fill="#000000" font-family="sans-serif" font-size="14" lengthAdjust="spacing" textLength="70.2461" x="272.71" y="354.15">created_at</text><ellipse cx="263.71" cy="366.8473" fill="#000000" rx="3" ry="3" style="stroke:#000000;stroke-width:1;"/><text fill="#000000" font-family="sans-serif" font-size="14" lengthAdjust="spacing" textLength="75.8584" x="272.71" y="370.6383">updated_at</text><ellipse cx="263.71" cy="383.3355" fill="#000000" rx="3" ry="3" style="stroke:#000000;stroke-width:1;"/><text fill="#000000" font-family="sans-serif" font-size="14" lengthAdjust="spacing" textLength="56.3828" x="272.71" y="387.1266">versions</text><line style="stroke:#181818;stroke-width:0.5;" x1="253.71" x2="362.795" y1="394.0797" y2="394.0797"/></g><!--class workspace_members--><g class="entity" data-entity="workspace_members" data-source-line="22" data-uid="ent0004" id="entity_workspace_members"><rect fill="#F1F1F1" height="97.4648" rx="2.5" ry="2.5" style="stroke:#181818;stroke-width:0.5;" width="174.3652" x="399.07" y="279.89"/><ellipse cx="414.07" cy="295.89" fill="#ADD1B2" rx="11" ry="11" style="stroke:#181818;stroke-width:1;"/><path d="M417.6843,302.39 L409.9645,302.39 L409.9645,289.9969 L417.6843,289.9969 L417.6843,292.1551 L412.4133,292.1551 L412.4133,294.828 L417.1862,294.828 L417.1862,296.9862 L412.4133,296.9862 L412.4133,300.2318 L417.6843,300.2318 Z " fill="#000000"/><text fill="#000000" font-family="sans-serif" font-size="14" lengthAdjust="spacing" textLength="142.3652" x="428.07" y="301.181">workspace_members</text><line style="stroke:#181818;stroke-width:0.5;" x1="400.07" x2="572.4352" y1="311.89" y2="311.89"/><ellipse cx="410.07" cy="325.6341" fill="#000000" rx="3" ry="3" style="stroke:#000000;stroke-width:1;"/><text fill="#000000" font-family="sans-serif" font-size="14" lengthAdjust="spacing" textLength="91.8066" x="419.07" y="329.4252">workspace_id</text><ellipse cx="410.07" cy="342.1224" fill="#000000" rx="3" ry="3" style="stroke:#000000;stroke-width:1;"/><text fill="#000000" font-family="sans-serif" font-size="14" lengthAdjust="spacing" textLength="76.1387" x="419.07" y="345.9134">member_id</text><ellipse cx="410.07" cy="358.6107" fill="#000000" rx="3" ry="3" style="stroke:#000000;stroke-width:1;"/><text fill="#000000" font-family="sans-serif" font-size="14" lengthAdjust="spacing" textLength="46.0332" x="419.07" y="362.4017">role_id</text><line style="stroke:#181818;stroke-width:0.5;" x1="400.07" x2="572.4352" y1="369.3548" y2="369.3548"/></g><!--class roles--><g class="entity" data-entity="roles" data-source-line="28" data-uid="ent0005" id="entity_roles"><rect fill="#F1F1F1" height="80.9766" rx="2.5" ry="2.5" style="stroke:#181818;stroke-width:0.5;" width="88.3369" x="608.09" y="288.13"/><ellipse cx="633.4514" cy="304.13" fill="#ADD1B2" rx="11" ry="11" style="stroke:#181818;stroke-width:1;"/><path d="M637.0657,310.63 L629.346,310.63 L629.346,298.2369 L637.0657,298.2369 L637.0657,300.3951 L631.7947,300.3951 L631.7947,303.068 L636.5676,303.068 L636.5676,305.2262 L631.7947,305.2262 L631.7947,308.4718 L637.0657,308.4718 Z " fill="#000000"/><text fill="#000000" font-family="sans-serif" font-size="14" lengthAdjust="spacing" textLength="33.3115" x="649.754" y="309.421">roles</text><line style="stroke:#181818;stroke-width:0.5;" x1="609.09" x2="695.4269" y1="320.13" y2="320.13"/><ellipse cx="619.09" cy="333.8741" fill="#000000" rx="3" ry="3" style="stroke:#000000;stroke-width:1;"/><text fill="#000000" font-family="sans-serif" font-size="14" lengthAdjust="spacing" textLength="12.8584" x="628.09" y="337.6652">id</text><ellipse cx="619.09" cy="350.3624" fill="#000000" rx="3" ry="3" style="stroke:#000000;stroke-width:1;"/><text fill="#000000" font-family="sans-serif" font-size="14" lengthAdjust="spacing" textLength="62.3369" x="628.09" y="354.1534">role_type</text><line style="stroke:#181818;stroke-width:0.5;" x1="609.09" x2="695.4269" y1="361.1066" y2="361.1066"/></g><!--class functions--><g class="entity" data-entity="functions" data-source-line="33" data-uid="ent0006" id="entity_functions"><rect fill="#F1F1F1" height="97.4648" rx="2.5" ry="2.5" style="stroke:#181818;stroke-width:0.5;" width="95.4033" x="751.55" y="470.33"/><ellipse cx="766.55" cy="486.33" fill="#ADD1B2" rx="11" ry="11" style="stroke:#181818;stroke-width:1;"/><path d="M770.1643,492.83 L762.4445,492.83 L762.4445,480.4369 L770.1643,480.4369 L770.1643,482.5951 L764.8933,482.5951 L764.8933,485.268 L769.6662,485.268 L769.6662,487.4262 L764.8933,487.4262 L764.8933,490.6718 L770.1643,490.6718 Z " fill="#000000"/><text fill="#000000" font-family="sans-serif" font-size="14" lengthAdjust="spacing" textLength="63.4033" x="780.55" y="491.621">functions</text><line style="stroke:#181818;stroke-width:0.5;" x1="752.55" x2="845.9533" y1="502.33" y2="502.33"/><ellipse cx="762.55" cy="516.0741" fill="#000000" rx="3" ry="3" style="stroke:#000000;stroke-width:1;"/><text fill="#000000" font-family="sans-serif" font-size="14" lengthAdjust="spacing" textLength="12.8584" x="771.55" y="519.8652">id</text><ellipse cx="762.55" cy="532.5624" fill="#000000" rx="3" ry="3" style="stroke:#000000;stroke-width:1;"/><text fill="#000000" font-family="sans-serif" font-size="14" lengthAdjust="spacing" textLength="58.6523" x="771.55" y="536.3534">resource</text><ellipse cx="762.55" cy="549.0507" fill="#000000" rx="3" ry="3" style="stroke:#000000;stroke-width:1;"/><text fill="#000000" font-family="sans-serif" font-size="14" lengthAdjust="spacing" textLength="41.4736" x="771.55" y="552.8417">action</text><line style="stroke:#181818;stroke-width:0.5;" x1="752.55" x2="845.9533" y1="559.7948" y2="559.7948"/></g><!--class role_functions--><g class="entity" data-entity="role_functions" data-source-line="39" data-uid="ent0007" id="entity_role_functions"><rect fill="#F1F1F1" height="97.4648" rx="2.5" ry="2.5" style="stroke:#181818;stroke-width:0.5;" width="128.5781" x="587.97" y="470.33"/><ellipse cx="602.97" cy="486.33" fill="#ADD1B2" rx="11" ry="11" style="stroke:#181818;stroke-width:1;"/><path d="M606.5843,492.83 L598.8645,492.83 L598.8645,480.4369 L606.5843,480.4369 L606.5843,482.5951 L601.3133,482.5951 L601.3133,485.268 L606.0862,485.268 L606.0862,487.4262 L601.3133,487.4262 L601.3133,490.6718 L606.5843,490.6718 Z " fill="#000000"/><text fill="#000000" font-family="sans-serif" font-size="14" lengthAdjust="spacing" textLength="96.5781" x="616.97" y="491.621">role_functions</text><line style="stroke:#181818;stroke-width:0.5;" x1="588.97" x2="715.5481" y1="502.33" y2="502.33"/><ellipse cx="598.97" cy="516.0741" fill="#000000" rx="3" ry="3" style="stroke:#000000;stroke-width:1;"/><text fill="#000000" font-family="sans-serif" font-size="14" lengthAdjust="spacing" textLength="12.8584" x="607.97" y="519.8652">id</text><ellipse cx="598.97" cy="532.5624" fill="#000000" rx="3" ry="3" style="stroke:#000000;stroke-width:1;"/><text fill="#000000" font-family="sans-serif" font-size="14" lengthAdjust="spacing" textLength="46.0332" x="607.97" y="536.3534">role_id</text><ellipse cx="598.97" cy="549.0507" fill="#000000" rx="3" ry="3" style="stroke:#000000;stroke-width:1;"/><text fill="#000000" font-family="sans-serif" font-size="14" lengthAdjust="spacing" textLength="76.125" x="607.97" y="552.8417">function_id</text><line style="stroke:#181818;stroke-width:0.5;" x1="588.97" x2="715.5481" y1="559.7948" y2="559.7948"/></g><!--class data_sources--><g class="entity" data-entity="data_sources" data-source-line="45" data-uid="ent0008" id="entity_data_sources"><rect fill="#F1F1F1" height="163.418" rx="2.5" ry="2.5" style="stroke:#181818;stroke-width:0.5;" width="121.3818" x="65.56" y="246.91"/><ellipse cx="80.8347" cy="262.91" fill="#ADD1B2" rx="11" ry="11" style="stroke:#181818;stroke-width:1;"/><path d="M84.4489,269.41 L76.7292,269.41 L76.7292,257.0169 L84.4489,257.0169 L84.4489,259.1751 L79.1779,259.1751 L79.1779,261.848 L83.9509,261.848 L83.9509,264.0062 L79.1779,264.0062 L79.1779,267.2518 L84.4489,267.2518 Z " fill="#000000"/><text fill="#000000" font-family="sans-serif" font-size="14" lengthAdjust="spacing" textLength="88.7715" x="94.8957" y="268.201">data_sources</text><line style="stroke:#181818;stroke-width:0.5;" x1="66.56" x2="185.9418" y1="278.91" y2="278.91"/><ellipse cx="76.56" cy="292.6541" fill="#000000" rx="3" ry="3" style="stroke:#000000;stroke-width:1;"/><text fill="#000000" font-family="sans-serif" font-size="14" lengthAdjust="spacing" textLength="12.8584" x="85.56" y="296.4452">id</text><ellipse cx="76.56" cy="309.1424" fill="#000000" rx="3" ry="3" style="stroke:#000000;stroke-width:1;"/><text fill="#000000" font-family="sans-serif" font-size="14" lengthAdjust="spacing" textLength="37.29" x="85.56" y="312.9334">name</text><ellipse cx="76.56" cy="325.6307" fill="#000000" rx="3" ry="3" style="stroke:#000000;stroke-width:1;"/><text fill="#000000" font-family="sans-serif" font-size="14" lengthAdjust="spacing" textLength="18.4639" x="85.56" y="329.4217">url</text><ellipse cx="76.56" cy="342.119" fill="#000000" rx="3" ry="3" style="stroke:#000000;stroke-width:1;"/><text fill="#000000" font-family="sans-serif" font-size="14" lengthAdjust="spacing" textLength="66.6436" x="85.56" y="345.91">username</text><ellipse cx="76.56" cy="358.6073" fill="#000000" rx="3" ry="3" style="stroke:#000000;stroke-width:1;"/><text fill="#000000" font-family="sans-serif" font-size="14" lengthAdjust="spacing" textLength="64.7432" x="85.56" y="362.3983">password</text><ellipse cx="76.56" cy="375.0955" fill="#000000" rx="3" ry="3" style="stroke:#000000;stroke-width:1;"/><text fill="#000000" font-family="sans-serif" font-size="14" lengthAdjust="spacing" textLength="95.3818" x="85.56" y="378.8866">driver_type_id</text><ellipse cx="76.56" cy="391.5838" fill="#000000" rx="3" ry="3" style="stroke:#000000;stroke-width:1;"/><text fill="#000000" font-family="sans-serif" font-size="14" lengthAdjust="spacing" textLength="91.8066" x="85.56" y="395.3748">workspace_id</text><line style="stroke:#181818;stroke-width:0.5;" x1="66.56" x2="185.9418" y1="402.328" y2="402.328"/></g><!--class driver_types--><g class="entity" data-entity="driver_types" data-source-line="55" data-uid="ent0009" id="entity_driver_types"><rect fill="#F1F1F1" height="97.4648" rx="2.5" ry="2.5" style="stroke:#181818;stroke-width:0.5;" width="141.6367" x="55.44" y="48.22"/><ellipse cx="82.5795" cy="64.22" fill="#ADD1B2" rx="11" ry="11" style="stroke:#181818;stroke-width:1;"/><path d="M86.1937,70.72 L78.474,70.72 L78.474,58.3269 L86.1937,58.3269 L86.1937,60.4851 L80.9227,60.4851 L80.9227,63.158 L85.6957,63.158 L85.6957,65.3162 L80.9227,65.3162 L80.9227,68.5618 L86.1937,68.5618 Z " fill="#000000"/><text fill="#000000" font-family="sans-serif" font-size="14" lengthAdjust="spacing" textLength="82.6602" x="99.2771" y="69.511">driver_types</text><line style="stroke:#181818;stroke-width:0.5;" x1="56.44" x2="196.0767" y1="80.22" y2="80.22"/><ellipse cx="66.44" cy="93.9641" fill="#000000" rx="3" ry="3" style="stroke:#000000;stroke-width:1;"/><text fill="#000000" font-family="sans-serif" font-size="14" lengthAdjust="spacing" textLength="12.8584" x="75.44" y="97.7552">id</text><ellipse cx="66.44" cy="110.4524" fill="#000000" rx="3" ry="3" style="stroke:#000000;stroke-width:1;"/><text fill="#000000" font-family="sans-serif" font-size="14" lengthAdjust="spacing" textLength="37.29" x="75.44" y="114.2434">name</text><ellipse cx="66.44" cy="126.9407" fill="#000000" rx="3" ry="3" style="stroke:#000000;stroke-width:1;"/><text fill="#000000" font-family="sans-serif" font-size="14" lengthAdjust="spacing" textLength="115.6367" x="75.44" y="130.7317">jdbc_driver_class</text><line style="stroke:#181818;stroke-width:0.5;" x1="56.44" x2="196.0767" y1="137.6848" y2="137.6848"/></g><!--class reports--><g class="entity" data-entity="reports" data-source-line="61" data-uid="ent0010" id="entity_reports"><rect fill="#F1F1F1" height="130.4414" rx="2.5" ry="2.5" style="stroke:#181818;stroke-width:0.5;" width="154.4951" x="115.01" y="834.72"/><ellipse cx="163.4871" cy="850.72" fill="#ADD1B2" rx="11" ry="11" style="stroke:#181818;stroke-width:1;"/><path d="M167.1013,857.22 L159.3816,857.22 L159.3816,844.8269 L167.1013,844.8269 L167.1013,846.9851 L161.8303,846.9851 L161.8303,849.658 L166.6033,849.658 L166.6033,851.8162 L161.8303,851.8162 L161.8303,855.0618 L167.1013,855.0618 Z " fill="#000000"/><text fill="#000000" font-family="sans-serif" font-size="14" lengthAdjust="spacing" textLength="49.041" x="183.9871" y="856.011">reports</text><line style="stroke:#181818;stroke-width:0.5;" x1="116.01" x2="268.5051" y1="866.72" y2="866.72"/><ellipse cx="126.01" cy="880.4641" fill="#000000" rx="3" ry="3" style="stroke:#000000;stroke-width:1;"/><text fill="#000000" font-family="sans-serif" font-size="14" lengthAdjust="spacing" textLength="12.8584" x="135.01" y="884.2552">id</text><ellipse cx="126.01" cy="896.9524" fill="#000000" rx="3" ry="3" style="stroke:#000000;stroke-width:1;"/><text fill="#000000" font-family="sans-serif" font-size="14" lengthAdjust="spacing" textLength="91.8066" x="135.01" y="900.7434">workspace_id</text><ellipse cx="126.01" cy="913.4407" fill="#000000" rx="3" ry="3" style="stroke:#000000;stroke-width:1;"/><text fill="#000000" font-family="sans-serif" font-size="14" lengthAdjust="spacing" textLength="37.29" x="135.01" y="917.2317">name</text><ellipse cx="126.01" cy="929.929" fill="#000000" rx="3" ry="3" style="stroke:#000000;stroke-width:1;"/><text fill="#000000" font-family="sans-serif" font-size="14" lengthAdjust="spacing" textLength="128.4951" x="135.01" y="933.72">report_template_id</text><ellipse cx="126.01" cy="946.4173" fill="#000000" rx="3" ry="3" style="stroke:#000000;stroke-width:1;"/><text fill="#000000" font-family="sans-serif" font-size="14" lengthAdjust="spacing" textLength="101.4932" x="135.01" y="950.2083">data_source_id</text><line style="stroke:#181818;stroke-width:0.5;" x1="116.01" x2="268.5051" y1="957.1614" y2="957.1614"/></g><!--class report_templates--><g class="entity" data-entity="report_templates" data-source-line="69" data-uid="ent0011" id="entity_report_templates"><rect fill="#F1F1F1" height="179.9063" rx="2.5" ry="2.5" style="stroke:#181818;stroke-width:0.5;" width="187.5332" x="356.49" y="1025.16"/><ellipse cx="389.3819" cy="1041.16" fill="#ADD1B2" rx="11" ry="11" style="stroke:#181818;stroke-width:1;"/><path d="M392.9962,1047.66 L385.2764,1047.66 L385.2764,1035.2669 L392.9962,1035.2669 L392.9962,1037.4251 L387.7252,1037.4251 L387.7252,1040.098 L392.4981,1040.098 L392.4981,1042.2562 L387.7252,1042.2562 L387.7252,1045.5018 L392.9962,1045.5018 Z " fill="#000000"/><text fill="#000000" font-family="sans-serif" font-size="14" lengthAdjust="spacing" textLength="115.7734" x="407.3579" y="1046.451">report_templates</text><line style="stroke:#181818;stroke-width:0.5;" x1="357.49" x2="543.0232" y1="1057.16" y2="1057.16"/><ellipse cx="367.49" cy="1070.9041" fill="#000000" rx="3" ry="3" style="stroke:#000000;stroke-width:1;"/><text fill="#000000" font-family="sans-serif" font-size="14" lengthAdjust="spacing" textLength="12.8584" x="376.49" y="1074.6952">id</text><ellipse cx="367.49" cy="1087.3924" fill="#000000" rx="3" ry="3" style="stroke:#000000;stroke-width:1;"/><text fill="#000000" font-family="sans-serif" font-size="14" lengthAdjust="spacing" textLength="91.8066" x="376.49" y="1091.1834">workspace_id</text><ellipse cx="367.49" cy="1103.8807" fill="#000000" rx="3" ry="3" style="stroke:#000000;stroke-width:1;"/><text fill="#000000" font-family="sans-serif" font-size="14" lengthAdjust="spacing" textLength="70.8203" x="376.49" y="1107.6717">storage_id</text><ellipse cx="367.49" cy="1120.369" fill="#000000" rx="3" ry="3" style="stroke:#000000;stroke-width:1;"/><text fill="#000000" font-family="sans-serif" font-size="14" lengthAdjust="spacing" textLength="37.29" x="376.49" y="1124.16">name</text><ellipse cx="367.49" cy="1136.8573" fill="#000000" rx="3" ry="3" style="stroke:#000000;stroke-width:1;"/><text fill="#000000" font-family="sans-serif" font-size="14" lengthAdjust="spacing" textLength="58.5088" x="376.49" y="1140.6483">file_path</text><ellipse cx="367.49" cy="1153.3455" fill="#000000" rx="3" ry="3" style="stroke:#000000;stroke-width:1;"/><text fill="#000000" font-family="sans-serif" font-size="14" lengthAdjust="spacing" textLength="161.5332" x="376.49" y="1157.1366">storage_type: [local, s3]</text><ellipse cx="367.49" cy="1169.8338" fill="#000000" rx="3" ry="3" style="stroke:#000000;stroke-width:1;"/><text fill="#000000" font-family="sans-serif" font-size="14" lengthAdjust="spacing" textLength="55.0498" x="376.49" y="1173.6248">file_size</text><ellipse cx="367.49" cy="1186.3221" fill="#000000" rx="3" ry="3" style="stroke:#000000;stroke-width:1;"/><text fill="#000000" font-family="sans-serif" font-size="14" lengthAdjust="spacing" textLength="49.7314" x="376.49" y="1190.1131">is_seed</text><line style="stroke:#181818;stroke-width:0.5;" x1="357.49" x2="543.0232" y1="1197.0663" y2="1197.0663"/></g><!--class report_parameters--><g class="entity" data-entity="report_parameters" data-source-line="80" data-uid="ent0012" id="entity_report_parameters"><rect fill="#F1F1F1" height="130.4414" rx="2.5" ry="2.5" style="stroke:#181818;stroke-width:0.5;" width="370.5107" x="7" y="1265.07"/><ellipse cx="125.166" cy="1281.07" fill="#ADD1B2" rx="11" ry="11" style="stroke:#181818;stroke-width:1;"/><path d="M128.7803,1287.57 L121.0605,1287.57 L121.0605,1275.1769 L128.7803,1275.1769 L128.7803,1277.3351 L123.5093,1277.3351 L123.5093,1280.008 L128.2822,1280.008 L128.2822,1282.1662 L123.5093,1282.1662 L123.5093,1285.4118 L128.7803,1285.4118 Z " fill="#000000"/><text fill="#000000" font-family="sans-serif" font-size="14" lengthAdjust="spacing" textLength="125.6787" x="145.666" y="1286.361">report_parameters</text><line style="stroke:#181818;stroke-width:0.5;" x1="8" x2="376.5107" y1="1297.07" y2="1297.07"/><ellipse cx="18" cy="1310.8141" fill="#000000" rx="3" ry="3" style="stroke:#000000;stroke-width:1;"/><text fill="#000000" font-family="sans-serif" font-size="14" lengthAdjust="spacing" textLength="12.8584" x="27" y="1314.6052">id</text><ellipse cx="18" cy="1327.3024" fill="#000000" rx="3" ry="3" style="stroke:#000000;stroke-width:1;"/><text fill="#000000" font-family="sans-serif" font-size="14" lengthAdjust="spacing" textLength="91.8066" x="27" y="1331.0934">workspace_id</text><ellipse cx="18" cy="1343.7907" fill="#000000" rx="3" ry="3" style="stroke:#000000;stroke-width:1;"/><text fill="#000000" font-family="sans-serif" font-size="14" lengthAdjust="spacing" textLength="344.5107" x="27" y="1347.5817">parameter_type: [embedded_function, fixed_value]</text><text fill="#000000" font-family="sans-serif" font-size="14" lengthAdjust="spacing" textLength="171.1445" x="27" y="1364.07">embedded_function_type</text><text fill="#000000" font-family="sans-serif" font-size="14" lengthAdjust="spacing" textLength="35.5127" x="27" y="1380.5583">value</text><line style="stroke:#181818;stroke-width:0.5;" x1="8" x2="376.5107" y1="1387.5114" y2="1387.5114"/></g><!--class report_report_parameters--><g class="entity" data-entity="report_report_parameters" data-source-line="88" data-uid="ent0013" id="entity_report_report_parameters"><rect fill="#F1F1F1" height="97.4648" rx="2.5" ry="2.5" style="stroke:#181818;stroke-width:0.5;" width="206.583" x="88.96" y="1066.38"/><ellipse cx="103.96" cy="1082.38" fill="#ADD1B2" rx="11" ry="11" style="stroke:#181818;stroke-width:1;"/><path d="M107.5743,1088.88 L99.8545,1088.88 L99.8545,1076.4869 L107.5743,1076.4869 L107.5743,1078.6451 L102.3033,1078.6451 L102.3033,1081.318 L107.0762,1081.318 L107.0762,1083.4762 L102.3033,1083.4762 L102.3033,1086.7218 L107.5743,1086.7218 Z " fill="#000000"/><text fill="#000000" font-family="sans-serif" font-size="14" lengthAdjust="spacing" textLength="174.583" x="117.96" y="1087.671">report_report_parameters</text><line style="stroke:#181818;stroke-width:0.5;" x1="89.96" x2="294.543" y1="1098.38" y2="1098.38"/><ellipse cx="99.96" cy="1112.1241" fill="#000000" rx="3" ry="3" style="stroke:#000000;stroke-width:1;"/><text fill="#000000" font-family="sans-serif" font-size="14" lengthAdjust="spacing" textLength="12.8584" x="108.96" y="1115.9152">id</text><ellipse cx="99.96" cy="1128.6124" fill="#000000" rx="3" ry="3" style="stroke:#000000;stroke-width:1;"/><text fill="#000000" font-family="sans-serif" font-size="14" lengthAdjust="spacing" textLength="61.7627" x="108.96" y="1132.4034">report_id</text><ellipse cx="99.96" cy="1145.1007" fill="#000000" rx="3" ry="3" style="stroke:#000000;stroke-width:1;"/><text fill="#000000" font-family="sans-serif" font-size="14" lengthAdjust="spacing" textLength="138.4004" x="108.96" y="1148.8917">report_parameter_id</text><line style="stroke:#181818;stroke-width:0.5;" x1="89.96" x2="294.543" y1="1155.8448" y2="1155.8448"/></g><!--class report_groups--><g class="entity" data-entity="report_groups" data-source-line="94" data-uid="ent0014" id="entity_report_groups"><rect fill="#F1F1F1" height="97.4648" rx="2.5" ry="2.5" style="stroke:#181818;stroke-width:0.5;" width="128.5986" x="243.96" y="470.33"/><ellipse cx="258.96" cy="486.33" fill="#ADD1B2" rx="11" ry="11" style="stroke:#181818;stroke-width:1;"/><path d="M262.5743,492.83 L254.8545,492.83 L254.8545,480.4369 L262.5743,480.4369 L262.5743,482.5951 L257.3033,482.5951 L257.3033,485.268 L262.0762,485.268 L262.0762,487.4262 L257.3033,487.4262 L257.3033,490.6718 L262.5743,490.6718 Z " fill="#000000"/><text fill="#000000" font-family="sans-serif" font-size="14" lengthAdjust="spacing" textLength="96.5986" x="272.96" y="491.621">report_groups</text><line style="stroke:#181818;stroke-width:0.5;" x1="244.96" x2="371.5586" y1="502.33" y2="502.33"/><ellipse cx="254.96" cy="516.0741" fill="#000000" rx="3" ry="3" style="stroke:#000000;stroke-width:1;"/><text fill="#000000" font-family="sans-serif" font-size="14" lengthAdjust="spacing" textLength="12.8584" x="263.96" y="519.8652">id</text><ellipse cx="254.96" cy="532.5624" fill="#000000" rx="3" ry="3" style="stroke:#000000;stroke-width:1;"/><text fill="#000000" font-family="sans-serif" font-size="14" lengthAdjust="spacing" textLength="91.8066" x="263.96" y="536.3534">workspace_id</text><ellipse cx="254.96" cy="549.0507" fill="#000000" rx="3" ry="3" style="stroke:#000000;stroke-width:1;"/><text fill="#000000" font-family="sans-serif" font-size="14" lengthAdjust="spacing" textLength="37.29" x="263.96" y="552.8417">name</text><line style="stroke:#181818;stroke-width:0.5;" x1="244.96" x2="371.5586" y1="559.7948" y2="559.7948"/></g><!--class report_group_reports--><g class="entity" data-entity="report_group_reports" data-source-line="100" data-uid="ent0015" id="entity_report_group_reports"><rect fill="#F1F1F1" height="97.4648" rx="2.5" ry="2.5" style="stroke:#181818;stroke-width:0.5;" width="177.5029" x="219.5" y="652.52"/><ellipse cx="234.5" cy="668.52" fill="#ADD1B2" rx="11" ry="11" style="stroke:#181818;stroke-width:1;"/><path d="M238.1143,675.02 L230.3945,675.02 L230.3945,662.6269 L238.1143,662.6269 L238.1143,664.7851 L232.8433,664.7851 L232.8433,667.458 L237.6162,667.458 L237.6162,669.6162 L232.8433,669.6162 L232.8433,672.8618 L238.1143,672.8618 Z " fill="#000000"/><text fill="#000000" font-family="sans-serif" font-size="14" lengthAdjust="spacing" textLength="145.5029" x="248.5" y="673.811">report_group_reports</text><line style="stroke:#181818;stroke-width:0.5;" x1="220.5" x2="396.0029" y1="684.52" y2="684.52"/><ellipse cx="230.5" cy="698.2641" fill="#000000" rx="3" ry="3" style="stroke:#000000;stroke-width:1;"/><text fill="#000000" font-family="sans-serif" font-size="14" lengthAdjust="spacing" textLength="12.8584" x="239.5" y="702.0552">id</text><ellipse cx="230.5" cy="714.7524" fill="#000000" rx="3" ry="3" style="stroke:#000000;stroke-width:1;"/><text fill="#000000" font-family="sans-serif" font-size="14" lengthAdjust="spacing" textLength="109.3203" x="239.5" y="718.5434">report_group_id</text><ellipse cx="230.5" cy="731.2407" fill="#000000" rx="3" ry="3" style="stroke:#000000;stroke-width:1;"/><text fill="#000000" font-family="sans-serif" font-size="14" lengthAdjust="spacing" textLength="61.7627" x="239.5" y="735.0317">report_id</text><line style="stroke:#181818;stroke-width:0.5;" x1="220.5" x2="396.0029" y1="741.9848" y2="741.9848"/></g><!--class storage_s3s--><g class="entity" data-entity="storage_s3s" data-source-line="106" data-uid="ent0016" id="entity_storage_s3s"><rect fill="#F1F1F1" height="146.9297" rx="2.5" ry="2.5" style="stroke:#181818;stroke-width:0.5;" width="180.9707" x="502.77" y="627.79"/><ellipse cx="548.4614" cy="643.79" fill="#ADD1B2" rx="11" ry="11" style="stroke:#181818;stroke-width:1;"/><path d="M552.0757,650.29 L544.3559,650.29 L544.3559,637.8969 L552.0757,637.8969 L552.0757,640.0551 L546.8047,640.0551 L546.8047,642.728 L551.5776,642.728 L551.5776,644.8862 L546.8047,644.8862 L546.8047,648.1318 L552.0757,648.1318 Z " fill="#000000"/><text fill="#000000" font-family="sans-serif" font-size="14" lengthAdjust="spacing" textLength="81.0879" x="568.9614" y="649.081">storage_s3s</text><line style="stroke:#181818;stroke-width:0.5;" x1="503.77" x2="682.7407" y1="659.79" y2="659.79"/><ellipse cx="513.77" cy="673.5341" fill="#000000" rx="3" ry="3" style="stroke:#000000;stroke-width:1;"/><text fill="#000000" font-family="sans-serif" font-size="14" lengthAdjust="spacing" textLength="12.8584" x="522.77" y="677.3252">id</text><ellipse cx="513.77" cy="690.0224" fill="#000000" rx="3" ry="3" style="stroke:#000000;stroke-width:1;"/><text fill="#000000" font-family="sans-serif" font-size="14" lengthAdjust="spacing" textLength="91.8066" x="522.77" y="693.8134">workspace_id</text><ellipse cx="513.77" cy="706.5107" fill="#000000" rx="3" ry="3" style="stroke:#000000;stroke-width:1;"/><text fill="#000000" font-family="sans-serif" font-size="14" lengthAdjust="spacing" textLength="126.957" x="522.77" y="710.3017">aws_access_key_id</text><ellipse cx="513.77" cy="722.999" fill="#000000" rx="3" ry="3" style="stroke:#000000;stroke-width:1;"/><text fill="#000000" font-family="sans-serif" font-size="14" lengthAdjust="spacing" textLength="154.9707" x="522.77" y="726.79">aws_secret_access_key</text><ellipse cx="513.77" cy="739.4873" fill="#000000" rx="3" ry="3" style="stroke:#000000;stroke-width:1;"/><text fill="#000000" font-family="sans-serif" font-size="14" lengthAdjust="spacing" textLength="76.248" x="522.77" y="743.2783">aws_region</text><ellipse cx="513.77" cy="755.9755" fill="#000000" rx="3" ry="3" style="stroke:#000000;stroke-width:1;"/><text fill="#000000" font-family="sans-serif" font-size="14" lengthAdjust="spacing" textLength="113.1689" x="522.77" y="759.7666">s3_bucket_name</text><line style="stroke:#181818;stroke-width:0.5;" x1="503.77" x2="682.7407" y1="766.7197" y2="766.7197"/></g><!--link workspaces to workspace_members--><g class="link" data-entity-1="workspaces" data-entity-2="workspace_members" data-source-line="115" data-uid="lnk17" id="link_workspaces_workspace_members"><path codeLine="115" d="M364.23,328.62 C375.83,328.62 379.43,328.62 391.02,328.62" fill="none" id="workspaces-to-workspace_members" style="stroke:#181818;stroke-width:1;"/><line style="stroke:#181818;stroke-width:1;" x1="391.02" x2="399.02" y1="328.62" y2="320.62"/><line style="stroke:#181818;stroke-width:1;" x1="391.02" x2="399.02" y1="328.62" y2="336.62"/><line style="stroke:#181818;stroke-width:1;" x1="391.02" x2="399.02" y1="328.62" y2="328.62"/></g><!--link members to workspace_members--><g class="link" data-entity-1="members" data-entity-2="workspace_members" data-source-line="116" data-uid="lnk19" id="link_members_workspace_members"><path codeLine="116" d="M486.26,187.41 C486.26,218.77 486.26,244.79 486.26,271.46" fill="none" id="members-to-workspace_members" style="stroke:#181818;stroke-width:1;"/><line style="stroke:#181818;stroke-width:1;" x1="486.26" x2="494.26" y1="271.46" y2="279.46"/><line style="stroke:#181818;stroke-width:1;" x1="486.26" x2="478.26" y1="271.46" y2="279.46"/><line style="stroke:#181818;stroke-width:1;" x1="486.26" x2="486.26" y1="271.46" y2="279.46"/></g><!--link workspace_members to roles--><g class="link" data-entity-1="workspace_members" data-entity-2="roles" data-source-line="117" data-uid="lnk20" id="link_workspace_members_roles"><path codeLine="117" d="M581.79,328.62 C593.13,328.62 588.47,328.62 599.81,328.62" fill="none" id="workspace_members-roles" style="stroke:#181818;stroke-width:1;"/><line style="stroke:#181818;stroke-width:1;" x1="581.79" x2="573.79" y1="328.62" y2="336.62"/><line style="stroke:#181818;stroke-width:1;" x1="581.79" x2="573.79" y1="328.62" y2="320.62"/><line style="stroke:#181818;stroke-width:1;" x1="581.79" x2="573.79" y1="328.62" y2="328.62"/><line style="stroke:#181818;stroke-width:1;" x1="599.81" x2="607.81" y1="328.62" y2="320.62"/><line style="stroke:#181818;stroke-width:1;" x1="599.81" x2="607.81" y1="328.62" y2="336.62"/><line style="stroke:#181818;stroke-width:1;" x1="599.81" x2="607.81" y1="328.62" y2="328.62"/></g><!--link roles to role_functions--><g class="link" data-entity-1="roles" data-entity-2="role_functions" data-source-line="118" data-uid="lnk21" id="link_roles_role_functions"><path codeLine="118" d="M652.26,369.58 C652.26,398.97 652.26,431.04 652.26,462.14" fill="none" id="roles-to-role_functions" style="stroke:#181818;stroke-width:1;"/><line style="stroke:#181818;stroke-width:1;" x1="652.26" x2="660.26" y1="462.14" y2="470.14"/><line style="stroke:#181818;stroke-width:1;" x1="652.26" x2="644.26" y1="462.14" y2="470.14"/><line style="stroke:#181818;stroke-width:1;" x1="652.26" x2="652.26" y1="462.14" y2="470.14"/></g><!--link role_functions to functions--><g class="link" data-entity-1="role_functions" data-entity-2="functions" data-source-line="119" data-uid="lnk22" id="link_role_functions_functions"><path codeLine="119" d="M716.85,519.06 C728.34,519.06 731.82,519.06 743.3,519.06" fill="none" id="role_functions-to-functions" style="stroke:#181818;stroke-width:1;"/><line style="stroke:#181818;stroke-width:1;" x1="743.3" x2="751.3" y1="519.06" y2="511.06"/><line style="stroke:#181818;stroke-width:1;" x1="743.3" x2="751.3" y1="519.06" y2="527.06"/><line style="stroke:#181818;stroke-width:1;" x1="743.3" x2="751.3" y1="519.06" y2="519.06"/></g><!--reverse link data_sources to workspaces--><g class="link" data-entity-1="data_sources" data-entity-2="workspaces" data-source-line="120" data-uid="lnk24" id="link_data_sources_workspaces"><path codeLine="120" d="M195.4,328.62 C217.11,328.62 230.83,328.62 252.55,328.62" fill="none" id="data_sources-backto-workspaces" style="stroke:#181818;stroke-width:1;"/><line style="stroke:#181818;stroke-width:1;" x1="195.4" x2="187.4" y1="328.62" y2="336.62"/><line style="stroke:#181818;stroke-width:1;" x1="195.4" x2="187.4" y1="328.62" y2="320.62"/><line style="stroke:#181818;stroke-width:1;" x1="195.4" x2="187.4" y1="328.62" y2="328.62"/></g><!--link workspaces to reports--><g class="link" data-entity-1="workspaces" data-entity-2="reports" data-source-line="121" data-uid="lnk25" id="link_workspaces_reports"><path codeLine="121" d="M258.94,402.29 C246.54,423.45 234.45,447.13 226.26,470.33 C182.76,593.5 182.4293,740.5805 186.8393,826.3705" fill="none" id="workspaces-to-reports" style="stroke:#181818;stroke-width:1;"/><line style="stroke:#181818;stroke-width:1;" x1="186.8393" x2="195.2395" y1="826.3705" y2="834.36"/><line style="stroke:#181818;stroke-width:1;" x1="186.8393" x2="179.2605" y1="826.3705" y2="834.36"/><line style="stroke:#181818;stroke-width:1;" x1="186.8393" x2="187.25" y1="826.3705" y2="834.36"/></g><!--link workspaces to report_templates--><g class="link" data-entity-1="workspaces" data-entity-2="report_templates" data-source-line="122" data-uid="lnk26" id="link_workspaces_report_templates"><path codeLine="122" d="M357.57,402.29 C369.97,423.45 382.06,447.13 390.26,470.33 C456.97,659.26 460.0962,889.7248 455.7062,1016.7848" fill="none" id="workspaces-to-report_templates" style="stroke:#181818;stroke-width:1;"/><line style="stroke:#181818;stroke-width:1;" x1="455.7062" x2="463.4252" y1="1016.7848" y2="1024.78"/><line style="stroke:#181818;stroke-width:1;" x1="455.7062" x2="447.4348" y1="1016.7848" y2="1024.78"/><line style="stroke:#181818;stroke-width:1;" x1="455.7062" x2="455.43" y1="1016.7848" y2="1024.78"/></g><!--link workspaces to report_groups--><g class="link" data-entity-1="workspaces" data-entity-2="report_groups" data-source-line="123" data-uid="lnk27" id="link_workspaces_report_groups"><path codeLine="123" d="M308.26,402.47 C308.26,425.05 308.26,441.36 308.26,461.83" fill="none" id="workspaces-to-report_groups" style="stroke:#181818;stroke-width:1;"/><line style="stroke:#181818;stroke-width:1;" x1="308.26" x2="316.26" y1="461.83" y2="469.83"/><line style="stroke:#181818;stroke-width:1;" x1="308.26" x2="300.26" y1="461.83" y2="469.83"/><line style="stroke:#181818;stroke-width:1;" x1="308.26" x2="308.26" y1="461.83" y2="469.83"/></g><!--reverse link reports to report_templates--><g class="link" data-entity-1="reports" data-entity-2="report_templates" data-source-line="124" data-uid="lnk28" id="link_reports_report_templates"><path codeLine="124" d="M275.8282,969.9944 C302.9982,992.4344 327.64,1012.81 356.03,1036.26" fill="none" id="reports-backto-report_templates" style="stroke:#181818;stroke-width:1;"/><line style="stroke:#181818;stroke-width:1;" x1="275.8282" x2="269.66" y1="969.9944" y2="971.0682"/><line style="stroke:#181818;stroke-width:1;" x1="275.8282" x2="269.66" y1="969.9944" y2="958.7318"/><line style="stroke:#181818;stroke-width:1;" x1="275.8282" x2="269.66" y1="969.9944" y2="964.9"/></g><!--link report_groups to report_group_reports--><g class="link" data-entity-1="report_groups" data-entity-2="report_group_reports" data-source-line="125" data-uid="lnk29" id="link_report_groups_report_group_reports"><path codeLine="125" d="M308.26,575.88 C308.26,601.94 308.26,618.11 308.26,644.22" fill="none" id="report_groups-report_group_reports" style="stroke:#181818;stroke-width:1;"/><line style="stroke:#181818;stroke-width:1;" x1="308.26" x2="300.26" y1="575.88" y2="567.88"/><line style="stroke:#181818;stroke-width:1;" x1="308.26" x2="316.26" y1="575.88" y2="567.88"/><line style="stroke:#181818;stroke-width:1;" x1="308.26" x2="308.26" y1="575.88" y2="567.88"/><line style="stroke:#181818;stroke-width:1;" x1="308.26" x2="316.26" y1="644.22" y2="652.22"/><line style="stroke:#181818;stroke-width:1;" x1="308.26" x2="300.26" y1="644.22" y2="652.22"/><line style="stroke:#181818;stroke-width:1;" x1="308.26" x2="308.26" y1="644.22" y2="652.22"/></g><!--link report_group_reports to reports--><g class="link" data-entity-1="report_group_reports" data-entity-2="reports" data-source-line="126" data-uid="lnk30" id="link_report_group_reports_reports"><path codeLine="126" d="M275.8163,757.261 C260.9263,782.511 250.6051,800.0098 234.4751,827.3498" fill="none" id="report_group_reports-reports" style="stroke:#181818;stroke-width:1;"/><line style="stroke:#181818;stroke-width:1;" x1="275.8163" x2="272.989" y1="757.261" y2="750.37"/><line style="stroke:#181818;stroke-width:1;" x1="275.8163" x2="286.771" y1="757.261" y2="750.37"/><line style="stroke:#181818;stroke-width:1;" x1="275.8163" x2="279.88" y1="757.261" y2="750.37"/><line style="stroke:#181818;stroke-width:1;" x1="234.4751" x2="237.3002" y1="827.3498" y2="834.24"/><line style="stroke:#181818;stroke-width:1;" x1="234.4751" x2="223.5198" y1="827.3498" y2="834.24"/><line style="stroke:#181818;stroke-width:1;" x1="234.4751" x2="230.41" y1="827.3498" y2="834.24"/></g><!--link reports to report_report_parameters--><g class="link" data-entity-1="reports" data-entity-2="report_report_parameters" data-source-line="127" data-uid="lnk31" id="link_reports_report_report_parameters"><path codeLine="127" d="M192.26,973.48 C192.26,1005.83 192.26,1028.34 192.26,1058.05" fill="none" id="reports-report_report_parameters" style="stroke:#181818;stroke-width:1;"/><line style="stroke:#181818;stroke-width:1;" x1="192.26" x2="184.26" y1="973.48" y2="965.48"/><line style="stroke:#181818;stroke-width:1;" x1="192.26" x2="200.26" y1="973.48" y2="965.48"/><line style="stroke:#181818;stroke-width:1;" x1="192.26" x2="192.26" y1="973.48" y2="965.48"/><line style="stroke:#181818;stroke-width:1;" x1="192.26" x2="200.26" y1="1058.05" y2="1066.05"/><line style="stroke:#181818;stroke-width:1;" x1="192.26" x2="184.26" y1="1058.05" y2="1066.05"/><line style="stroke:#181818;stroke-width:1;" x1="192.26" x2="192.26" y1="1058.05" y2="1066.05"/></g><!--link report_report_parameters to report_parameters--><g class="link" data-entity-1="report_report_parameters" data-entity-2="report_parameters" data-source-line="128" data-uid="lnk32" id="link_report_report_parameters_report_parameters"><path codeLine="128" d="M192.26,1172.22 C192.26,1201.94 192.26,1224.44 192.26,1256.78" fill="none" id="report_report_parameters-report_parameters" style="stroke:#181818;stroke-width:1;"/><line style="stroke:#181818;stroke-width:1;" x1="192.26" x2="184.26" y1="1172.22" y2="1164.22"/><line style="stroke:#181818;stroke-width:1;" x1="192.26" x2="200.26" y1="1172.22" y2="1164.22"/><line style="stroke:#181818;stroke-width:1;" x1="192.26" x2="192.26" y1="1172.22" y2="1164.22"/><line style="stroke:#181818;stroke-width:1;" x1="192.26" x2="200.26" y1="1256.78" y2="1264.78"/><line style="stroke:#181818;stroke-width:1;" x1="192.26" x2="184.26" y1="1256.78" y2="1264.78"/><line style="stroke:#181818;stroke-width:1;" x1="192.26" x2="192.26" y1="1256.78" y2="1264.78"/></g><!--link driver_types to data_sources--><g class="link" data-entity-1="driver_types" data-entity-2="data_sources" data-source-line="129" data-uid="lnk33" id="link_driver_types_data_sources"><path codeLine="129" d="M126.26,146.1 C126.26,175.17 126.26,204.96 126.26,238.53" fill="none" id="driver_types-to-data_sources" style="stroke:#181818;stroke-width:1;"/><line style="stroke:#181818;stroke-width:1;" x1="126.26" x2="134.26" y1="238.53" y2="246.53"/><line style="stroke:#181818;stroke-width:1;" x1="126.26" x2="118.26" y1="238.53" y2="246.53"/><line style="stroke:#181818;stroke-width:1;" x1="126.26" x2="126.26" y1="238.53" y2="246.53"/></g><!--link data_sources to reports--><g class="link" data-entity-1="data_sources" data-entity-2="reports" data-source-line="130" data-uid="lnk34" id="link_data_sources_reports"><path codeLine="130" d="M120.06,410.7 C115.19,500.74 113.13,649.87 140.26,774.72 C144.6,794.71 148.9399,808.1793 156.8599,826.9493" fill="none" id="data_sources-to-reports" style="stroke:#181818;stroke-width:1;"/><line style="stroke:#181818;stroke-width:1;" x1="156.8599" x2="167.3407" y1="826.9493" y2="834.32"/><line style="stroke:#181818;stroke-width:1;" x1="156.8599" x2="152.5993" y1="826.9493" y2="834.32"/><line style="stroke:#181818;stroke-width:1;" x1="156.8599" x2="159.97" y1="826.9493" y2="834.32"/></g><!--link workspaces to storage_s3s--><g class="link" data-entity-1="workspaces" data-entity-2="storage_s3s" data-source-line="131" data-uid="lnk35" id="link_workspaces_storage_s3s"><path codeLine="131" d="M364.11,394.64 C369.71,400.15 375.47,405.46 381.26,410.33 C419.47,442.48 442.62,433.42 476.26,470.33 C517.74,515.84 545.4254,571.3776 564.9354,619.8976" fill="none" id="workspaces-to-storage_s3s" style="stroke:#181818;stroke-width:1;"/><line style="stroke:#181818;stroke-width:1;" x1="564.9354" x2="575.3424" y1="619.8976" y2="627.32"/><line style="stroke:#181818;stroke-width:1;" x1="564.9354" x2="560.4976" y1="619.8976" y2="627.32"/><line style="stroke:#181818;stroke-width:1;" x1="564.9354" x2="567.92" y1="619.8976" y2="627.32"/></g><!--link storage_s3s to report_templates--><g class="link" data-entity-1="storage_s3s" data-entity-2="report_templates" data-source-line="132" data-uid="lnk36" id="link_storage_s3s_report_templates"><path codeLine="132" d="M568.02,774.94 C543.8,844.68 509.8033,942.5923 483.8433,1017.3823" fill="none" id="storage_s3s-to-report_templates" style="stroke:#181818;stroke-width:1;"/><line style="stroke:#181818;stroke-width:1;" x1="483.8433" x2="488.7777" y1="1017.3823" y2="1024.94"/><line style="stroke:#181818;stroke-width:1;" x1="483.8433" x2="473.6623" y1="1017.3823" y2="1024.94"/><line style="stroke:#181818;stroke-width:1;" x1="483.8433" x2="481.22" y1="1017.3823" y2="1024.94"/></g><!--SRC=[fLJBRkiW4Dtp5QohUfLTV-MgGWHFVTtWW7YqJQtyUp64yFJDbRgoOSxCEVDWu6ncSy4BB4TG6gy8uoSyZ_u32vsv_plJ1VoFf5f_2hNPCPw4c3YG6vefe0P6Geq_MZdcnmyNVHPdZQu8GU1qSKvQKWOLxPrCSplzCZGf4qltDwvWZYSbGZefq7PJoVCWSv6GmTxicPbDGmK5BQnY8Hlg4LLiikSfKc4Zf5JcIa192BzNFwj2zwm6rUlW4nxLxAhdiubiHOaokeJSetiVZupSS8mxcZnNa4APohFfnZrKW1C3Y-IkrT6UvLorgSG_uj56A3grj6-pgxgavc-1sd9-mN-uO9G_OtruJLWzVmVFMHCDq94agNBHJVEs6artOEJR9dCStPZ7_ZyxpYzt_g3Smgj_WGqc3EPcygXMpmDPDtDvIj9wHP-KiFA_Ejjt9TtPA12Dk1GfDaaV7acWdvfGvbwB9YUuvBSQt88ncV5kKJ1jRzPFmu4SBJivNCmbsr_3eDPswQ1s3Ls7mU9_cbqWltHGM3t3i5QB0bLxmxiaQw6AhyMUA8rhV9Nzw_IQTkoXyIYspsblFSiPkTRUiVUeEn3NN6FdiXrcj3lbkLk6BzRQ1YdALUpOtOAvycTJYFA9x5Rp1m00]--></g></svg>