<?xml version="1.0" encoding="us-ascii" standalone="no"?><svg xmlns="http://www.w3.org/2000/svg" xmlns:xlink="http://www.w3.org/1999/xlink" contentStyleType="text/css" height="1195px" preserveAspectRatio="none" style="width:755px;height:1195px;background:#FFFFFF;" version="1.1" viewBox="0 0 755 1195" width="755px" zoomAndPan="magnify"><defs/><g><!--class members--><g id="elem_members"><rect codeLine="2" fill="#F1F1F1" height="179.9063" id="members" rx="2.5" ry="2.5" style="stroke:#181818;stroke-width:0.5;" width="103" x="645.86" y="387.88"/><ellipse cx="664.01" cy="403.88" fill="#ADD1B2" rx="11" ry="11" style="stroke:#181818;stroke-width:1.0;"/><path d="M667.6243,410.38 L659.9045,410.38 L659.9045,397.9869 L667.6243,397.9869 L667.6243,400.1451 L662.3533,400.1451 L662.3533,402.818 L667.1262,402.818 L667.1262,404.9762 L662.3533,404.9762 L662.3533,408.2218 L667.6243,408.2218 Z " fill="#000000"/><text fill="#000000" font-family="sans-serif" font-size="14" lengthAdjust="spacing" textLength="64" x="678.71" y="409.171">members</text><line style="stroke:#181818;stroke-width:0.5;" x1="646.86" x2="747.86" y1="419.88" y2="419.88"/><ellipse cx="656.86" cy="433.6241" fill="#000000" rx="3" ry="3" style="stroke:#000000;stroke-width:1.0;"/><text fill="#000000" font-family="sans-serif" font-size="14" lengthAdjust="spacing" textLength="13" x="665.86" y="437.4152">id</text><ellipse cx="656.86" cy="450.1124" fill="#000000" rx="3" ry="3" style="stroke:#000000;stroke-width:1.0;"/><text fill="#000000" font-family="sans-serif" font-size="14" lengthAdjust="spacing" textLength="37" x="665.86" y="453.9034">email</text><ellipse cx="656.86" cy="466.6007" fill="#000000" rx="3" ry="3" style="stroke:#000000;stroke-width:1.0;"/><text fill="#000000" font-family="sans-serif" font-size="14" lengthAdjust="spacing" textLength="38" x="665.86" y="470.3917">name</text><ellipse cx="656.86" cy="483.089" fill="#000000" rx="3" ry="3" style="stroke:#000000;stroke-width:1.0;"/><text fill="#000000" font-family="sans-serif" font-size="14" lengthAdjust="spacing" textLength="66" x="665.86" y="486.88">password</text><text fill="#000000" font-family="sans-serif" font-size="14" lengthAdjust="spacing" textLength="68" x="665.86" y="503.3683">google_id</text><ellipse cx="656.86" cy="516.0655" fill="#000000" rx="3" ry="3" style="stroke:#000000;stroke-width:1.0;"/><text fill="#000000" font-family="sans-serif" font-size="14" lengthAdjust="spacing" textLength="71" x="665.86" y="519.8566">created_at</text><ellipse cx="656.86" cy="532.5538" fill="#000000" rx="3" ry="3" style="stroke:#000000;stroke-width:1.0;"/><text fill="#000000" font-family="sans-serif" font-size="14" lengthAdjust="spacing" textLength="77" x="665.86" y="536.3448">updated_at</text><ellipse cx="656.86" cy="549.0421" fill="#000000" rx="3" ry="3" style="stroke:#000000;stroke-width:1.0;"/><text fill="#000000" font-family="sans-serif" font-size="14" lengthAdjust="spacing" textLength="57" x="665.86" y="552.8331">versions</text><line style="stroke:#181818;stroke-width:0.5;" x1="646.86" x2="747.86" y1="559.7862" y2="559.7862"/></g><!--class workspaces--><g id="elem_workspaces"><rect codeLine="13" fill="#F1F1F1" height="146.9297" id="workspaces" rx="2.5" ry="2.5" style="stroke:#181818;stroke-width:0.5;" width="112" x="271.36" y="172.71"/><ellipse cx="286.36" cy="188.71" fill="#ADD1B2" rx="11" ry="11" style="stroke:#181818;stroke-width:1.0;"/><path d="M289.9743,195.21 L282.2545,195.21 L282.2545,182.8169 L289.9743,182.8169 L289.9743,184.9751 L284.7033,184.9751 L284.7033,187.648 L289.4762,187.648 L289.4762,189.8062 L284.7033,189.8062 L284.7033,193.0518 L289.9743,193.0518 Z " fill="#000000"/><text fill="#000000" font-family="sans-serif" font-size="14" lengthAdjust="spacing" textLength="80" x="300.36" y="194.001">workspaces</text><line style="stroke:#181818;stroke-width:0.5;" x1="272.36" x2="382.36" y1="204.71" y2="204.71"/><ellipse cx="282.36" cy="218.4541" fill="#000000" rx="3" ry="3" style="stroke:#000000;stroke-width:1.0;"/><text fill="#000000" font-family="sans-serif" font-size="14" lengthAdjust="spacing" textLength="13" x="291.36" y="222.2452">id</text><ellipse cx="282.36" cy="234.9424" fill="#000000" rx="3" ry="3" style="stroke:#000000;stroke-width:1.0;"/><text fill="#000000" font-family="sans-serif" font-size="14" lengthAdjust="spacing" textLength="38" x="291.36" y="238.7334">name</text><ellipse cx="282.36" cy="251.4307" fill="#000000" rx="3" ry="3" style="stroke:#000000;stroke-width:1.0;"/><text fill="#000000" font-family="sans-serif" font-size="14" lengthAdjust="spacing" textLength="29" x="291.36" y="255.2217">slug</text><ellipse cx="282.36" cy="267.919" fill="#000000" rx="3" ry="3" style="stroke:#000000;stroke-width:1.0;"/><text fill="#000000" font-family="sans-serif" font-size="14" lengthAdjust="spacing" textLength="71" x="291.36" y="271.71">created_at</text><ellipse cx="282.36" cy="284.4073" fill="#000000" rx="3" ry="3" style="stroke:#000000;stroke-width:1.0;"/><text fill="#000000" font-family="sans-serif" font-size="14" lengthAdjust="spacing" textLength="77" x="291.36" y="288.1983">updated_at</text><ellipse cx="282.36" cy="300.8955" fill="#000000" rx="3" ry="3" style="stroke:#000000;stroke-width:1.0;"/><text fill="#000000" font-family="sans-serif" font-size="14" lengthAdjust="spacing" textLength="57" x="291.36" y="304.6866">versions</text><line style="stroke:#181818;stroke-width:0.5;" x1="272.36" x2="382.36" y1="311.6397" y2="311.6397"/></g><!--class workspace_members--><g id="elem_workspace_members"><rect codeLine="22" fill="#F1F1F1" height="80.9766" id="workspace_members" rx="2.5" ry="2.5" style="stroke:#181818;stroke-width:0.5;" width="176" x="561.36" y="205.69"/><ellipse cx="576.36" cy="221.69" fill="#ADD1B2" rx="11" ry="11" style="stroke:#181818;stroke-width:1.0;"/><path d="M579.9743,228.19 L572.2545,228.19 L572.2545,215.7969 L579.9743,215.7969 L579.9743,217.9551 L574.7033,217.9551 L574.7033,220.628 L579.4762,220.628 L579.4762,222.7862 L574.7033,222.7862 L574.7033,226.0318 L579.9743,226.0318 Z " fill="#000000"/><text fill="#000000" font-family="sans-serif" font-size="14" lengthAdjust="spacing" textLength="144" x="590.36" y="226.981">workspace_members</text><line style="stroke:#181818;stroke-width:0.5;" x1="562.36" x2="736.36" y1="237.69" y2="237.69"/><ellipse cx="572.36" cy="251.4341" fill="#000000" rx="3" ry="3" style="stroke:#000000;stroke-width:1.0;"/><text fill="#000000" font-family="sans-serif" font-size="14" lengthAdjust="spacing" textLength="93" x="581.36" y="255.2252">workspace_id</text><ellipse cx="572.36" cy="267.9224" fill="#000000" rx="3" ry="3" style="stroke:#000000;stroke-width:1.0;"/><text fill="#000000" font-family="sans-serif" font-size="14" lengthAdjust="spacing" textLength="77" x="581.36" y="271.7134">member_id</text><line style="stroke:#181818;stroke-width:0.5;" x1="562.36" x2="736.36" y1="278.6666" y2="278.6666"/></g><!--class data_sources--><g id="elem_data_sources"><rect codeLine="27" fill="#F1F1F1" height="163.418" id="data_sources" rx="2.5" ry="2.5" style="stroke:#181818;stroke-width:0.5;" width="122" x="83.36" y="164.47"/><ellipse cx="98.36" cy="180.47" fill="#ADD1B2" rx="11" ry="11" style="stroke:#181818;stroke-width:1.0;"/><path d="M101.9743,186.97 L94.2545,186.97 L94.2545,174.5769 L101.9743,174.5769 L101.9743,176.7351 L96.7033,176.7351 L96.7033,179.408 L101.4762,179.408 L101.4762,181.5662 L96.7033,181.5662 L96.7033,184.8118 L101.9743,184.8118 Z " fill="#000000"/><text fill="#000000" font-family="sans-serif" font-size="14" lengthAdjust="spacing" textLength="90" x="112.36" y="185.761">data_sources</text><line style="stroke:#181818;stroke-width:0.5;" x1="84.36" x2="204.36" y1="196.47" y2="196.47"/><ellipse cx="94.36" cy="210.2141" fill="#000000" rx="3" ry="3" style="stroke:#000000;stroke-width:1.0;"/><text fill="#000000" font-family="sans-serif" font-size="14" lengthAdjust="spacing" textLength="13" x="103.36" y="214.0052">id</text><ellipse cx="94.36" cy="226.7024" fill="#000000" rx="3" ry="3" style="stroke:#000000;stroke-width:1.0;"/><text fill="#000000" font-family="sans-serif" font-size="14" lengthAdjust="spacing" textLength="38" x="103.36" y="230.4934">name</text><ellipse cx="94.36" cy="243.1907" fill="#000000" rx="3" ry="3" style="stroke:#000000;stroke-width:1.0;"/><text fill="#000000" font-family="sans-serif" font-size="14" lengthAdjust="spacing" textLength="19" x="103.36" y="246.9817">url</text><ellipse cx="94.36" cy="259.679" fill="#000000" rx="3" ry="3" style="stroke:#000000;stroke-width:1.0;"/><text fill="#000000" font-family="sans-serif" font-size="14" lengthAdjust="spacing" textLength="68" x="103.36" y="263.47">username</text><ellipse cx="94.36" cy="276.1673" fill="#000000" rx="3" ry="3" style="stroke:#000000;stroke-width:1.0;"/><text fill="#000000" font-family="sans-serif" font-size="14" lengthAdjust="spacing" textLength="66" x="103.36" y="279.9583">password</text><ellipse cx="94.36" cy="292.6555" fill="#000000" rx="3" ry="3" style="stroke:#000000;stroke-width:1.0;"/><text fill="#000000" font-family="sans-serif" font-size="14" lengthAdjust="spacing" textLength="96" x="103.36" y="296.4466">driver_type_id</text><ellipse cx="94.36" cy="309.1438" fill="#000000" rx="3" ry="3" style="stroke:#000000;stroke-width:1.0;"/><text fill="#000000" font-family="sans-serif" font-size="14" lengthAdjust="spacing" textLength="93" x="103.36" y="312.9348">workspace_id</text><line style="stroke:#181818;stroke-width:0.5;" x1="84.36" x2="204.36" y1="319.888" y2="319.888"/></g><!--class driver_types--><g id="elem_driver_types"><rect codeLine="37" fill="#F1F1F1" height="97.4648" id="driver_types" rx="2.5" ry="2.5" style="stroke:#181818;stroke-width:0.5;" width="142" x="73.36" y="7"/><ellipse cx="100.51" cy="23" fill="#ADD1B2" rx="11" ry="11" style="stroke:#181818;stroke-width:1.0;"/><path d="M104.1243,29.5 L96.4045,29.5 L96.4045,17.1069 L104.1243,17.1069 L104.1243,19.2651 L98.8533,19.2651 L98.8533,21.938 L103.6262,21.938 L103.6262,24.0962 L98.8533,24.0962 L98.8533,27.3418 L104.1243,27.3418 Z " fill="#000000"/><text fill="#000000" font-family="sans-serif" font-size="14" lengthAdjust="spacing" textLength="83" x="117.21" y="28.291">driver_types</text><line style="stroke:#181818;stroke-width:0.5;" x1="74.36" x2="214.36" y1="39" y2="39"/><ellipse cx="84.36" cy="52.7441" fill="#000000" rx="3" ry="3" style="stroke:#000000;stroke-width:1.0;"/><text fill="#000000" font-family="sans-serif" font-size="14" lengthAdjust="spacing" textLength="13" x="93.36" y="56.5352">id</text><ellipse cx="84.36" cy="69.2324" fill="#000000" rx="3" ry="3" style="stroke:#000000;stroke-width:1.0;"/><text fill="#000000" font-family="sans-serif" font-size="14" lengthAdjust="spacing" textLength="38" x="93.36" y="73.0234">name</text><ellipse cx="84.36" cy="85.7207" fill="#000000" rx="3" ry="3" style="stroke:#000000;stroke-width:1.0;"/><text fill="#000000" font-family="sans-serif" font-size="14" lengthAdjust="spacing" textLength="116" x="93.36" y="89.5117">jdbc_driver_class</text><line style="stroke:#181818;stroke-width:0.5;" x1="74.36" x2="214.36" y1="96.4648" y2="96.4648"/></g><!--class reports--><g id="elem_reports"><rect codeLine="43" fill="#F1F1F1" height="130.4414" id="reports" rx="2.5" ry="2.5" style="stroke:#181818;stroke-width:0.5;" width="156" x="82.36" y="834.72"/><ellipse cx="131.11" cy="850.72" fill="#ADD1B2" rx="11" ry="11" style="stroke:#181818;stroke-width:1.0;"/><path d="M134.7243,857.22 L127.0045,857.22 L127.0045,844.8269 L134.7243,844.8269 L134.7243,846.9851 L129.4533,846.9851 L129.4533,849.658 L134.2262,849.658 L134.2262,851.8162 L129.4533,851.8162 L129.4533,855.0618 L134.7243,855.0618 Z " fill="#000000"/><text fill="#000000" font-family="sans-serif" font-size="14" lengthAdjust="spacing" textLength="50" x="151.61" y="856.011">reports</text><line style="stroke:#181818;stroke-width:0.5;" x1="83.36" x2="237.36" y1="866.72" y2="866.72"/><ellipse cx="93.36" cy="880.4641" fill="#000000" rx="3" ry="3" style="stroke:#000000;stroke-width:1.0;"/><text fill="#000000" font-family="sans-serif" font-size="14" lengthAdjust="spacing" textLength="13" x="102.36" y="884.2552">id</text><ellipse cx="93.36" cy="896.9524" fill="#000000" rx="3" ry="3" style="stroke:#000000;stroke-width:1.0;"/><text fill="#000000" font-family="sans-serif" font-size="14" lengthAdjust="spacing" textLength="93" x="102.36" y="900.7434">workspace_id</text><ellipse cx="93.36" cy="913.4407" fill="#000000" rx="3" ry="3" style="stroke:#000000;stroke-width:1.0;"/><text fill="#000000" font-family="sans-serif" font-size="14" lengthAdjust="spacing" textLength="38" x="102.36" y="917.2317">name</text><ellipse cx="93.36" cy="929.929" fill="#000000" rx="3" ry="3" style="stroke:#000000;stroke-width:1.0;"/><text fill="#000000" font-family="sans-serif" font-size="14" lengthAdjust="spacing" textLength="130" x="102.36" y="933.72">report_template_id</text><ellipse cx="93.36" cy="946.4173" fill="#000000" rx="3" ry="3" style="stroke:#000000;stroke-width:1.0;"/><text fill="#000000" font-family="sans-serif" font-size="14" lengthAdjust="spacing" textLength="103" x="102.36" y="950.2083">data_source_id</text><line style="stroke:#181818;stroke-width:0.5;" x1="83.36" x2="237.36" y1="957.1614" y2="957.1614"/></g><!--class report_templates--><g id="elem_report_templates"><rect codeLine="51" fill="#F1F1F1" height="163.418" id="report_templates" rx="2.5" ry="2.5" style="stroke:#181818;stroke-width:0.5;" width="188" x="354.36" y="1025.16"/><ellipse cx="386.91" cy="1041.16" fill="#ADD1B2" rx="11" ry="11" style="stroke:#181818;stroke-width:1.0;"/><path d="M390.5243,1047.66 L382.8045,1047.66 L382.8045,1035.2669 L390.5243,1035.2669 L390.5243,1037.4251 L385.2533,1037.4251 L385.2533,1040.098 L390.0262,1040.098 L390.0262,1042.2562 L385.2533,1042.2562 L385.2533,1045.5018 L390.5243,1045.5018 Z " fill="#000000"/><text fill="#000000" font-family="sans-serif" font-size="14" lengthAdjust="spacing" textLength="117" x="404.81" y="1046.451">report_templates</text><line style="stroke:#181818;stroke-width:0.5;" x1="355.36" x2="541.36" y1="1057.16" y2="1057.16"/><ellipse cx="365.36" cy="1070.9041" fill="#000000" rx="3" ry="3" style="stroke:#000000;stroke-width:1.0;"/><text fill="#000000" font-family="sans-serif" font-size="14" lengthAdjust="spacing" textLength="13" x="374.36" y="1074.6952">id</text><ellipse cx="365.36" cy="1087.3924" fill="#000000" rx="3" ry="3" style="stroke:#000000;stroke-width:1.0;"/><text fill="#000000" font-family="sans-serif" font-size="14" lengthAdjust="spacing" textLength="93" x="374.36" y="1091.1834">workspace_id</text><ellipse cx="365.36" cy="1103.8807" fill="#000000" rx="3" ry="3" style="stroke:#000000;stroke-width:1.0;"/><text fill="#000000" font-family="sans-serif" font-size="14" lengthAdjust="spacing" textLength="72" x="374.36" y="1107.6717">storage_id</text><ellipse cx="365.36" cy="1120.369" fill="#000000" rx="3" ry="3" style="stroke:#000000;stroke-width:1.0;"/><text fill="#000000" font-family="sans-serif" font-size="14" lengthAdjust="spacing" textLength="38" x="374.36" y="1124.16">name</text><ellipse cx="365.36" cy="1136.8573" fill="#000000" rx="3" ry="3" style="stroke:#000000;stroke-width:1.0;"/><text fill="#000000" font-family="sans-serif" font-size="14" lengthAdjust="spacing" textLength="59" x="374.36" y="1140.6483">file_path</text><ellipse cx="365.36" cy="1153.3455" fill="#000000" rx="3" ry="3" style="stroke:#000000;stroke-width:1.0;"/><text fill="#000000" font-family="sans-serif" font-size="14" lengthAdjust="spacing" textLength="162" x="374.36" y="1157.1366">storage_type: [local, s3]</text><ellipse cx="365.36" cy="1169.8338" fill="#000000" rx="3" ry="3" style="stroke:#000000;stroke-width:1.0;"/><text fill="#000000" font-family="sans-serif" font-size="14" lengthAdjust="spacing" textLength="55" x="374.36" y="1173.6248">file_size</text><line style="stroke:#181818;stroke-width:0.5;" x1="355.36" x2="541.36" y1="1180.578" y2="1180.578"/></g><!--class report_groups--><g id="elem_report_groups"><rect codeLine="61" fill="#F1F1F1" height="97.4648" id="report_groups" rx="2.5" ry="2.5" style="stroke:#181818;stroke-width:0.5;" width="131" x="190.86" y="429.11"/><ellipse cx="205.86" cy="445.11" fill="#ADD1B2" rx="11" ry="11" style="stroke:#181818;stroke-width:1.0;"/><path d="M209.4743,451.61 L201.7545,451.61 L201.7545,439.2169 L209.4743,439.2169 L209.4743,441.3751 L204.2033,441.3751 L204.2033,444.048 L208.9762,444.048 L208.9762,446.2062 L204.2033,446.2062 L204.2033,449.4518 L209.4743,449.4518 Z " fill="#000000"/><text fill="#000000" font-family="sans-serif" font-size="14" lengthAdjust="spacing" textLength="99" x="219.86" y="450.401">report_groups</text><line style="stroke:#181818;stroke-width:0.5;" x1="191.86" x2="320.86" y1="461.11" y2="461.11"/><ellipse cx="201.86" cy="474.8541" fill="#000000" rx="3" ry="3" style="stroke:#000000;stroke-width:1.0;"/><text fill="#000000" font-family="sans-serif" font-size="14" lengthAdjust="spacing" textLength="13" x="210.86" y="478.6452">id</text><ellipse cx="201.86" cy="491.3424" fill="#000000" rx="3" ry="3" style="stroke:#000000;stroke-width:1.0;"/><text fill="#000000" font-family="sans-serif" font-size="14" lengthAdjust="spacing" textLength="93" x="210.86" y="495.1334">workspace_id</text><ellipse cx="201.86" cy="507.8307" fill="#000000" rx="3" ry="3" style="stroke:#000000;stroke-width:1.0;"/><text fill="#000000" font-family="sans-serif" font-size="14" lengthAdjust="spacing" textLength="38" x="210.86" y="511.6217">name</text><line style="stroke:#181818;stroke-width:0.5;" x1="191.86" x2="320.86" y1="518.5748" y2="518.5748"/></g><!--class report_group_reports--><g id="elem_report_group_reports"><rect codeLine="67" fill="#F1F1F1" height="97.4648" id="report_group_reports" rx="2.5" ry="2.5" style="stroke:#181818;stroke-width:0.5;" width="181" x="141.86" y="652.52"/><ellipse cx="156.86" cy="668.52" fill="#ADD1B2" rx="11" ry="11" style="stroke:#181818;stroke-width:1.0;"/><path d="M160.4743,675.02 L152.7545,675.02 L152.7545,662.6269 L160.4743,662.6269 L160.4743,664.7851 L155.2033,664.7851 L155.2033,667.458 L159.9762,667.458 L159.9762,669.6162 L155.2033,669.6162 L155.2033,672.8618 L160.4743,672.8618 Z " fill="#000000"/><text fill="#000000" font-family="sans-serif" font-size="14" lengthAdjust="spacing" textLength="149" x="170.86" y="673.811">report_group_reports</text><line style="stroke:#181818;stroke-width:0.5;" x1="142.86" x2="321.86" y1="684.52" y2="684.52"/><ellipse cx="152.86" cy="698.2641" fill="#000000" rx="3" ry="3" style="stroke:#000000;stroke-width:1.0;"/><text fill="#000000" font-family="sans-serif" font-size="14" lengthAdjust="spacing" textLength="13" x="161.86" y="702.0552">id</text><ellipse cx="152.86" cy="714.7524" fill="#000000" rx="3" ry="3" style="stroke:#000000;stroke-width:1.0;"/><text fill="#000000" font-family="sans-serif" font-size="14" lengthAdjust="spacing" textLength="112" x="161.86" y="718.5434">report_group_id</text><ellipse cx="152.86" cy="731.2407" fill="#000000" rx="3" ry="3" style="stroke:#000000;stroke-width:1.0;"/><text fill="#000000" font-family="sans-serif" font-size="14" lengthAdjust="spacing" textLength="63" x="161.86" y="735.0317">report_id</text><line style="stroke:#181818;stroke-width:0.5;" x1="142.86" x2="321.86" y1="741.9848" y2="741.9848"/></g><!--class storages_s3--><g id="elem_storages_s3"><rect codeLine="73" fill="#F1F1F1" height="146.9297" id="storages_s3" rx="2.5" ry="2.5" style="stroke:#181818;stroke-width:0.5;" width="181" x="357.86" y="627.79"/><ellipse cx="403.11" cy="643.79" fill="#ADD1B2" rx="11" ry="11" style="stroke:#181818;stroke-width:1.0;"/><path d="M406.7243,650.29 L399.0045,650.29 L399.0045,637.8969 L406.7243,637.8969 L406.7243,640.0551 L401.4533,640.0551 L401.4533,642.728 L406.2262,642.728 L406.2262,644.8862 L401.4533,644.8862 L401.4533,648.1318 L406.7243,648.1318 Z " fill="#000000"/><text fill="#000000" font-family="sans-serif" font-size="14" lengthAdjust="spacing" textLength="82" x="423.61" y="649.081">storages_s3</text><line style="stroke:#181818;stroke-width:0.5;" x1="358.86" x2="537.86" y1="659.79" y2="659.79"/><ellipse cx="368.86" cy="673.5341" fill="#000000" rx="3" ry="3" style="stroke:#000000;stroke-width:1.0;"/><text fill="#000000" font-family="sans-serif" font-size="14" lengthAdjust="spacing" textLength="13" x="377.86" y="677.3252">id</text><ellipse cx="368.86" cy="690.0224" fill="#000000" rx="3" ry="3" style="stroke:#000000;stroke-width:1.0;"/><text fill="#000000" font-family="sans-serif" font-size="14" lengthAdjust="spacing" textLength="93" x="377.86" y="693.8134">workspace_id</text><ellipse cx="368.86" cy="706.5107" fill="#000000" rx="3" ry="3" style="stroke:#000000;stroke-width:1.0;"/><text fill="#000000" font-family="sans-serif" font-size="14" lengthAdjust="spacing" textLength="127" x="377.86" y="710.3017">aws_access_key_id</text><ellipse cx="368.86" cy="722.999" fill="#000000" rx="3" ry="3" style="stroke:#000000;stroke-width:1.0;"/><text fill="#000000" font-family="sans-serif" font-size="14" lengthAdjust="spacing" textLength="155" x="377.86" y="726.79">aws_secret_access_key</text><ellipse cx="368.86" cy="739.4873" fill="#000000" rx="3" ry="3" style="stroke:#000000;stroke-width:1.0;"/><text fill="#000000" font-family="sans-serif" font-size="14" lengthAdjust="spacing" textLength="78" x="377.86" y="743.2783">aws_region</text><ellipse cx="368.86" cy="755.9755" fill="#000000" rx="3" ry="3" style="stroke:#000000;stroke-width:1.0;"/><text fill="#000000" font-family="sans-serif" font-size="14" lengthAdjust="spacing" textLength="114" x="377.86" y="759.7666">s3_bucket_name</text><line style="stroke:#181818;stroke-width:0.5;" x1="358.86" x2="537.86" y1="766.7197" y2="766.7197"/></g><!--link workspaces to workspace_members--><g id="link_workspaces_workspace_members"><path codeLine="82" d="M383.64,246.18 C442.72,246.18 493.8,246.18 552.87,246.18 " fill="none" id="workspaces-to-workspace_members" style="stroke:#181818;stroke-width:1.0;"/><line style="stroke:#181818;stroke-width:1.0;" x1="552.87" x2="560.87" y1="246.18" y2="238.18"/><line style="stroke:#181818;stroke-width:1.0;" x1="552.87" x2="560.87" y1="246.18" y2="254.18"/><line style="stroke:#181818;stroke-width:1.0;" x1="552.87" x2="560.87" y1="246.18" y2="246.18"/></g><!--reverse link workspace_members to members--><g id="link_workspace_members_members"><path codeLine="83" d="M659.2978,294.7505 C665.0978,322.4805 671.43,352.78 678.71,387.61 " fill="none" id="workspace_members-backto-members" style="stroke:#181818;stroke-width:1.0;"/><line style="stroke:#181818;stroke-width:1.0;" x1="659.2978" x2="649.8295" y1="294.7505" y2="286.92"/><line style="stroke:#181818;stroke-width:1.0;" x1="659.2978" x2="665.4905" y1="294.7505" y2="286.92"/><line style="stroke:#181818;stroke-width:1.0;" x1="659.2978" x2="657.66" y1="294.7505" y2="286.92"/></g><!--reverse link data_sources to workspaces--><g id="link_data_sources_workspaces"><path codeLine="84" d="M213.83,246.18 C235.51,246.18 249.19,246.18 270.87,246.18 " fill="none" id="data_sources-backto-workspaces" style="stroke:#181818;stroke-width:1.0;"/><line style="stroke:#181818;stroke-width:1.0;" x1="213.83" x2="205.83" y1="246.18" y2="254.18"/><line style="stroke:#181818;stroke-width:1.0;" x1="213.83" x2="205.83" y1="246.18" y2="238.18"/><line style="stroke:#181818;stroke-width:1.0;" x1="213.83" x2="205.83" y1="246.18" y2="246.18"/></g><!--link workspaces to reports--><g id="link_workspaces_reports"><path codeLine="85" d="M270.89,292.39 C232.36,324.38 186.09,365.44 173.36,387.88 C87.85,538.62 100,603.14 124.36,774.72 C127.15,794.39 130.054,807.6347 135.624,826.5847 " fill="none" id="workspaces-to-reports" style="stroke:#181818;stroke-width:1.0;"/><line style="stroke:#181818;stroke-width:1.0;" x1="135.624" x2="145.5553" y1="826.5847" y2="834.26"/><line style="stroke:#181818;stroke-width:1.0;" x1="135.624" x2="130.2047" y1="826.5847" y2="834.26"/><line style="stroke:#181818;stroke-width:1.0;" x1="135.624" x2="137.88" y1="826.5847" y2="834.26"/></g><!--link workspaces to report_templates--><g id="link_workspaces_report_templates"><path codeLine="86" d="M383.86,314.33 C440.45,386.44 523.69,507.01 556.36,627.79 C593.79,766.2 538.537,922.2677 494.077,1017.7477 " fill="none" id="workspaces-to-report_templates" style="stroke:#181818;stroke-width:1.0;"/><line style="stroke:#181818;stroke-width:1.0;" x1="494.077" x2="497.9523" y1="1017.7477" y2="1025"/><line style="stroke:#181818;stroke-width:1.0;" x1="494.077" x2="483.4477" y1="1017.7477" y2="1025"/><line style="stroke:#181818;stroke-width:1.0;" x1="494.077" x2="490.7" y1="1017.7477" y2="1025"/></g><!--link workspaces to report_groups--><g id="link_workspaces_report_groups"><path codeLine="87" d="M304.89,319.84 C293.88,355.46 283.292,389.7067 273.542,421.2567 " fill="none" id="workspaces-to-report_groups" style="stroke:#181818;stroke-width:1.0;"/><line style="stroke:#181818;stroke-width:1.0;" x1="273.542" x2="278.8233" y1="421.2567" y2="428.9"/><line style="stroke:#181818;stroke-width:1.0;" x1="273.542" x2="263.5367" y1="421.2567" y2="428.9"/><line style="stroke:#181818;stroke-width:1.0;" x1="273.542" x2="271.18" y1="421.2567" y2="428.9"/></g><!--reverse link reports to report_templates--><g id="link_reports_report_templates"><path codeLine="88" d="M245.1891,961.3069 C280.7591,986.6069 316.6,1012.12 353.91,1038.67 " fill="none" id="reports-backto-report_templates" style="stroke:#181818;stroke-width:1.0;"/><line style="stroke:#181818;stroke-width:1.0;" x1="245.1891" x2="238.67" y1="961.3069" y2="963.1891"/><line style="stroke:#181818;stroke-width:1.0;" x1="245.1891" x2="238.67" y1="961.3069" y2="950.1509"/><line style="stroke:#181818;stroke-width:1.0;" x1="245.1891" x2="238.67" y1="961.3069" y2="956.67"/></g><!--link report_groups to report_group_reports--><g id="link_report_groups_report_group_reports"><path codeLine="89" d="M250.287,534.8333 C246.257,571.9733 242.4435,607.2367 238.4135,644.3567 " fill="none" id="report_groups-report_group_reports" style="stroke:#181818;stroke-width:1.0;"/><line style="stroke:#181818;stroke-width:1.0;" x1="250.287" x2="243.1967" y1="534.8333" y2="526.88"/><line style="stroke:#181818;stroke-width:1.0;" x1="250.287" x2="259.1033" y1="534.8333" y2="526.88"/><line style="stroke:#181818;stroke-width:1.0;" x1="250.287" x2="251.15" y1="534.8333" y2="526.88"/><line style="stroke:#181818;stroke-width:1.0;" x1="238.4135" x2="245.5033" y1="644.3567" y2="652.31"/><line style="stroke:#181818;stroke-width:1.0;" x1="238.4135" x2="229.5967" y1="644.3567" y2="652.31"/><line style="stroke:#181818;stroke-width:1.0;" x1="238.4135" x2="237.55" y1="644.3567" y2="652.31"/></g><!--link report_group_reports to reports--><g id="link_report_group_reports_reports"><path codeLine="90" d="M211.9908,757.8828 C202.7508,783.1328 196.8005,799.3877 186.7905,826.7277 " fill="none" id="report_group_reports-reports" style="stroke:#181818;stroke-width:1.0;"/><line style="stroke:#181818;stroke-width:1.0;" x1="211.9908" x2="207.2272" y1="757.8828" y2="750.37"/><line style="stroke:#181818;stroke-width:1.0;" x1="211.9908" x2="222.2528" y1="757.8828" y2="750.37"/><line style="stroke:#181818;stroke-width:1.0;" x1="211.9908" x2="214.74" y1="757.8828" y2="750.37"/><line style="stroke:#181818;stroke-width:1.0;" x1="186.7905" x2="191.5523" y1="826.7277" y2="834.24"/><line style="stroke:#181818;stroke-width:1.0;" x1="186.7905" x2="176.5277" y1="826.7277" y2="834.24"/><line style="stroke:#181818;stroke-width:1.0;" x1="186.7905" x2="184.04" y1="826.7277" y2="834.24"/></g><!--link driver_types to data_sources--><g id="link_driver_types_data_sources"><path codeLine="91" d="M144.36,104.77 C144.36,122.87 144.36,136 144.36,156.28 " fill="none" id="driver_types-to-data_sources" style="stroke:#181818;stroke-width:1.0;"/><line style="stroke:#181818;stroke-width:1.0;" x1="144.36" x2="152.36" y1="156.28" y2="164.28"/><line style="stroke:#181818;stroke-width:1.0;" x1="144.36" x2="136.36" y1="156.28" y2="164.28"/><line style="stroke:#181818;stroke-width:1.0;" x1="144.36" x2="144.36" y1="156.28" y2="164.28"/></g><!--link data_sources to reports--><g id="link_data_sources_reports"><path codeLine="92" d="M87.64,328.03 C77.21,346.86 67.89,367.41 62.36,387.88 C17.52,553.86 6,612.29 62.36,774.72 C69.74,796 77.5505,810.0659 91.4105,827.9559 " fill="none" id="data_sources-to-reports" style="stroke:#181818;stroke-width:1.0;"/><line style="stroke:#181818;stroke-width:1.0;" x1="91.4105" x2="102.6341" y1="827.9559" y2="834.28"/><line style="stroke:#181818;stroke-width:1.0;" x1="91.4105" x2="89.9859" y1="827.9559" y2="834.28"/><line style="stroke:#181818;stroke-width:1.0;" x1="91.4105" x2="96.31" y1="827.9559" y2="834.28"/></g><!--link workspaces to storages_s3--><g id="link_workspaces_storages_s3"><path codeLine="93" d="M346.8,319.97 C369.38,404.52 404.3466,535.4407 426.8966,619.9107 " fill="none" id="workspaces-to-storages_s3" style="stroke:#181818;stroke-width:1.0;"/><line style="stroke:#181818;stroke-width:1.0;" x1="426.8966" x2="436.6893" y1="619.9107" y2="627.64"/><line style="stroke:#181818;stroke-width:1.0;" x1="426.8966" x2="421.2307" y1="619.9107" y2="627.64"/><line style="stroke:#181818;stroke-width:1.0;" x1="426.8966" x2="428.96" y1="619.9107" y2="627.64"/></g><!--link storages_s3 to report_templates--><g id="link_storages_s3_report_templates"><path codeLine="94" d="M448.36,774.88 C448.36,845.24 448.36,943.74 448.36,1016.82 " fill="none" id="storages_s3-to-report_templates" style="stroke:#181818;stroke-width:1.0;"/><line style="stroke:#181818;stroke-width:1.0;" x1="448.36" x2="456.36" y1="1016.82" y2="1024.82"/><line style="stroke:#181818;stroke-width:1.0;" x1="448.36" x2="440.36" y1="1016.82" y2="1024.82"/><line style="stroke:#181818;stroke-width:1.0;" x1="448.36" x2="448.36" y1="1016.82" y2="1024.82"/></g><!--SRC=[fLFBRiCW4Bpp5PoZ-fHRVwMg4C4RbmORn4AZrFA_5x_1s4sbdcoOsPrz3D0uwHwqXle25cbBA3rHMGuVgBbKmr_3QnX-34UyQzlZb5PQLmhOn1OMk8EISJSSlIdZurV8BdM3f2C4HisGvuQ62zZ8BcAeVFNFr2njRBsVj4QuFwt18JbdgBqzhipRSIuUmUxDvaHBAqDTp3tCefM8Ht8hyqZkixm8Dl642Z9Hk0MZhTj4PdqkgKOwSr0R5OOuur7FQNKR_ZCTTDhoAfUzoc0Kmzr7mkfxVgLlIWkkNYYUtrSkoc_8owYizkPFlUw7ijrf9OpqBfd5L3OoF3yfWT-HSH7yW-m6Z_WM8PZPHU22MAY2YyVvdDd5YrlWpRr4RwKeR9iRdEIMxug2PcWVhzh4uodOpexQlrwTS82FAoBpeFiYiiXqczqsUjuIsLrT5zUOF9uUI1fBNl8lhKMB9V6ITzl-0G00]--></g></svg>