<?xml version="1.0" encoding="us-ascii" standalone="no"?><svg xmlns="http://www.w3.org/2000/svg" xmlns:xlink="http://www.w3.org/1999/xlink" contentStyleType="text/css" height="798px" preserveAspectRatio="none" style="width:595px;height:798px;background:#FFFFFF;" version="1.1" viewBox="0 0 595 798" width="595px" zoomAndPan="magnify"><defs/><g><!--class members--><g id="elem_members"><rect codeLine="2" fill="#F1F1F1" height="179.9063" id="members" rx="2.5" ry="2.5" style="stroke:#181818;stroke-width:0.5;" width="103" x="485.5" y="387.89"/><ellipse cx="503.65" cy="403.89" fill="#ADD1B2" rx="11" ry="11" style="stroke:#181818;stroke-width:1.0;"/><path d="M507.2643,410.39 L499.5445,410.39 L499.5445,397.9969 L507.2643,397.9969 L507.2643,400.1551 L501.9933,400.1551 L501.9933,402.828 L506.7662,402.828 L506.7662,404.9862 L501.9933,404.9862 L501.9933,408.2318 L507.2643,408.2318 Z " fill="#000000"/><text fill="#000000" font-family="sans-serif" font-size="14" lengthAdjust="spacing" textLength="64" x="518.35" y="409.181">members</text><line style="stroke:#181818;stroke-width:0.5;" x1="486.5" x2="587.5" y1="419.89" y2="419.89"/><ellipse cx="496.5" cy="433.6341" fill="#000000" rx="3" ry="3" style="stroke:#000000;stroke-width:1.0;"/><text fill="#000000" font-family="sans-serif" font-size="14" lengthAdjust="spacing" textLength="13" x="505.5" y="437.4252">id</text><ellipse cx="496.5" cy="450.1224" fill="#000000" rx="3" ry="3" style="stroke:#000000;stroke-width:1.0;"/><text fill="#000000" font-family="sans-serif" font-size="14" lengthAdjust="spacing" textLength="37" x="505.5" y="453.9134">email</text><ellipse cx="496.5" cy="466.6107" fill="#000000" rx="3" ry="3" style="stroke:#000000;stroke-width:1.0;"/><text fill="#000000" font-family="sans-serif" font-size="14" lengthAdjust="spacing" textLength="38" x="505.5" y="470.4017">name</text><ellipse cx="496.5" cy="483.099" fill="#000000" rx="3" ry="3" style="stroke:#000000;stroke-width:1.0;"/><text fill="#000000" font-family="sans-serif" font-size="14" lengthAdjust="spacing" textLength="66" x="505.5" y="486.89">password</text><text fill="#000000" font-family="sans-serif" font-size="14" lengthAdjust="spacing" textLength="68" x="505.5" y="503.3783">google_id</text><ellipse cx="496.5" cy="516.0755" fill="#000000" rx="3" ry="3" style="stroke:#000000;stroke-width:1.0;"/><text fill="#000000" font-family="sans-serif" font-size="14" lengthAdjust="spacing" textLength="71" x="505.5" y="519.8666">created_at</text><ellipse cx="496.5" cy="532.5638" fill="#000000" rx="3" ry="3" style="stroke:#000000;stroke-width:1.0;"/><text fill="#000000" font-family="sans-serif" font-size="14" lengthAdjust="spacing" textLength="77" x="505.5" y="536.3548">updated_at</text><ellipse cx="496.5" cy="549.0521" fill="#000000" rx="3" ry="3" style="stroke:#000000;stroke-width:1.0;"/><text fill="#000000" font-family="sans-serif" font-size="14" lengthAdjust="spacing" textLength="57" x="505.5" y="552.8431">versions</text><line style="stroke:#181818;stroke-width:0.5;" x1="486.5" x2="587.5" y1="559.7963" y2="559.7963"/></g><!--class workspaces--><g id="elem_workspaces"><rect codeLine="13" fill="#F1F1F1" height="146.9297" id="workspaces" rx="2.5" ry="2.5" style="stroke:#181818;stroke-width:0.5;" width="112" x="181" y="172.71"/><ellipse cx="196" cy="188.71" fill="#ADD1B2" rx="11" ry="11" style="stroke:#181818;stroke-width:1.0;"/><path d="M199.6143,195.21 L191.8945,195.21 L191.8945,182.8169 L199.6143,182.8169 L199.6143,184.9751 L194.3433,184.9751 L194.3433,187.648 L199.1162,187.648 L199.1162,189.8062 L194.3433,189.8062 L194.3433,193.0518 L199.6143,193.0518 Z " fill="#000000"/><text fill="#000000" font-family="sans-serif" font-size="14" lengthAdjust="spacing" textLength="80" x="210" y="194.001">workspaces</text><line style="stroke:#181818;stroke-width:0.5;" x1="182" x2="292" y1="204.71" y2="204.71"/><ellipse cx="192" cy="218.4541" fill="#000000" rx="3" ry="3" style="stroke:#000000;stroke-width:1.0;"/><text fill="#000000" font-family="sans-serif" font-size="14" lengthAdjust="spacing" textLength="13" x="201" y="222.2452">id</text><ellipse cx="192" cy="234.9424" fill="#000000" rx="3" ry="3" style="stroke:#000000;stroke-width:1.0;"/><text fill="#000000" font-family="sans-serif" font-size="14" lengthAdjust="spacing" textLength="38" x="201" y="238.7334">name</text><ellipse cx="192" cy="251.4307" fill="#000000" rx="3" ry="3" style="stroke:#000000;stroke-width:1.0;"/><text fill="#000000" font-family="sans-serif" font-size="14" lengthAdjust="spacing" textLength="29" x="201" y="255.2217">slug</text><ellipse cx="192" cy="267.919" fill="#000000" rx="3" ry="3" style="stroke:#000000;stroke-width:1.0;"/><text fill="#000000" font-family="sans-serif" font-size="14" lengthAdjust="spacing" textLength="71" x="201" y="271.71">created_at</text><ellipse cx="192" cy="284.4073" fill="#000000" rx="3" ry="3" style="stroke:#000000;stroke-width:1.0;"/><text fill="#000000" font-family="sans-serif" font-size="14" lengthAdjust="spacing" textLength="77" x="201" y="288.1983">updated_at</text><ellipse cx="192" cy="300.8955" fill="#000000" rx="3" ry="3" style="stroke:#000000;stroke-width:1.0;"/><text fill="#000000" font-family="sans-serif" font-size="14" lengthAdjust="spacing" textLength="57" x="201" y="304.6866">versions</text><line style="stroke:#181818;stroke-width:0.5;" x1="182" x2="292" y1="311.6397" y2="311.6397"/></g><!--class workspace_members--><g id="elem_workspace_members"><rect codeLine="22" fill="#F1F1F1" height="80.9766" id="workspace_members" rx="2.5" ry="2.5" style="stroke:#181818;stroke-width:0.5;" width="176" x="388" y="205.69"/><ellipse cx="403" cy="221.69" fill="#ADD1B2" rx="11" ry="11" style="stroke:#181818;stroke-width:1.0;"/><path d="M406.6143,228.19 L398.8945,228.19 L398.8945,215.7969 L406.6143,215.7969 L406.6143,217.9551 L401.3433,217.9551 L401.3433,220.628 L406.1162,220.628 L406.1162,222.7862 L401.3433,222.7862 L401.3433,226.0318 L406.6143,226.0318 Z " fill="#000000"/><text fill="#000000" font-family="sans-serif" font-size="14" lengthAdjust="spacing" textLength="144" x="417" y="226.981">workspace_members</text><line style="stroke:#181818;stroke-width:0.5;" x1="389" x2="563" y1="237.69" y2="237.69"/><ellipse cx="399" cy="251.4341" fill="#000000" rx="3" ry="3" style="stroke:#000000;stroke-width:1.0;"/><text fill="#000000" font-family="sans-serif" font-size="14" lengthAdjust="spacing" textLength="93" x="408" y="255.2252">workspace_id</text><ellipse cx="399" cy="267.9224" fill="#000000" rx="3" ry="3" style="stroke:#000000;stroke-width:1.0;"/><text fill="#000000" font-family="sans-serif" font-size="14" lengthAdjust="spacing" textLength="77" x="408" y="271.7134">member_id</text><line style="stroke:#181818;stroke-width:0.5;" x1="389" x2="563" y1="278.6666" y2="278.6666"/></g><!--class data_sources--><g id="elem_data_sources"><rect codeLine="27" fill="#F1F1F1" height="163.418" id="data_sources" rx="2.5" ry="2.5" style="stroke:#181818;stroke-width:0.5;" width="122" x="24" y="164.47"/><ellipse cx="39" cy="180.47" fill="#ADD1B2" rx="11" ry="11" style="stroke:#181818;stroke-width:1.0;"/><path d="M42.6143,186.97 L34.8945,186.97 L34.8945,174.5769 L42.6143,174.5769 L42.6143,176.7351 L37.3433,176.7351 L37.3433,179.408 L42.1162,179.408 L42.1162,181.5662 L37.3433,181.5662 L37.3433,184.8118 L42.6143,184.8118 Z " fill="#000000"/><text fill="#000000" font-family="sans-serif" font-size="14" lengthAdjust="spacing" textLength="90" x="53" y="185.761">data_sources</text><line style="stroke:#181818;stroke-width:0.5;" x1="25" x2="145" y1="196.47" y2="196.47"/><ellipse cx="35" cy="210.2141" fill="#000000" rx="3" ry="3" style="stroke:#000000;stroke-width:1.0;"/><text fill="#000000" font-family="sans-serif" font-size="14" lengthAdjust="spacing" textLength="13" x="44" y="214.0052">id</text><ellipse cx="35" cy="226.7024" fill="#000000" rx="3" ry="3" style="stroke:#000000;stroke-width:1.0;"/><text fill="#000000" font-family="sans-serif" font-size="14" lengthAdjust="spacing" textLength="38" x="44" y="230.4934">name</text><ellipse cx="35" cy="243.1907" fill="#000000" rx="3" ry="3" style="stroke:#000000;stroke-width:1.0;"/><text fill="#000000" font-family="sans-serif" font-size="14" lengthAdjust="spacing" textLength="19" x="44" y="246.9817">url</text><ellipse cx="35" cy="259.679" fill="#000000" rx="3" ry="3" style="stroke:#000000;stroke-width:1.0;"/><text fill="#000000" font-family="sans-serif" font-size="14" lengthAdjust="spacing" textLength="68" x="44" y="263.47">username</text><ellipse cx="35" cy="276.1673" fill="#000000" rx="3" ry="3" style="stroke:#000000;stroke-width:1.0;"/><text fill="#000000" font-family="sans-serif" font-size="14" lengthAdjust="spacing" textLength="66" x="44" y="279.9583">password</text><ellipse cx="35" cy="292.6555" fill="#000000" rx="3" ry="3" style="stroke:#000000;stroke-width:1.0;"/><text fill="#000000" font-family="sans-serif" font-size="14" lengthAdjust="spacing" textLength="96" x="44" y="296.4466">driver_type_id</text><ellipse cx="35" cy="309.1438" fill="#000000" rx="3" ry="3" style="stroke:#000000;stroke-width:1.0;"/><text fill="#000000" font-family="sans-serif" font-size="14" lengthAdjust="spacing" textLength="93" x="44" y="312.9348">workspace_id</text><line style="stroke:#181818;stroke-width:0.5;" x1="25" x2="145" y1="319.888" y2="319.888"/></g><!--class driver_types--><g id="elem_driver_types"><rect codeLine="37" fill="#F1F1F1" height="97.4648" id="driver_types" rx="2.5" ry="2.5" style="stroke:#181818;stroke-width:0.5;" width="142" x="14" y="7"/><ellipse cx="41.15" cy="23" fill="#ADD1B2" rx="11" ry="11" style="stroke:#181818;stroke-width:1.0;"/><path d="M44.7643,29.5 L37.0445,29.5 L37.0445,17.1069 L44.7643,17.1069 L44.7643,19.2651 L39.4933,19.2651 L39.4933,21.938 L44.2662,21.938 L44.2662,24.0962 L39.4933,24.0962 L39.4933,27.3418 L44.7643,27.3418 Z " fill="#000000"/><text fill="#000000" font-family="sans-serif" font-size="14" lengthAdjust="spacing" textLength="83" x="57.85" y="28.291">driver_types</text><line style="stroke:#181818;stroke-width:0.5;" x1="15" x2="155" y1="39" y2="39"/><ellipse cx="25" cy="52.7441" fill="#000000" rx="3" ry="3" style="stroke:#000000;stroke-width:1.0;"/><text fill="#000000" font-family="sans-serif" font-size="14" lengthAdjust="spacing" textLength="13" x="34" y="56.5352">id</text><ellipse cx="25" cy="69.2324" fill="#000000" rx="3" ry="3" style="stroke:#000000;stroke-width:1.0;"/><text fill="#000000" font-family="sans-serif" font-size="14" lengthAdjust="spacing" textLength="38" x="34" y="73.0234">name</text><ellipse cx="25" cy="85.7207" fill="#000000" rx="3" ry="3" style="stroke:#000000;stroke-width:1.0;"/><text fill="#000000" font-family="sans-serif" font-size="14" lengthAdjust="spacing" textLength="116" x="34" y="89.5117">jdbc_driver_class</text><line style="stroke:#181818;stroke-width:0.5;" x1="15" x2="155" y1="96.4648" y2="96.4648"/></g><!--class reports--><g id="elem_reports"><rect codeLine="43" fill="#F1F1F1" height="130.4414" id="reports" rx="2.5" ry="2.5" style="stroke:#181818;stroke-width:0.5;" width="156" x="7" y="412.62"/><ellipse cx="55.75" cy="428.62" fill="#ADD1B2" rx="11" ry="11" style="stroke:#181818;stroke-width:1.0;"/><path d="M59.3643,435.12 L51.6445,435.12 L51.6445,422.7269 L59.3643,422.7269 L59.3643,424.8851 L54.0933,424.8851 L54.0933,427.558 L58.8662,427.558 L58.8662,429.7162 L54.0933,429.7162 L54.0933,432.9618 L59.3643,432.9618 Z " fill="#000000"/><text fill="#000000" font-family="sans-serif" font-size="14" lengthAdjust="spacing" textLength="50" x="76.25" y="433.911">reports</text><line style="stroke:#181818;stroke-width:0.5;" x1="8" x2="162" y1="444.62" y2="444.62"/><ellipse cx="18" cy="458.3641" fill="#000000" rx="3" ry="3" style="stroke:#000000;stroke-width:1.0;"/><text fill="#000000" font-family="sans-serif" font-size="14" lengthAdjust="spacing" textLength="13" x="27" y="462.1552">id</text><ellipse cx="18" cy="474.8524" fill="#000000" rx="3" ry="3" style="stroke:#000000;stroke-width:1.0;"/><text fill="#000000" font-family="sans-serif" font-size="14" lengthAdjust="spacing" textLength="93" x="27" y="478.6434">workspace_id</text><ellipse cx="18" cy="491.3407" fill="#000000" rx="3" ry="3" style="stroke:#000000;stroke-width:1.0;"/><text fill="#000000" font-family="sans-serif" font-size="14" lengthAdjust="spacing" textLength="38" x="27" y="495.1317">name</text><ellipse cx="18" cy="507.829" fill="#000000" rx="3" ry="3" style="stroke:#000000;stroke-width:1.0;"/><text fill="#000000" font-family="sans-serif" font-size="14" lengthAdjust="spacing" textLength="130" x="27" y="511.62">report_template_id</text><ellipse cx="18" cy="524.3173" fill="#000000" rx="3" ry="3" style="stroke:#000000;stroke-width:1.0;"/><text fill="#000000" font-family="sans-serif" font-size="14" lengthAdjust="spacing" textLength="103" x="27" y="528.1083">data_source_id</text><line style="stroke:#181818;stroke-width:0.5;" x1="8" x2="162" y1="535.0614" y2="535.0614"/></g><!--class report_templates--><g id="elem_report_templates"><rect codeLine="51" fill="#F1F1F1" height="163.418" id="report_templates" rx="2.5" ry="2.5" style="stroke:#181818;stroke-width:0.5;" width="188" x="122" y="627.79"/><ellipse cx="154.55" cy="643.79" fill="#ADD1B2" rx="11" ry="11" style="stroke:#181818;stroke-width:1.0;"/><path d="M158.1643,650.29 L150.4445,650.29 L150.4445,637.8969 L158.1643,637.8969 L158.1643,640.0551 L152.8933,640.0551 L152.8933,642.728 L157.6662,642.728 L157.6662,644.8862 L152.8933,644.8862 L152.8933,648.1318 L158.1643,648.1318 Z " fill="#000000"/><text fill="#000000" font-family="sans-serif" font-size="14" lengthAdjust="spacing" textLength="117" x="172.45" y="649.081">report_templates</text><line style="stroke:#181818;stroke-width:0.5;" x1="123" x2="309" y1="659.79" y2="659.79"/><ellipse cx="133" cy="673.5341" fill="#000000" rx="3" ry="3" style="stroke:#000000;stroke-width:1.0;"/><text fill="#000000" font-family="sans-serif" font-size="14" lengthAdjust="spacing" textLength="13" x="142" y="677.3252">id</text><ellipse cx="133" cy="690.0224" fill="#000000" rx="3" ry="3" style="stroke:#000000;stroke-width:1.0;"/><text fill="#000000" font-family="sans-serif" font-size="14" lengthAdjust="spacing" textLength="93" x="142" y="693.8134">workspace_id</text><ellipse cx="133" cy="706.5107" fill="#000000" rx="3" ry="3" style="stroke:#000000;stroke-width:1.0;"/><text fill="#000000" font-family="sans-serif" font-size="14" lengthAdjust="spacing" textLength="72" x="142" y="710.3017">storage_id</text><ellipse cx="133" cy="722.999" fill="#000000" rx="3" ry="3" style="stroke:#000000;stroke-width:1.0;"/><text fill="#000000" font-family="sans-serif" font-size="14" lengthAdjust="spacing" textLength="38" x="142" y="726.79">name</text><ellipse cx="133" cy="739.4873" fill="#000000" rx="3" ry="3" style="stroke:#000000;stroke-width:1.0;"/><text fill="#000000" font-family="sans-serif" font-size="14" lengthAdjust="spacing" textLength="59" x="142" y="743.2783">file_path</text><ellipse cx="133" cy="755.9755" fill="#000000" rx="3" ry="3" style="stroke:#000000;stroke-width:1.0;"/><text fill="#000000" font-family="sans-serif" font-size="14" lengthAdjust="spacing" textLength="162" x="142" y="759.7666">storage_type: [local, s3]</text><ellipse cx="133" cy="772.4638" fill="#000000" rx="3" ry="3" style="stroke:#000000;stroke-width:1.0;"/><text fill="#000000" font-family="sans-serif" font-size="14" lengthAdjust="spacing" textLength="55" x="142" y="776.2548">file_size</text><line style="stroke:#181818;stroke-width:0.5;" x1="123" x2="309" y1="783.208" y2="783.208"/></g><!--class storages_s3--><g id="elem_storages_s3"><rect codeLine="61" fill="#F1F1F1" height="146.9297" id="storages_s3" rx="2.5" ry="2.5" style="stroke:#181818;stroke-width:0.5;" width="181" x="269.5" y="404.37"/><ellipse cx="314.75" cy="420.37" fill="#ADD1B2" rx="11" ry="11" style="stroke:#181818;stroke-width:1.0;"/><path d="M318.3643,426.87 L310.6445,426.87 L310.6445,414.4769 L318.3643,414.4769 L318.3643,416.6351 L313.0933,416.6351 L313.0933,419.308 L317.8662,419.308 L317.8662,421.4662 L313.0933,421.4662 L313.0933,424.7118 L318.3643,424.7118 Z " fill="#000000"/><text fill="#000000" font-family="sans-serif" font-size="14" lengthAdjust="spacing" textLength="82" x="335.25" y="425.661">storages_s3</text><line style="stroke:#181818;stroke-width:0.5;" x1="270.5" x2="449.5" y1="436.37" y2="436.37"/><ellipse cx="280.5" cy="450.1141" fill="#000000" rx="3" ry="3" style="stroke:#000000;stroke-width:1.0;"/><text fill="#000000" font-family="sans-serif" font-size="14" lengthAdjust="spacing" textLength="13" x="289.5" y="453.9052">id</text><ellipse cx="280.5" cy="466.6024" fill="#000000" rx="3" ry="3" style="stroke:#000000;stroke-width:1.0;"/><text fill="#000000" font-family="sans-serif" font-size="14" lengthAdjust="spacing" textLength="93" x="289.5" y="470.3934">workspace_id</text><ellipse cx="280.5" cy="483.0907" fill="#000000" rx="3" ry="3" style="stroke:#000000;stroke-width:1.0;"/><text fill="#000000" font-family="sans-serif" font-size="14" lengthAdjust="spacing" textLength="127" x="289.5" y="486.8817">aws_access_key_id</text><ellipse cx="280.5" cy="499.579" fill="#000000" rx="3" ry="3" style="stroke:#000000;stroke-width:1.0;"/><text fill="#000000" font-family="sans-serif" font-size="14" lengthAdjust="spacing" textLength="155" x="289.5" y="503.37">aws_secret_access_key</text><ellipse cx="280.5" cy="516.0673" fill="#000000" rx="3" ry="3" style="stroke:#000000;stroke-width:1.0;"/><text fill="#000000" font-family="sans-serif" font-size="14" lengthAdjust="spacing" textLength="78" x="289.5" y="519.8583">aws_region</text><ellipse cx="280.5" cy="532.5555" fill="#000000" rx="3" ry="3" style="stroke:#000000;stroke-width:1.0;"/><text fill="#000000" font-family="sans-serif" font-size="14" lengthAdjust="spacing" textLength="114" x="289.5" y="536.3466">s3_bucket_name</text><line style="stroke:#181818;stroke-width:0.5;" x1="270.5" x2="449.5" y1="543.2997" y2="543.2997"/></g><!--link workspaces to workspace_members--><g id="link_workspaces_workspace_members"><path codeLine="70" d="M293.48,246.18 C324.85,246.18 348.22,246.18 379.59,246.18 " fill="none" id="workspaces-to-workspace_members" style="stroke:#181818;stroke-width:1.0;"/><line style="stroke:#181818;stroke-width:1.0;" x1="379.59" x2="387.59" y1="246.18" y2="238.18"/><line style="stroke:#181818;stroke-width:1.0;" x1="379.59" x2="387.59" y1="246.18" y2="254.18"/><line style="stroke:#181818;stroke-width:1.0;" x1="379.59" x2="387.59" y1="246.18" y2="246.18"/></g><!--reverse link workspace_members to members--><g id="link_workspace_members_members"><path codeLine="71" d="M488.6123,294.6523 C495.9723,322.3823 504.05,352.78 513.3,387.61 " fill="none" id="workspace_members-backto-members" style="stroke:#181818;stroke-width:1.0;"/><line style="stroke:#181818;stroke-width:1.0;" x1="488.6123" x2="478.8277" y1="294.6523" y2="286.92"/><line style="stroke:#181818;stroke-width:1.0;" x1="488.6123" x2="494.2923" y1="294.6523" y2="286.92"/><line style="stroke:#181818;stroke-width:1.0;" x1="488.6123" x2="486.56" y1="294.6523" y2="286.92"/></g><!--reverse link data_sources to workspaces--><g id="link_data_sources_workspaces"><path codeLine="72" d="M154.45,246.18 C165.89,246.18 169.33,246.18 180.76,246.18 " fill="none" id="data_sources-backto-workspaces" style="stroke:#181818;stroke-width:1.0;"/><line style="stroke:#181818;stroke-width:1.0;" x1="154.45" x2="146.45" y1="246.18" y2="254.18"/><line style="stroke:#181818;stroke-width:1.0;" x1="154.45" x2="146.45" y1="246.18" y2="238.18"/><line style="stroke:#181818;stroke-width:1.0;" x1="154.45" x2="146.45" y1="246.18" y2="246.18"/></g><!--link workspaces to reports--><g id="link_workspaces_reports"><path codeLine="73" d="M188.91,319.84 C169.25,349.54 151.1151,376.9387 132.0551,405.7387 " fill="none" id="workspaces-to-reports" style="stroke:#181818;stroke-width:1.0;"/><line style="stroke:#181818;stroke-width:1.0;" x1="132.0551" x2="134.3113" y1="405.7387" y2="412.41"/><line style="stroke:#181818;stroke-width:1.0;" x1="132.0551" x2="120.9687" y1="405.7387" y2="412.41"/><line style="stroke:#181818;stroke-width:1.0;" x1="132.0551" x2="127.64" y1="405.7387" y2="412.41"/></g><!--link workspaces to report_templates--><g id="link_workspaces_report_templates"><path codeLine="74" d="M233.68,320.02 C229.88,403.68 224.014,532.5683 220.054,619.5083 " fill="none" id="workspaces-to-report_templates" style="stroke:#181818;stroke-width:1.0;"/><line style="stroke:#181818;stroke-width:1.0;" x1="220.054" x2="227.6817" y1="619.5083" y2="627.5"/><line style="stroke:#181818;stroke-width:1.0;" x1="220.054" x2="211.6983" y1="619.5083" y2="627.5"/><line style="stroke:#181818;stroke-width:1.0;" x1="220.054" x2="219.69" y1="619.5083" y2="627.5"/></g><!--reverse link reports to report_templates--><g id="link_reports_report_templates"><path codeLine="75" d="M125.8037,550.3691 C140.7137,576.5091 154.12,600.02 169.86,627.61 " fill="none" id="reports-backto-report_templates" style="stroke:#181818;stroke-width:1.0;"/><line style="stroke:#181818;stroke-width:1.0;" x1="125.8037" x2="114.8909" y1="550.3691" y2="543.42"/><line style="stroke:#181818;stroke-width:1.0;" x1="125.8037" x2="128.7891" y1="550.3691" y2="543.42"/><line style="stroke:#181818;stroke-width:1.0;" x1="125.8037" x2="121.84" y1="550.3691" y2="543.42"/></g><!--link driver_types to data_sources--><g id="link_driver_types_data_sources"><path codeLine="76" d="M85,104.77 C85,122.88 85,136 85,156.28 " fill="none" id="driver_types-to-data_sources" style="stroke:#181818;stroke-width:1.0;"/><line style="stroke:#181818;stroke-width:1.0;" x1="85" x2="93" y1="156.28" y2="164.28"/><line style="stroke:#181818;stroke-width:1.0;" x1="85" x2="77" y1="156.28" y2="164.28"/><line style="stroke:#181818;stroke-width:1.0;" x1="85" x2="85" y1="156.28" y2="164.28"/></g><!--link data_sources to reports--><g id="link_data_sources_reports"><path codeLine="77" d="M85,328.15 C85,355.78 85,378.29 85,404.45 " fill="none" id="data_sources-to-reports" style="stroke:#181818;stroke-width:1.0;"/><line style="stroke:#181818;stroke-width:1.0;" x1="85" x2="93" y1="404.45" y2="412.45"/><line style="stroke:#181818;stroke-width:1.0;" x1="85" x2="77" y1="404.45" y2="412.45"/><line style="stroke:#181818;stroke-width:1.0;" x1="85" x2="85" y1="404.45" y2="412.45"/></g><!--link workspaces to storages_s3--><g id="link_workspaces_storages_s3"><path codeLine="78" d="M275.92,319.84 C290.35,346.78 302.9236,370.2674 317.3436,397.1974 " fill="none" id="workspaces-to-storages_s3" style="stroke:#181818;stroke-width:1.0;"/><line style="stroke:#181818;stroke-width:1.0;" x1="317.3436" x2="328.1726" y1="397.1974" y2="404.25"/><line style="stroke:#181818;stroke-width:1.0;" x1="317.3436" x2="314.0674" y1="397.1974" y2="404.25"/><line style="stroke:#181818;stroke-width:1.0;" x1="317.3436" x2="321.12" y1="397.1974" y2="404.25"/></g><!--link storages_s3 to report_templates--><g id="link_storages_s3_report_templates"><path codeLine="79" d="M314.44,551.51 C299.28,575.69 286.5496,595.982 271.0196,620.752 " fill="none" id="storages_s3-to-report_templates" style="stroke:#181818;stroke-width:1.0;"/><line style="stroke:#181818;stroke-width:1.0;" x1="271.0196" x2="273.548" y1="620.752" y2="627.53"/><line style="stroke:#181818;stroke-width:1.0;" x1="271.0196" x2="259.992" y1="620.752" y2="627.53"/><line style="stroke:#181818;stroke-width:1.0;" x1="271.0196" x2="266.77" y1="620.752" y2="627.53"/></g><!--SRC=[fLBBSeGW4Bpp5PotuibRVYMLeX0dXeX2CPWjO-s_1tp2ucOFEIbqptJFqD0xwKRQGLU1HJeHIYzKrlC7EYxL_DVp3kOVmn6lsWQSqaRhHW5RsS82Tr0pxkRZOEhu-EsxIzqZkH42YwRlqwBX0kvaTp5KG_FFrYmTxBXVjHOud8vYtvmpr8Dzx6omoru617kscmkjhVI-c1lDhfM8Ht87yv7SLrq9jlA4yZ9HkGMZhRkhpERSMorqvg0poYznmwEPKtTt_6SwwBJbJIxx8NrG37UV2IlC_4hVb1PSlL0itmykoX-8RAmLoB1yue1VaN7XdmvP2sDyY-1pv29mHomqFa2BjP9LWsWzR_Rk7KGnBGexvTaYUTfkHK4pDDIhAObN2axROvvV7uz0jaSFEXcO12gK9uf9kl_GZ3PEuksV-la5]--></g></svg>